<svg xmlns="http://www.w3.org/2000/svg" xmlns:xlink="http://www.w3.org/1999/xlink" width="500" zoomAndPan="magnify" viewBox="0 0 375 97.5" height="130" preserveAspectRatio="xMidYMid meet" version="1.0"><defs><g/><clipPath id="a37fc00549"><path d="M 13.773438 11.0625 L 88.308594 11.0625 L 88.308594 85.640625 L 13.773438 85.640625 Z M 13.773438 11.0625 " clip-rule="nonzero"/></clipPath><clipPath id="169e6ff711"><path d="M 36.144531 11.0625 L 65.878906 11.0625 C 78.234375 11.0625 88.253906 21.082031 88.253906 33.4375 L 88.253906 63.171875 C 88.253906 75.527344 78.234375 85.546875 65.878906 85.546875 L 36.144531 85.546875 C 23.789062 85.546875 13.773438 75.527344 13.773438 63.171875 L 13.773438 33.4375 C 13.773438 21.082031 23.789062 11.0625 36.144531 11.0625 Z M 36.144531 11.0625 " clip-rule="nonzero"/></clipPath><clipPath id="2967867a83"><path d="M 29.699219 25.328125 L 75.6875 25.328125 L 75.6875 71.316406 L 29.699219 71.316406 Z M 29.699219 25.328125 " clip-rule="nonzero"/></clipPath><clipPath id="474aed8d04"><path d="M 29.699219 31.292969 L 29.699219 65.316406 C 29.699219 68.609375 32.371094 71.28125 35.664062 71.28125 L 69.6875 71.28125 C 72.980469 71.28125 75.652344 68.609375 75.652344 65.316406 L 75.652344 31.292969 C 75.652344 29.710938 75.023438 28.195312 73.90625 27.074219 C 72.785156 25.957031 71.269531 25.328125 69.6875 25.328125 L 35.664062 25.328125 C 32.371094 25.328125 29.699219 28 29.699219 31.292969 Z M 29.699219 31.292969 " clip-rule="nonzero"/></clipPath></defs><g clip-path="url(#a37fc00549)"><g clip-path="url(#169e6ff711)"><path stroke-linecap="butt" transform="matrix(0.248592, 0, 0, 0.248592, 13.772056, 11.06415)" fill="none" stroke-linejoin="miter" d="M 89.996827 -0.00663845 L 209.608061 -0.00663845 C 259.309891 -0.00663845 299.615043 40.298513 299.615043 90.000343 L 299.615043 209.611577 C 299.615043 259.313407 259.309891 299.618559 209.608061 299.618559 L 89.996827 299.618559 C 40.294997 299.618559 0.0055586 259.313407 0.0055586 209.611577 L 0.0055586 90.000343 C 0.0055586 40.298513 40.294997 -0.00663845 89.996827 -0.00663845 Z M 89.996827 -0.00663845 " stroke="#373a3d" stroke-width="44" stroke-opacity="1" stroke-miterlimit="4"/></g></g><g clip-path="url(#2967867a83)"><g clip-path="url(#474aed8d04)"><path fill="#373a3d" d="M 32.453125 25.328125 L 52.644531 25.328125 C 58.96875 25.328125 64.710938 27.945312 68.894531 32.082031 C 73.03125 36.265625 75.648438 42.007812 75.648438 48.320312 C 75.648438 54.632812 73.03125 60.386719 68.894531 64.570312 C 64.710938 68.707031 58.96875 71.277344 52.65625 71.277344 L 43.511719 71.277344 L 43.511719 60.230469 L 49.023438 60.230469 L 49.023438 65.746094 L 52.65625 65.746094 C 57.433594 65.746094 61.800781 63.816406 64.96875 60.628906 C 68.140625 57.4375 70.089844 53.089844 70.089844 48.3125 C 70.089844 43.488281 68.160156 39.167969 64.96875 35.996094 C 61.78125 32.828125 57.433594 30.878906 52.65625 30.878906 L 35.210938 30.878906 L 35.210938 51.925781 L 43.5 51.925781 L 43.5 39.175781 L 52.644531 39.175781 C 55.144531 39.175781 57.425781 40.214844 59.105469 41.859375 C 60.742188 43.542969 61.789062 45.8125 61.789062 48.320312 C 61.789062 50.828125 60.75 53.101562 59.105469 54.78125 C 57.425781 56.417969 55.15625 57.464844 52.644531 57.464844 L 29.699219 57.464844 L 29.699219 25.328125 Z M 29.699219 71.277344 L 35.210938 71.277344 L 35.210938 65.761719 L 29.699219 65.761719 Z M 49.023438 44.699219 L 49.023438 51.953125 L 52.65625 51.953125 C 53.621094 51.953125 54.519531 51.539062 55.183594 50.867188 C 55.851562 50.195312 56.265625 49.304688 56.265625 48.339844 C 56.265625 47.375 55.851562 46.472656 55.183594 45.8125 C 54.511719 45.140625 53.621094 44.726562 52.65625 44.726562 L 49.023438 44.726562 Z M 49.023438 44.699219 " fill-opacity="1" fill-rule="nonzero"/></g></g><g fill="#373a3d" fill-opacity="1"><g transform="translate(98.302703, 72.378826)"><g><path d="M 41.296875 -23.5 C 41.296875 -15.863281 39.1875 -10.035156 34.96875 -6.015625 C 30.75 -2.003906 24.703125 0 16.828125 0 L 4.765625 0 L 4.765625 -45.765625 L 16.828125 -45.765625 C 24.703125 -45.765625 30.75 -43.816406 34.96875 -39.921875 C 39.1875 -36.023438 41.296875 -30.550781 41.296875 -23.5 Z M 31.140625 -23.5 C 31.140625 -28.3125 30.023438 -31.828125 27.796875 -34.046875 C 25.578125 -36.273438 22.285156 -37.390625 17.921875 -37.390625 L 15.171875 -37.390625 L 15.171875 -8.328125 L 17.921875 -8.328125 C 22.367188 -8.328125 25.679688 -9.519531 27.859375 -11.90625 C 30.046875 -14.289062 31.140625 -18.15625 31.140625 -23.5 Z M 31.140625 -23.5 "/></g></g></g><g fill="#373a3d" fill-opacity="1"><g transform="translate(144.068185, 72.378826)"><g><path d="M 15.421875 -37.140625 L 15.421875 -27.84375 L 32.734375 -27.84375 L 32.734375 -19.765625 L 15.421875 -19.765625 L 15.421875 -8.5625 L 33.953125 -8.5625 L 33.953125 0 L 4.765625 0 L 4.765625 -45.765625 L 33.953125 -45.765625 L 33.953125 -37.140625 Z M 15.421875 -37.140625 "/></g></g></g><g fill="#373a3d" fill-opacity="1"><g transform="translate(184.693979, 72.378826)"><g><path d="M 4.765625 0 L 4.765625 -45.765625 L 14.984375 -45.765625 L 29.734375 -17.6875 L 29.859375 -17.6875 L 29.859375 -45.765625 L 40.078125 -45.765625 L 40.078125 0 L 29.859375 0 L 15.109375 -28.078125 L 14.984375 -28.078125 L 14.984375 0 Z M 4.765625 0 "/></g></g></g><g fill="#373a3d" fill-opacity="1"><g transform="translate(232.050317, 72.378826)"><g><path d="M 12.84375 -22.890625 C 12.84375 -18.109375 13.972656 -14.398438 16.234375 -11.765625 C 18.503906 -9.140625 21.515625 -7.828125 25.265625 -7.828125 C 28.609375 -7.828125 32.203125 -8.5 36.046875 -9.84375 L 36.046875 -0.796875 C 32.242188 0.140625 28.222656 0.609375 23.984375 0.609375 C 17.128906 0.609375 11.742188 -1.40625 7.828125 -5.4375 C 3.910156 -9.476562 1.953125 -15.296875 1.953125 -22.890625 C 1.953125 -30.304688 3.847656 -36.070312 7.640625 -40.1875 C 11.441406 -44.3125 16.75 -46.375 23.5625 -46.375 C 27.96875 -46.375 31.941406 -45.882812 35.484375 -44.90625 L 35.484375 -35.796875 C 31.609375 -37.097656 28.0625 -37.75 24.84375 -37.75 C 21.050781 -37.75 18.101562 -36.484375 16 -33.953125 C 13.894531 -31.429688 12.84375 -27.742188 12.84375 -22.890625 Z M 12.84375 -22.890625 "/></g></g></g><g fill="#373a3d" fill-opacity="1"><g transform="translate(275.062395, 72.378826)"><g><path d="M 13.46875 -45.765625 L 21.71875 -26.125 L 21.84375 -26.125 L 30.171875 -45.765625 L 42.03125 -45.765625 L 27.109375 -17.5625 L 27.109375 0 L 16.15625 0 L 16.15625 -17.5625 L 1.34375 -45.765625 Z M 13.46875 -45.765625 "/></g></g></g><g fill="#373a3d" fill-opacity="1"><g transform="translate(320.950262, 72.378826)"><g><path d="M 14.9375 -45.765625 L 14.9375 -15.84375 C 14.9375 -12.988281 15.472656 -10.957031 16.546875 -9.75 C 17.628906 -8.550781 19.382812 -7.953125 21.8125 -7.953125 C 24.238281 -7.953125 25.992188 -8.550781 27.078125 -9.75 C 28.160156 -10.957031 28.703125 -12.988281 28.703125 -15.84375 L 28.703125 -45.765625 L 39.21875 -45.765625 L 39.21875 -16.578125 C 39.21875 -5.117188 33.375 0.609375 21.6875 0.609375 C 10 0.609375 4.15625 -5.117188 4.15625 -16.578125 L 4.15625 -45.765625 Z M 14.9375 -45.765625 "/></g></g></g></svg>