<svg xmlns="http://www.w3.org/2000/svg" xmlns:xlink="http://www.w3.org/1999/xlink" width="500" zoomAndPan="magnify" viewBox="0 0 375 97.5" height="130" preserveAspectRatio="xMidYMid meet" version="1.0"><defs><g/><clipPath id="6dcc5070a1"><path d="M 12.300781 10.691406 L 86.839844 10.691406 L 86.839844 85.269531 L 12.300781 85.269531 Z M 12.300781 10.691406 " clip-rule="nonzero"/></clipPath><clipPath id="2f7c0c8755"><path d="M 34.675781 10.691406 L 64.410156 10.691406 C 76.765625 10.691406 86.78125 20.707031 86.78125 33.0625 L 86.78125 62.796875 C 86.78125 75.152344 76.765625 85.171875 64.410156 85.171875 L 34.675781 85.171875 C 22.316406 85.171875 12.300781 75.152344 12.300781 62.796875 L 12.300781 33.0625 C 12.300781 20.707031 22.316406 10.691406 34.675781 10.691406 Z M 34.675781 10.691406 " clip-rule="nonzero"/></clipPath><clipPath id="31059db719"><path d="M 28.226562 24.953125 L 74.214844 24.953125 L 74.214844 70.945312 L 28.226562 70.945312 Z M 28.226562 24.953125 " clip-rule="nonzero"/></clipPath><clipPath id="2378fc366c"><path d="M 28.226562 30.921875 L 28.226562 64.941406 C 28.226562 68.238281 30.898438 70.910156 34.191406 70.910156 L 68.214844 70.910156 C 71.511719 70.910156 74.179688 68.238281 74.179688 64.941406 L 74.179688 30.921875 C 74.179688 29.339844 73.550781 27.820312 72.433594 26.703125 C 71.316406 25.582031 69.796875 24.953125 68.214844 24.953125 L 34.191406 24.953125 C 30.898438 24.953125 28.226562 27.625 28.226562 30.921875 Z M 28.226562 30.921875 " clip-rule="nonzero"/></clipPath></defs><g clip-path="url(#6dcc5070a1)"><g clip-path="url(#2f7c0c8755)"><path stroke-linecap="butt" transform="matrix(0.248592, 0, 0, 0.248592, 12.30079, 10.691061)" fill="none" stroke-linejoin="miter" d="M 90.006947 0.00139011 L 209.618181 0.00139011 C 259.320011 0.00139011 299.60945 40.290828 299.60945 89.992659 L 299.60945 209.603892 C 299.60945 259.305722 259.320011 299.610874 209.618181 299.610874 L 90.006947 299.610874 C 40.289404 299.610874 -0.0000344462 259.305722 -0.0000344462 209.603892 L -0.0000344462 89.992659 C -0.0000344462 40.290828 40.289404 0.00139011 90.006947 0.00139011 Z M 90.006947 0.00139011 " stroke="#f3f2f3" stroke-width="44" stroke-opacity="1" stroke-miterlimit="4"/></g></g><g clip-path="url(#31059db719)"><g clip-path="url(#2378fc366c)"><path fill="#f3f2f3" d="M 30.984375 24.953125 L 51.175781 24.953125 C 57.496094 24.953125 63.242188 27.574219 67.421875 31.710938 C 71.558594 35.890625 74.175781 41.636719 74.175781 47.949219 C 74.175781 54.261719 71.558594 60.015625 67.421875 64.195312 C 63.242188 68.332031 57.496094 70.90625 51.183594 70.90625 L 42.039062 70.90625 L 42.039062 59.859375 L 47.554688 59.859375 L 47.554688 65.371094 L 51.183594 65.371094 C 55.960938 65.371094 60.328125 63.441406 63.496094 60.253906 C 66.667969 57.066406 68.617188 52.71875 68.617188 47.941406 C 68.617188 43.113281 66.6875 38.796875 63.496094 35.625 C 60.308594 32.453125 55.960938 30.503906 51.183594 30.503906 L 33.742188 30.503906 L 33.742188 51.550781 L 42.03125 51.550781 L 42.03125 38.804688 L 51.175781 38.804688 C 53.675781 38.804688 55.953125 39.84375 57.632812 41.488281 C 59.269531 43.167969 60.320312 45.441406 60.320312 47.949219 C 60.320312 50.457031 59.28125 52.726562 57.632812 54.410156 C 55.953125 56.046875 53.683594 57.09375 51.175781 57.09375 L 28.226562 57.09375 L 28.226562 24.953125 Z M 28.226562 70.90625 L 33.742188 70.90625 L 33.742188 65.390625 L 28.226562 65.390625 Z M 47.554688 44.328125 L 47.554688 51.578125 L 51.183594 51.578125 C 52.148438 51.578125 53.050781 51.164062 53.710938 50.496094 C 54.382812 49.824219 54.796875 48.933594 54.796875 47.96875 C 54.796875 47 54.382812 46.101562 53.710938 45.441406 C 53.039062 44.769531 52.148438 44.355469 51.183594 44.355469 L 47.554688 44.355469 Z M 47.554688 44.328125 " fill-opacity="1" fill-rule="nonzero"/></g></g><g fill="#f3f2f3" fill-opacity="1"><g transform="translate(96.679871, 72.751913)"><g><path d="M 41.296875 -23.5 C 41.296875 -15.863281 39.1875 -10.035156 34.96875 -6.015625 C 30.75 -2.003906 24.703125 0 16.828125 0 L 4.765625 0 L 4.765625 -45.765625 L 16.828125 -45.765625 C 24.703125 -45.765625 30.75 -43.816406 34.96875 -39.921875 C 39.1875 -36.023438 41.296875 -30.550781 41.296875 -23.5 Z M 31.140625 -23.5 C 31.140625 -28.3125 30.023438 -31.828125 27.796875 -34.046875 C 25.578125 -36.273438 22.285156 -37.390625 17.921875 -37.390625 L 15.171875 -37.390625 L 15.171875 -8.328125 L 17.921875 -8.328125 C 22.367188 -8.328125 25.679688 -9.519531 27.859375 -11.90625 C 30.046875 -14.289062 31.140625 -18.15625 31.140625 -23.5 Z M 31.140625 -23.5 "/></g></g></g><g fill="#f3f2f3" fill-opacity="1"><g transform="translate(142.445353, 72.751913)"><g><path d="M 15.421875 -37.140625 L 15.421875 -27.84375 L 32.734375 -27.84375 L 32.734375 -19.765625 L 15.421875 -19.765625 L 15.421875 -8.5625 L 33.953125 -8.5625 L 33.953125 0 L 4.765625 0 L 4.765625 -45.765625 L 33.953125 -45.765625 L 33.953125 -37.140625 Z M 15.421875 -37.140625 "/></g></g></g><g fill="#f3f2f3" fill-opacity="1"><g transform="translate(183.071147, 72.751913)"><g><path d="M 4.765625 0 L 4.765625 -45.765625 L 14.984375 -45.765625 L 29.734375 -17.6875 L 29.859375 -17.6875 L 29.859375 -45.765625 L 40.078125 -45.765625 L 40.078125 0 L 29.859375 0 L 15.109375 -28.078125 L 14.984375 -28.078125 L 14.984375 0 Z M 4.765625 0 "/></g></g></g><g fill="#f3f2f3" fill-opacity="1"><g transform="translate(230.427485, 72.751913)"><g><path d="M 12.84375 -22.890625 C 12.84375 -18.109375 13.972656 -14.398438 16.234375 -11.765625 C 18.503906 -9.140625 21.515625 -7.828125 25.265625 -7.828125 C 28.609375 -7.828125 32.203125 -8.5 36.046875 -9.84375 L 36.046875 -0.796875 C 32.242188 0.140625 28.222656 0.609375 23.984375 0.609375 C 17.128906 0.609375 11.742188 -1.40625 7.828125 -5.4375 C 3.910156 -9.476562 1.953125 -15.296875 1.953125 -22.890625 C 1.953125 -30.304688 3.847656 -36.070312 7.640625 -40.1875 C 11.441406 -44.3125 16.75 -46.375 23.5625 -46.375 C 27.96875 -46.375 31.941406 -45.882812 35.484375 -44.90625 L 35.484375 -35.796875 C 31.609375 -37.097656 28.0625 -37.75 24.84375 -37.75 C 21.050781 -37.75 18.101562 -36.484375 16 -33.953125 C 13.894531 -31.429688 12.84375 -27.742188 12.84375 -22.890625 Z M 12.84375 -22.890625 "/></g></g></g><g fill="#f3f2f3" fill-opacity="1"><g transform="translate(273.439563, 72.751913)"><g><path d="M 13.46875 -45.765625 L 21.71875 -26.125 L 21.84375 -26.125 L 30.171875 -45.765625 L 42.03125 -45.765625 L 27.109375 -17.5625 L 27.109375 0 L 16.15625 0 L 16.15625 -17.5625 L 1.34375 -45.765625 Z M 13.46875 -45.765625 "/></g></g></g><g fill="#f3f2f3" fill-opacity="1"><g transform="translate(319.32743, 72.751913)"><g><path d="M 14.9375 -45.765625 L 14.9375 -15.84375 C 14.9375 -12.988281 15.472656 -10.957031 16.546875 -9.75 C 17.628906 -8.550781 19.382812 -7.953125 21.8125 -7.953125 C 24.238281 -7.953125 25.992188 -8.550781 27.078125 -9.75 C 28.160156 -10.957031 28.703125 -12.988281 28.703125 -15.84375 L 28.703125 -45.765625 L 39.21875 -45.765625 L 39.21875 -16.578125 C 39.21875 -5.117188 33.375 0.609375 21.6875 0.609375 C 10 0.609375 4.15625 -5.117188 4.15625 -16.578125 L 4.15625 -45.765625 Z M 14.9375 -45.765625 "/></g></g></g></svg>