<svg xmlns="http://www.w3.org/2000/svg" xmlns:xlink="http://www.w3.org/1999/xlink" width="500" zoomAndPan="magnify" viewBox="0 0 375 374.999991" height="500" preserveAspectRatio="xMidYMid meet" version="1.0"><rect x="-37.5" width="450" fill="#ffffff" y="-37.499999" height="449.999989" fill-opacity="1"/><rect x="-37.5" width="450" fill="#ffffff" y="-37.499999" height="449.999989" fill-opacity="1"/><path fill="#63b3ed" d="M 131.136719 176.195312 C 118.367188 150.433594 91.679688 148.425781 73.148438 160.21875 C 57.984375 169.835938 51.246094 188.476562 56.136719 205.761719 C 59.179688 216.574219 63.527344 226.792969 68.964844 236.359375 C 76.410156 249.402344 87.714844 259.835938 101.300781 266.25 C 116.464844 273.476562 130.59375 277.121094 143.203125 277.121094 C 158.691406 277.121094 171.570312 271.523438 182.550781 262.609375 C 158.964844 239.835938 144.507812 203.207031 131.136719 176.195312 Z M 131.136719 176.195312 " fill-opacity="1" fill-rule="nonzero"/><path fill="#63b3ed" d="M 134.667969 95.707031 C 134.667969 96.875 134.613281 98.042969 134.496094 99.207031 C 134.382812 100.371094 134.210938 101.527344 133.984375 102.671875 C 133.753906 103.820312 133.472656 104.953125 133.132812 106.070312 C 132.792969 107.191406 132.398438 108.289062 131.953125 109.371094 C 131.503906 110.453125 131.003906 111.507812 130.453125 112.539062 C 129.902344 113.570312 129.300781 114.570312 128.652344 115.542969 C 128.003906 116.515625 127.304688 117.453125 126.566406 118.359375 C 125.824219 119.261719 125.039062 120.128906 124.210938 120.953125 C 123.382812 121.78125 122.519531 122.566406 121.613281 123.308594 C 120.710938 124.050781 119.773438 124.746094 118.800781 125.394531 C 117.828125 126.046875 116.828125 126.644531 115.796875 127.195312 C 114.765625 127.75 113.707031 128.246094 112.628906 128.695312 C 111.546875 129.140625 110.445312 129.535156 109.328125 129.875 C 108.210938 130.214844 107.074219 130.5 105.929688 130.726562 C 104.78125 130.957031 103.625 131.125 102.464844 131.242188 C 101.300781 131.355469 100.132812 131.414062 98.964844 131.414062 C 97.792969 131.414062 96.628906 131.355469 95.464844 131.242188 C 94.300781 131.125 93.144531 130.957031 91.996094 130.726562 C 90.851562 130.5 89.71875 130.214844 88.597656 129.875 C 87.480469 129.535156 86.378906 129.140625 85.300781 128.695312 C 84.21875 128.246094 83.164062 127.75 82.132812 127.195312 C 81.101562 126.644531 80.097656 126.046875 79.125 125.394531 C 78.152344 124.746094 77.214844 124.050781 76.3125 123.308594 C 75.40625 122.566406 74.542969 121.78125 73.714844 120.953125 C 72.886719 120.128906 72.101562 119.261719 71.363281 118.359375 C 70.621094 117.453125 69.925781 116.515625 69.273438 115.542969 C 68.625 114.570312 68.023438 113.570312 67.472656 112.539062 C 66.921875 111.507812 66.421875 110.453125 65.972656 109.371094 C 65.527344 108.289062 65.132812 107.191406 64.792969 106.070312 C 64.453125 104.953125 64.171875 103.820312 63.941406 102.671875 C 63.714844 101.527344 63.542969 100.371094 63.429688 99.207031 C 63.3125 98.042969 63.257812 96.875 63.257812 95.707031 C 63.257812 94.535156 63.3125 93.371094 63.429688 92.207031 C 63.542969 91.042969 63.714844 89.886719 63.941406 88.742188 C 64.171875 87.59375 64.453125 86.460938 64.792969 85.339844 C 65.132812 84.222656 65.527344 83.121094 65.972656 82.042969 C 66.421875 80.960938 66.921875 79.90625 67.472656 78.875 C 68.023438 77.84375 68.625 76.839844 69.273438 75.867188 C 69.925781 74.898438 70.621094 73.957031 71.363281 73.054688 C 72.101562 72.152344 72.886719 71.285156 73.714844 70.457031 C 74.542969 69.632812 75.40625 68.847656 76.3125 68.105469 C 77.214844 67.363281 78.152344 66.667969 79.125 66.019531 C 80.097656 65.367188 81.101562 64.765625 82.132812 64.214844 C 83.164062 63.664062 84.21875 63.164062 85.300781 62.71875 C 86.378906 62.269531 87.480469 61.878906 88.597656 61.539062 C 89.71875 61.199219 90.851562 60.914062 91.996094 60.6875 C 93.144531 60.457031 94.300781 60.285156 95.464844 60.171875 C 96.628906 60.058594 97.792969 60 98.964844 60 C 100.132812 60 101.300781 60.058594 102.464844 60.171875 C 103.625 60.285156 104.78125 60.457031 105.929688 60.6875 C 107.074219 60.914062 108.210938 61.199219 109.328125 61.539062 C 110.445312 61.878906 111.546875 62.269531 112.628906 62.71875 C 113.707031 63.164062 114.765625 63.664062 115.796875 64.214844 C 116.828125 64.765625 117.828125 65.367188 118.800781 66.019531 C 119.773438 66.667969 120.710938 67.363281 121.613281 68.105469 C 122.519531 68.847656 123.382812 69.632812 124.210938 70.457031 C 125.039062 71.285156 125.824219 72.152344 126.566406 73.054688 C 127.304688 73.957031 128.003906 74.898438 128.652344 75.867188 C 129.300781 76.839844 129.902344 77.84375 130.453125 78.875 C 131.003906 79.90625 131.503906 80.960938 131.953125 82.042969 C 132.398438 83.121094 132.792969 84.222656 133.132812 85.339844 C 133.472656 86.460938 133.753906 87.59375 133.984375 88.742188 C 134.210938 89.886719 134.382812 91.042969 134.496094 92.207031 C 134.613281 93.371094 134.667969 94.535156 134.667969 95.707031 Z M 134.667969 95.707031 " fill-opacity="1" fill-rule="nonzero"/><path fill="#2b6cb0" d="M 301.953125 160.21875 C 283.417969 148.425781 256.679688 150.378906 243.964844 176.195312 C 218.257812 227.933594 188.746094 315 98.472656 272.121094 C 122.386719 292.71875 153.527344 305.164062 187.550781 305.164062 C 249.996094 305.164062 302.660156 263.207031 318.910156 205.976562 C 323.746094 188.695312 317.117188 169.835938 301.953125 160.21875 Z M 301.953125 160.21875 " fill-opacity="1" fill-rule="nonzero"/><path fill="#2b6cb0" d="M 311.789062 95.707031 C 311.789062 96.875 311.730469 98.042969 311.617188 99.207031 C 311.503906 100.371094 311.332031 101.527344 311.101562 102.671875 C 310.875 103.820312 310.589844 104.953125 310.25 106.070312 C 309.914062 107.191406 309.519531 108.289062 309.070312 109.371094 C 308.625 110.453125 308.125 111.507812 307.574219 112.539062 C 307.023438 113.570312 306.421875 114.570312 305.773438 115.542969 C 305.121094 116.515625 304.425781 117.453125 303.683594 118.359375 C 302.941406 119.261719 302.15625 120.128906 301.332031 120.953125 C 300.503906 121.78125 299.636719 122.566406 298.734375 123.308594 C 297.832031 124.050781 296.890625 124.746094 295.921875 125.394531 C 294.949219 126.046875 293.945312 126.644531 292.914062 127.195312 C 291.882812 127.75 290.828125 128.246094 289.746094 128.695312 C 288.667969 129.140625 287.566406 129.535156 286.449219 129.875 C 285.328125 130.214844 284.195312 130.5 283.046875 130.726562 C 281.902344 130.957031 280.746094 131.125 279.582031 131.242188 C 278.417969 131.355469 277.253906 131.414062 276.082031 131.414062 C 274.914062 131.414062 273.746094 131.355469 272.582031 131.242188 C 271.417969 131.125 270.261719 130.957031 269.117188 130.726562 C 267.96875 130.5 266.835938 130.214844 265.71875 129.875 C 264.597656 129.535156 263.5 129.140625 262.417969 128.695312 C 261.339844 128.246094 260.28125 127.75 259.25 127.195312 C 258.21875 126.644531 257.21875 126.046875 256.246094 125.394531 C 255.273438 124.746094 254.335938 124.050781 253.429688 123.308594 C 252.527344 122.566406 251.660156 121.78125 250.835938 120.953125 C 250.007812 120.128906 249.222656 119.261719 248.480469 118.359375 C 247.738281 117.453125 247.042969 116.515625 246.394531 115.542969 C 245.742188 114.570312 245.144531 113.570312 244.59375 112.539062 C 244.042969 111.507812 243.542969 110.453125 243.09375 109.371094 C 242.648438 108.289062 242.253906 107.191406 241.914062 106.070312 C 241.574219 104.953125 241.289062 103.820312 241.0625 102.671875 C 240.835938 101.527344 240.664062 100.371094 240.546875 99.207031 C 240.433594 98.042969 240.375 96.875 240.375 95.707031 C 240.375 94.535156 240.433594 93.371094 240.546875 92.207031 C 240.664062 91.042969 240.835938 89.886719 241.0625 88.742188 C 241.289062 87.59375 241.574219 86.460938 241.914062 85.339844 C 242.253906 84.222656 242.648438 83.121094 243.09375 82.042969 C 243.542969 80.960938 244.042969 79.90625 244.59375 78.875 C 245.144531 77.84375 245.742188 76.839844 246.394531 75.867188 C 247.042969 74.898438 247.738281 73.957031 248.480469 73.054688 C 249.222656 72.152344 250.007812 71.285156 250.835938 70.457031 C 251.660156 69.632812 252.527344 68.847656 253.429688 68.105469 C 254.335938 67.363281 255.273438 66.667969 256.246094 66.019531 C 257.21875 65.367188 258.21875 64.765625 259.25 64.214844 C 260.28125 63.664062 261.339844 63.164062 262.417969 62.71875 C 263.5 62.269531 264.597656 61.878906 265.71875 61.539062 C 266.835938 61.199219 267.96875 60.914062 269.117188 60.6875 C 270.261719 60.457031 271.417969 60.285156 272.582031 60.171875 C 273.746094 60.058594 274.914062 60 276.082031 60 C 277.253906 60 278.417969 60.058594 279.582031 60.171875 C 280.746094 60.285156 281.902344 60.457031 283.046875 60.6875 C 284.195312 60.914062 285.328125 61.199219 286.449219 61.539062 C 287.566406 61.878906 288.667969 62.269531 289.746094 62.71875 C 290.828125 63.164062 291.882812 63.664062 292.914062 64.214844 C 293.945312 64.765625 294.949219 65.367188 295.921875 66.019531 C 296.890625 66.667969 297.832031 67.363281 298.734375 68.105469 C 299.636719 68.847656 300.503906 69.632812 301.332031 70.457031 C 302.15625 71.285156 302.941406 72.152344 303.683594 73.054688 C 304.425781 73.957031 305.121094 74.898438 305.773438 75.867188 C 306.421875 76.839844 307.023438 77.84375 307.574219 78.875 C 308.125 79.90625 308.625 80.960938 309.070312 82.042969 C 309.519531 83.121094 309.914062 84.222656 310.25 85.339844 C 310.589844 86.460938 310.875 87.59375 311.101562 88.742188 C 311.332031 89.886719 311.503906 91.042969 311.617188 92.207031 C 311.730469 93.371094 311.789062 94.535156 311.789062 95.707031 Z M 311.789062 95.707031 " fill-opacity="1" fill-rule="nonzero"/></svg>