<svg xmlns="http://www.w3.org/2000/svg" xmlns:xlink="http://www.w3.org/1999/xlink" width="500" zoomAndPan="magnify" viewBox="0 0 375 374.999991" height="500" preserveAspectRatio="xMidYMid meet" version="1.0"><defs><clipPath id="64bb009cfe"><path d="M 37.578125 37.578125 L 337.261719 37.578125 L 337.261719 337.417969 L 37.578125 337.417969 Z M 37.578125 37.578125 " clip-rule="nonzero"/></clipPath><clipPath id="a148c2d081"><path d="M 127.53125 37.578125 L 247.078125 37.578125 C 296.757812 37.578125 337.027344 77.855469 337.027344 127.53125 L 337.027344 247.078125 C 337.027344 296.753906 296.757812 337.03125 247.078125 337.03125 L 127.53125 337.03125 C 77.851562 337.03125 37.578125 296.753906 37.578125 247.078125 L 37.578125 127.53125 C 37.578125 77.855469 77.851562 37.578125 127.53125 37.578125 Z M 127.53125 37.578125 " clip-rule="nonzero"/></clipPath><clipPath id="e33952ce03"><path d="M 101.609375 94.925781 L 286.511719 94.925781 L 286.511719 279.828125 L 101.609375 279.828125 Z M 101.609375 94.925781 " clip-rule="nonzero"/></clipPath><clipPath id="92023d8320"><path d="M 101.609375 118.910156 L 101.609375 255.699219 C 101.609375 268.949219 112.351562 279.6875 125.59375 279.6875 L 262.382812 279.6875 C 275.632812 279.6875 286.371094 268.949219 286.371094 255.699219 L 286.371094 118.910156 C 286.371094 112.550781 283.839844 106.453125 279.34375 101.953125 C 274.84375 97.453125 268.746094 94.925781 262.382812 94.925781 L 125.59375 94.925781 C 112.351562 94.925781 101.609375 105.667969 101.609375 118.910156 Z M 101.609375 118.910156 " clip-rule="nonzero"/></clipPath></defs><g clip-path="url(#64bb009cfe)"><g clip-path="url(#a148c2d081)"><path stroke-linecap="butt" transform="matrix(0.999467, 0, 0, 0.999467, 37.579997, 37.580018)" fill="none" stroke-linejoin="miter" d="M 89.999259 -0.00189434 L 209.609936 -0.00189434 C 259.316137 -0.00189434 299.60716 40.296945 299.60716 89.999238 L 299.60716 209.609915 C 299.60716 259.312208 259.316137 299.611047 209.609936 299.611047 L 89.999259 299.611047 C 40.293058 299.611047 -0.00187315 259.312208 -0.00187315 209.609915 L -0.00187315 89.999238 C -0.00187315 40.296945 40.293058 -0.00189434 89.999259 -0.00189434 Z M 89.999259 -0.00189434 " stroke="#c8c5c2" stroke-width="44" stroke-opacity="1" stroke-miterlimit="4"/></g></g><g clip-path="url(#e33952ce03)"><g clip-path="url(#92023d8320)"><path fill="#c8c5c2" d="M 112.695312 94.925781 L 193.871094 94.925781 C 219.292969 94.925781 242.386719 105.457031 259.199219 122.082031 C 275.824219 138.894531 286.355469 161.988281 286.355469 187.375 C 286.355469 212.753906 275.824219 235.886719 259.199219 252.699219 C 242.386719 269.328125 219.292969 279.671875 193.90625 279.671875 L 157.140625 279.671875 L 157.140625 235.261719 L 179.3125 235.261719 L 179.3125 257.425781 L 193.90625 257.425781 C 213.121094 257.425781 230.671875 249.667969 243.417969 236.847656 C 256.167969 224.027344 264 206.550781 264 187.339844 C 264 167.9375 256.242188 150.574219 243.417969 137.824219 C 230.601562 125.078125 213.121094 117.246094 193.90625 117.246094 L 123.777344 117.246094 L 123.777344 201.859375 L 157.105469 201.859375 L 157.105469 150.609375 L 193.871094 150.609375 C 203.921875 150.609375 213.085938 154.785156 219.84375 161.394531 C 226.421875 168.160156 230.636719 177.285156 230.636719 187.375 C 230.636719 197.457031 226.460938 206.589844 219.84375 213.347656 C 213.085938 219.925781 203.960938 224.136719 193.871094 224.136719 L 101.609375 224.136719 L 101.609375 94.925781 Z M 101.609375 279.671875 L 123.777344 279.671875 L 123.777344 257.5 L 101.609375 257.5 Z M 179.3125 172.8125 L 179.3125 201.96875 L 193.90625 201.96875 C 197.789062 201.96875 201.40625 200.308594 204.070312 197.609375 C 206.765625 194.910156 208.429688 191.328125 208.429688 187.449219 C 208.429688 183.566406 206.765625 179.949219 204.070312 177.285156 C 201.371094 174.589844 197.789062 172.925781 193.90625 172.925781 L 179.3125 172.925781 Z M 179.3125 172.8125 " fill-opacity="1" fill-rule="nonzero"/></g></g></svg>