<svg xmlns="http://www.w3.org/2000/svg" xmlns:xlink="http://www.w3.org/1999/xlink" width="1500" zoomAndPan="magnify" viewBox="0 148.5 375 78" height="312" preserveAspectRatio="xMidYMid meet" version="1.0"><defs><filter x="0%" y="0%" width="100%" height="100%" id="4286b515d1"><feColorMatrix values="0 0 0 0 1 0 0 0 0 1 0 0 0 0 1 0 0 0 1 0" color-interpolation-filters="sRGB"/></filter><g/><clipPath id="dcb918fbe9"><path d="M 0 0.195312 L 375 0.195312 L 375 266.078125 L 0 266.078125 Z M 0 0.195312 " clip-rule="nonzero"/></clipPath><clipPath id="aee79aab1d"><path d="M 0 0.195312 L 375 0.195312 L 375 266.078125 L 0 266.078125 Z M 0 0.195312 " clip-rule="nonzero"/></clipPath><clipPath id="90429a8669"><path d="M 0 0.195312 L 375 0.195312 L 375 266.078125 L 0 266.078125 Z M 0 0.195312 " clip-rule="nonzero"/></clipPath><clipPath id="45ae0fb382"><rect x="0" width="375" y="0" height="267"/></clipPath><clipPath id="c1e14b3afd"><rect x="0" width="375" y="0" height="267"/></clipPath><mask id="7d2123ecf3"><g filter="url(#4286b515d1)"><g transform="matrix(1, 0, 0, 1, 0, 0)"><g clip-path="url(#c1e14b3afd)"><g clip-path="url(#90429a8669)"><g transform="matrix(1, 0, 0, 1, 0, 0)"><g clip-path="url(#45ae0fb382)"><g fill="#000000" fill-opacity="1"><g transform="translate(90.308117, 150.477513)"><g><path d="M 32.515625 -18.5 C 32.515625 -12.488281 30.851562 -7.898438 27.53125 -4.734375 C 24.207031 -1.578125 19.445312 0 13.25 0 L 3.75 0 L 3.75 -36.03125 L 13.25 -36.03125 C 19.445312 -36.03125 24.207031 -34.492188 27.53125 -31.421875 C 30.851562 -28.359375 32.515625 -24.050781 32.515625 -18.5 Z M 24.515625 -18.5 C 24.515625 -22.289062 23.640625 -25.0625 21.890625 -26.8125 C 20.140625 -28.5625 17.546875 -29.4375 14.109375 -29.4375 L 11.953125 -29.4375 L 11.953125 -6.546875 L 14.109375 -6.546875 C 17.609375 -6.546875 20.21875 -7.484375 21.9375 -9.359375 C 23.65625 -11.242188 24.515625 -14.289062 24.515625 -18.5 Z M 24.515625 -18.5 "/></g></g><g transform="translate(124.362134, 150.477513)"><g><path d="M 13.734375 -26.15625 C 18.035156 -26.15625 21.078125 -25.375 22.859375 -23.8125 C 24.640625 -22.257812 25.53125 -19.703125 25.53125 -16.140625 L 25.53125 0 L 18.109375 0 L 18.015625 -3.421875 L 17.921875 -3.421875 C 15.867188 -0.816406 13.171875 0.484375 9.828125 0.484375 C 7.546875 0.484375 5.671875 -0.242188 4.203125 -1.703125 C 2.742188 -3.171875 2.015625 -5.078125 2.015625 -7.421875 C 2.015625 -13.390625 6.445312 -16.375 15.3125 -16.375 L 17.578125 -16.375 L 17.578125 -17 C 17.578125 -18.257812 17.253906 -19.164062 16.609375 -19.71875 C 15.972656 -20.28125 14.898438 -20.5625 13.390625 -20.5625 C 10.566406 -20.5625 7.273438 -20.019531 3.515625 -18.9375 L 3.515625 -24.671875 C 6.953125 -25.660156 10.359375 -26.15625 13.734375 -26.15625 Z M 17.578125 -11.75 L 15.3125 -11.75 C 11.332031 -11.75 9.34375 -10.515625 9.34375 -8.046875 C 9.34375 -7.148438 9.597656 -6.453125 10.109375 -5.953125 C 10.628906 -5.453125 11.335938 -5.203125 12.234375 -5.203125 C 13.804688 -5.203125 15.085938 -5.695312 16.078125 -6.6875 C 17.078125 -7.6875 17.578125 -9.019531 17.578125 -10.6875 Z M 17.578125 -11.75 "/></g></g><g transform="translate(152.925122, 150.477513)"><g><path d="M 15.171875 -24.671875 L 23.21875 -24.671875 L 23.21875 -19.078125 L 15.171875 -19.078125 L 15.171875 -10.21875 C 15.171875 -8.125 15.363281 -6.800781 15.75 -6.25 C 16.132812 -5.707031 16.988281 -5.4375 18.3125 -5.4375 C 19.851562 -5.4375 21.3125 -5.664062 22.6875 -6.125 L 22.6875 -0.140625 C 20.789062 0.273438 18.671875 0.484375 16.328125 0.484375 C 12.953125 0.484375 10.585938 -0.226562 9.234375 -1.65625 C 7.890625 -3.09375 7.21875 -5.671875 7.21875 -9.390625 L 7.21875 -19.078125 L 2.015625 -19.078125 L 2.015625 -24.671875 L 7.21875 -24.671875 L 7.21875 -34.0625 L 15.171875 -34.0625 Z M 15.171875 -24.671875 "/></g></g><g transform="translate(179.416933, 150.477513)"><g><path d="M 13.734375 -26.15625 C 18.035156 -26.15625 21.078125 -25.375 22.859375 -23.8125 C 24.640625 -22.257812 25.53125 -19.703125 25.53125 -16.140625 L 25.53125 0 L 18.109375 0 L 18.015625 -3.421875 L 17.921875 -3.421875 C 15.867188 -0.816406 13.171875 0.484375 9.828125 0.484375 C 7.546875 0.484375 5.671875 -0.242188 4.203125 -1.703125 C 2.742188 -3.171875 2.015625 -5.078125 2.015625 -7.421875 C 2.015625 -13.390625 6.445312 -16.375 15.3125 -16.375 L 17.578125 -16.375 L 17.578125 -17 C 17.578125 -18.257812 17.253906 -19.164062 16.609375 -19.71875 C 15.972656 -20.28125 14.898438 -20.5625 13.390625 -20.5625 C 10.566406 -20.5625 7.273438 -20.019531 3.515625 -18.9375 L 3.515625 -24.671875 C 6.953125 -25.660156 10.359375 -26.15625 13.734375 -26.15625 Z M 17.578125 -11.75 L 15.3125 -11.75 C 11.332031 -11.75 9.34375 -10.515625 9.34375 -8.046875 C 9.34375 -7.148438 9.597656 -6.453125 10.109375 -5.953125 C 10.628906 -5.453125 11.335938 -5.203125 12.234375 -5.203125 C 13.804688 -5.203125 15.085938 -5.695312 16.078125 -6.6875 C 17.078125 -7.6875 17.578125 -9.019531 17.578125 -10.6875 Z M 17.578125 -11.75 "/></g></g><g transform="translate(207.97992, 150.477513)"><g><path d="M 12 -21.78125 L 13.625 -21.78125 C 16.164062 -21.78125 18 -22.109375 19.125 -22.765625 C 20.25 -23.421875 20.8125 -24.4375 20.8125 -25.8125 C 20.8125 -27.132812 20.351562 -28.097656 19.4375 -28.703125 C 18.519531 -29.316406 16.96875 -29.625 14.78125 -29.625 L 12 -29.625 Z M 12 -15.75 L 12 -6.359375 L 14.9375 -6.359375 C 17.3125 -6.359375 19.035156 -6.757812 20.109375 -7.5625 C 21.179688 -8.363281 21.71875 -9.664062 21.71875 -11.46875 C 21.71875 -12.945312 21.148438 -14.03125 20.015625 -14.71875 C 18.878906 -15.40625 16.976562 -15.75 14.3125 -15.75 Z M 29.578125 -10.59375 C 29.578125 -6.9375 28.335938 -4.253906 25.859375 -2.546875 C 23.390625 -0.847656 19.3125 0 13.625 0 L 3.75 0 L 3.75 -36.03125 L 13.109375 -36.03125 C 18.503906 -36.03125 22.40625 -35.273438 24.8125 -33.765625 C 27.21875 -32.253906 28.421875 -30.007812 28.421875 -27.03125 C 28.421875 -25 27.757812 -23.285156 26.4375 -21.890625 C 25.125 -20.492188 23.3125 -19.585938 21 -19.171875 L 21 -19.078125 C 23.632812 -18.753906 25.722656 -17.8125 27.265625 -16.25 C 28.804688 -14.695312 29.578125 -12.8125 29.578125 -10.59375 Z M 29.578125 -10.59375 "/></g></g><g transform="translate(239.095756, 150.477513)"><g><path d="M 2.984375 -25.625 L 10.75 -25.625 L 10.75 -10.75 C 10.75 -8.851562 11.007812 -7.550781 11.53125 -6.84375 C 12.0625 -6.132812 12.953125 -5.78125 14.203125 -5.78125 C 15.359375 -5.78125 16.410156 -6.242188 17.359375 -7.171875 C 18.304688 -8.109375 18.78125 -9.125 18.78125 -10.21875 L 18.78125 -25.625 L 26.78125 -25.625 L 26.78125 0 L 19.171875 0 L 19.078125 -3.28125 L 18.984375 -3.28125 C 16.859375 -0.769531 14.269531 0.484375 11.21875 0.484375 C 8.332031 0.484375 6.238281 -0.316406 4.9375 -1.921875 C 3.632812 -3.523438 2.984375 -6.289062 2.984375 -10.21875 Z M 2.984375 -25.625 "/></g></g><g transform="translate(269.151918, 150.477513)"><g><path d="M 19.265625 -37 L 27.21875 -37 L 27.21875 0 L 19.84375 0 L 19.75 -3.28125 L 19.65625 -3.28125 C 17.5 -0.769531 14.878906 0.484375 11.796875 0.484375 C 8.878906 0.484375 6.476562 -0.6875 4.59375 -3.03125 C 2.71875 -5.375 1.78125 -8.632812 1.78125 -12.8125 C 1.78125 -17.082031 2.6875 -20.375 4.5 -22.6875 C 6.3125 -25 8.742188 -26.15625 11.796875 -26.15625 C 14.492188 -26.15625 16.953125 -25.128906 19.171875 -23.078125 L 19.265625 -23.078125 Z M 9.59375 -12.8125 C 9.59375 -10.3125 10.03125 -8.457031 10.90625 -7.25 C 11.789062 -6.039062 12.988281 -5.4375 14.5 -5.4375 C 15.8125 -5.4375 16.957031 -5.878906 17.9375 -6.765625 C 18.914062 -7.648438 19.40625 -8.65625 19.40625 -9.78125 L 19.40625 -15.890625 C 19.40625 -17.015625 18.914062 -18.019531 17.9375 -18.90625 C 16.957031 -19.789062 15.8125 -20.234375 14.5 -20.234375 C 11.226562 -20.234375 9.59375 -17.757812 9.59375 -12.8125 Z M 9.59375 -12.8125 "/></g></g><g transform="translate(299.882418, 150.477513)"><g><path d="M 19.265625 -37 L 27.21875 -37 L 27.21875 0 L 19.84375 0 L 19.75 -3.28125 L 19.65625 -3.28125 C 17.5 -0.769531 14.878906 0.484375 11.796875 0.484375 C 8.878906 0.484375 6.476562 -0.6875 4.59375 -3.03125 C 2.71875 -5.375 1.78125 -8.632812 1.78125 -12.8125 C 1.78125 -17.082031 2.6875 -20.375 4.5 -22.6875 C 6.3125 -25 8.742188 -26.15625 11.796875 -26.15625 C 14.492188 -26.15625 16.953125 -25.128906 19.171875 -23.078125 L 19.265625 -23.078125 Z M 9.59375 -12.8125 C 9.59375 -10.3125 10.03125 -8.457031 10.90625 -7.25 C 11.789062 -6.039062 12.988281 -5.4375 14.5 -5.4375 C 15.8125 -5.4375 16.957031 -5.878906 17.9375 -6.765625 C 18.914062 -7.648438 19.40625 -8.65625 19.40625 -9.78125 L 19.40625 -15.890625 C 19.40625 -17.015625 18.914062 -18.019531 17.9375 -18.90625 C 16.957031 -19.789062 15.8125 -20.234375 14.5 -20.234375 C 11.226562 -20.234375 9.59375 -17.757812 9.59375 -12.8125 Z M 9.59375 -12.8125 "/></g></g><g transform="translate(330.612918, 150.477513)"><g><path d="M 3.125 11.375 L 3.125 5.34375 C 5.726562 5.34375 7.609375 4.972656 8.765625 4.234375 C 9.921875 3.492188 10.835938 2.082031 11.515625 0 L 1.546875 -25.625 L 10.3125 -25.625 L 15.078125 -7.5625 L 15.171875 -7.5625 L 20.46875 -25.625 L 28.859375 -25.625 L 19.21875 0.34375 C 17.738281 4.414062 15.785156 7.269531 13.359375 8.90625 C 10.941406 10.550781 7.53125 11.375 3.125 11.375 Z M 3.125 11.375 "/></g></g></g></g></g></g></g></g></g></mask><clipPath id="a052868c06"><path d="M 0 9.445312 L 375 9.445312 L 375 256.058594 L 0 256.058594 Z M 0 9.445312 " clip-rule="nonzero"/></clipPath><linearGradient x1="-50.763854" gradientTransform="matrix(0.77075, 0, 0, 0.77067, 90.222253, 98.842596)" y1="-182.294262" x2="352.506975" gradientUnits="userSpaceOnUse" y2="220.974627" id="63139e9585"><stop stop-opacity="1" stop-color="rgb(38.819885%, 70.199585%, 92.939758%)" offset="0"/><stop stop-opacity="1" stop-color="rgb(38.819885%, 70.199585%, 92.939758%)" offset="0.25"/><stop stop-opacity="1" stop-color="rgb(38.819885%, 70.199585%, 92.939758%)" offset="0.28125"/><stop stop-opacity="1" stop-color="rgb(38.819885%, 70.199585%, 92.939758%)" offset="0.296875"/><stop stop-opacity="1" stop-color="rgb(38.803101%, 70.178223%, 92.921448%)" offset="0.304688"/><stop stop-opacity="1" stop-color="rgb(38.618469%, 69.944763%, 92.721558%)" offset="0.308594"/><stop stop-opacity="1" stop-color="rgb(38.452148%, 69.734192%, 92.539978%)" offset="0.3125"/><stop stop-opacity="1" stop-color="rgb(38.285828%, 69.522095%, 92.358398%)" offset="0.316406"/><stop stop-opacity="1" stop-color="rgb(38.119507%, 69.311523%, 92.176819%)" offset="0.320312"/><stop stop-opacity="1" stop-color="rgb(37.95166%, 69.099426%, 91.995239%)" offset="0.324219"/><stop stop-opacity="1" stop-color="rgb(37.785339%, 68.888855%, 91.81366%)" offset="0.328125"/><stop stop-opacity="1" stop-color="rgb(37.619019%, 68.676758%, 91.63208%)" offset="0.332031"/><stop stop-opacity="1" stop-color="rgb(37.452698%, 68.466187%, 91.4505%)" offset="0.335938"/><stop stop-opacity="1" stop-color="rgb(37.284851%, 68.254089%, 91.268921%)" offset="0.339844"/><stop stop-opacity="1" stop-color="rgb(37.11853%, 68.043518%, 91.087341%)" offset="0.34375"/><stop stop-opacity="1" stop-color="rgb(36.952209%, 67.831421%, 90.905762%)" offset="0.347656"/><stop stop-opacity="1" stop-color="rgb(36.785889%, 67.619324%, 90.724182%)" offset="0.351562"/><stop stop-opacity="1" stop-color="rgb(36.618042%, 67.407227%, 90.542603%)" offset="0.355469"/><stop stop-opacity="1" stop-color="rgb(36.451721%, 67.196655%, 90.361023%)" offset="0.359375"/><stop stop-opacity="1" stop-color="rgb(36.2854%, 66.984558%, 90.179443%)" offset="0.363281"/><stop stop-opacity="1" stop-color="rgb(36.11908%, 66.773987%, 89.997864%)" offset="0.367188"/><stop stop-opacity="1" stop-color="rgb(35.951233%, 66.56189%, 89.816284%)" offset="0.371094"/><stop stop-opacity="1" stop-color="rgb(35.784912%, 66.351318%, 89.634705%)" offset="0.375"/><stop stop-opacity="1" stop-color="rgb(35.618591%, 66.139221%, 89.453125%)" offset="0.378906"/><stop stop-opacity="1" stop-color="rgb(35.452271%, 65.92865%, 89.271545%)" offset="0.382812"/><stop stop-opacity="1" stop-color="rgb(35.284424%, 65.716553%, 89.089966%)" offset="0.386719"/><stop stop-opacity="1" stop-color="rgb(35.118103%, 65.505981%, 88.908386%)" offset="0.390625"/><stop stop-opacity="1" stop-color="rgb(34.950256%, 65.293884%, 88.726807%)" offset="0.394531"/><stop stop-opacity="1" stop-color="rgb(34.783936%, 65.081787%, 88.545227%)" offset="0.398438"/><stop stop-opacity="1" stop-color="rgb(34.617615%, 64.86969%, 88.362122%)" offset="0.402344"/><stop stop-opacity="1" stop-color="rgb(34.451294%, 64.659119%, 88.180542%)" offset="0.40625"/><stop stop-opacity="1" stop-color="rgb(34.283447%, 64.447021%, 87.998962%)" offset="0.410156"/><stop stop-opacity="1" stop-color="rgb(34.117126%, 64.23645%, 87.817383%)" offset="0.414062"/><stop stop-opacity="1" stop-color="rgb(33.950806%, 64.024353%, 87.635803%)" offset="0.417969"/><stop stop-opacity="1" stop-color="rgb(33.784485%, 63.813782%, 87.454224%)" offset="0.421875"/><stop stop-opacity="1" stop-color="rgb(33.616638%, 63.601685%, 87.272644%)" offset="0.425781"/><stop stop-opacity="1" stop-color="rgb(33.450317%, 63.391113%, 87.091064%)" offset="0.429687"/><stop stop-opacity="1" stop-color="rgb(33.283997%, 63.179016%, 86.909485%)" offset="0.433594"/><stop stop-opacity="1" stop-color="rgb(33.117676%, 62.968445%, 86.727905%)" offset="0.4375"/><stop stop-opacity="1" stop-color="rgb(32.949829%, 62.756348%, 86.546326%)" offset="0.441406"/><stop stop-opacity="1" stop-color="rgb(32.783508%, 62.54425%, 86.364746%)" offset="0.445312"/><stop stop-opacity="1" stop-color="rgb(32.617188%, 62.332153%, 86.183167%)" offset="0.449219"/><stop stop-opacity="1" stop-color="rgb(32.450867%, 62.121582%, 86.001587%)" offset="0.453125"/><stop stop-opacity="1" stop-color="rgb(32.28302%, 61.909485%, 85.820007%)" offset="0.457031"/><stop stop-opacity="1" stop-color="rgb(32.116699%, 61.698914%, 85.638428%)" offset="0.460938"/><stop stop-opacity="1" stop-color="rgb(31.950378%, 61.486816%, 85.456848%)" offset="0.464844"/><stop stop-opacity="1" stop-color="rgb(31.784058%, 61.276245%, 85.275269%)" offset="0.46875"/><stop stop-opacity="1" stop-color="rgb(31.616211%, 61.064148%, 85.093689%)" offset="0.472656"/><stop stop-opacity="1" stop-color="rgb(31.44989%, 60.853577%, 84.912109%)" offset="0.476562"/><stop stop-opacity="1" stop-color="rgb(31.282043%, 60.641479%, 84.73053%)" offset="0.480469"/><stop stop-opacity="1" stop-color="rgb(31.115723%, 60.430908%, 84.54895%)" offset="0.484375"/><stop stop-opacity="1" stop-color="rgb(30.949402%, 60.218811%, 84.367371%)" offset="0.488281"/><stop stop-opacity="1" stop-color="rgb(30.783081%, 60.006714%, 84.185791%)" offset="0.492188"/><stop stop-opacity="1" stop-color="rgb(30.615234%, 59.794617%, 84.004211%)" offset="0.496094"/><stop stop-opacity="1" stop-color="rgb(30.448914%, 59.584045%, 83.822632%)" offset="0.5"/><stop stop-opacity="1" stop-color="rgb(30.282593%, 59.371948%, 83.641052%)" offset="0.503906"/><stop stop-opacity="1" stop-color="rgb(30.116272%, 59.161377%, 83.459473%)" offset="0.507812"/><stop stop-opacity="1" stop-color="rgb(29.948425%, 58.94928%, 83.277893%)" offset="0.511719"/><stop stop-opacity="1" stop-color="rgb(29.782104%, 58.738708%, 83.096313%)" offset="0.515625"/><stop stop-opacity="1" stop-color="rgb(29.615784%, 58.526611%, 82.914734%)" offset="0.519531"/><stop stop-opacity="1" stop-color="rgb(29.449463%, 58.31604%, 82.733154%)" offset="0.523438"/><stop stop-opacity="1" stop-color="rgb(29.281616%, 58.103943%, 82.551575%)" offset="0.527344"/><stop stop-opacity="1" stop-color="rgb(29.115295%, 57.893372%, 82.369995%)" offset="0.53125"/><stop stop-opacity="1" stop-color="rgb(28.948975%, 57.681274%, 82.188416%)" offset="0.535156"/><stop stop-opacity="1" stop-color="rgb(28.782654%, 57.469177%, 82.006836%)" offset="0.539062"/><stop stop-opacity="1" stop-color="rgb(28.614807%, 57.25708%, 81.825256%)" offset="0.542969"/><stop stop-opacity="1" stop-color="rgb(28.448486%, 57.046509%, 81.643677%)" offset="0.546875"/><stop stop-opacity="1" stop-color="rgb(28.28064%, 56.834412%, 81.460571%)" offset="0.550781"/><stop stop-opacity="1" stop-color="rgb(28.114319%, 56.62384%, 81.278992%)" offset="0.554688"/><stop stop-opacity="1" stop-color="rgb(27.947998%, 56.411743%, 81.097412%)" offset="0.558594"/><stop stop-opacity="1" stop-color="rgb(27.781677%, 56.201172%, 80.915833%)" offset="0.5625"/><stop stop-opacity="1" stop-color="rgb(27.613831%, 55.989075%, 80.734253%)" offset="0.566406"/><stop stop-opacity="1" stop-color="rgb(27.44751%, 55.778503%, 80.552673%)" offset="0.570312"/><stop stop-opacity="1" stop-color="rgb(27.281189%, 55.566406%, 80.371094%)" offset="0.574219"/><stop stop-opacity="1" stop-color="rgb(27.114868%, 55.355835%, 80.189514%)" offset="0.578125"/><stop stop-opacity="1" stop-color="rgb(26.947021%, 55.143738%, 80.007935%)" offset="0.582031"/><stop stop-opacity="1" stop-color="rgb(26.780701%, 54.931641%, 79.826355%)" offset="0.585938"/><stop stop-opacity="1" stop-color="rgb(26.61438%, 54.719543%, 79.644775%)" offset="0.589844"/><stop stop-opacity="1" stop-color="rgb(26.448059%, 54.508972%, 79.463196%)" offset="0.59375"/><stop stop-opacity="1" stop-color="rgb(26.280212%, 54.296875%, 79.281616%)" offset="0.597656"/><stop stop-opacity="1" stop-color="rgb(26.113892%, 54.086304%, 79.100037%)" offset="0.601562"/><stop stop-opacity="1" stop-color="rgb(25.947571%, 53.874207%, 78.918457%)" offset="0.605469"/><stop stop-opacity="1" stop-color="rgb(25.78125%, 53.663635%, 78.736877%)" offset="0.609375"/><stop stop-opacity="1" stop-color="rgb(25.613403%, 53.451538%, 78.555298%)" offset="0.613281"/><stop stop-opacity="1" stop-color="rgb(25.447083%, 53.240967%, 78.373718%)" offset="0.617188"/><stop stop-opacity="1" stop-color="rgb(25.280762%, 53.02887%, 78.192139%)" offset="0.621094"/><stop stop-opacity="1" stop-color="rgb(25.114441%, 52.818298%, 78.010559%)" offset="0.625"/><stop stop-opacity="1" stop-color="rgb(24.946594%, 52.606201%, 77.828979%)" offset="0.628906"/><stop stop-opacity="1" stop-color="rgb(24.780273%, 52.394104%, 77.6474%)" offset="0.632812"/><stop stop-opacity="1" stop-color="rgb(24.612427%, 52.182007%, 77.46582%)" offset="0.636719"/><stop stop-opacity="1" stop-color="rgb(24.446106%, 51.971436%, 77.284241%)" offset="0.640625"/><stop stop-opacity="1" stop-color="rgb(24.279785%, 51.759338%, 77.102661%)" offset="0.644531"/><stop stop-opacity="1" stop-color="rgb(24.113464%, 51.548767%, 76.921082%)" offset="0.648438"/><stop stop-opacity="1" stop-color="rgb(23.945618%, 51.33667%, 76.739502%)" offset="0.652344"/><stop stop-opacity="1" stop-color="rgb(23.779297%, 51.126099%, 76.557922%)" offset="0.65625"/><stop stop-opacity="1" stop-color="rgb(23.612976%, 50.914001%, 76.376343%)" offset="0.660156"/><stop stop-opacity="1" stop-color="rgb(23.446655%, 50.70343%, 76.194763%)" offset="0.664062"/><stop stop-opacity="1" stop-color="rgb(23.278809%, 50.491333%, 76.013184%)" offset="0.667969"/><stop stop-opacity="1" stop-color="rgb(23.112488%, 50.280762%, 75.831604%)" offset="0.671875"/><stop stop-opacity="1" stop-color="rgb(22.946167%, 50.068665%, 75.650024%)" offset="0.675781"/><stop stop-opacity="1" stop-color="rgb(22.779846%, 49.858093%, 75.468445%)" offset="0.679688"/><stop stop-opacity="1" stop-color="rgb(22.612%, 49.645996%, 75.286865%)" offset="0.683594"/><stop stop-opacity="1" stop-color="rgb(22.445679%, 49.433899%, 75.105286%)" offset="0.6875"/><stop stop-opacity="1" stop-color="rgb(22.279358%, 49.221802%, 74.923706%)" offset="0.691406"/><stop stop-opacity="1" stop-color="rgb(22.113037%, 49.01123%, 74.742126%)" offset="0.695312"/><stop stop-opacity="1" stop-color="rgb(21.94519%, 48.799133%, 74.559021%)" offset="0.699219"/><stop stop-opacity="1" stop-color="rgb(21.77887%, 48.588562%, 74.377441%)" offset="0.703125"/><stop stop-opacity="1" stop-color="rgb(21.612549%, 48.376465%, 74.195862%)" offset="0.707031"/><stop stop-opacity="1" stop-color="rgb(21.446228%, 48.165894%, 74.014282%)" offset="0.710938"/><stop stop-opacity="1" stop-color="rgb(21.278381%, 47.953796%, 73.832703%)" offset="0.714844"/><stop stop-opacity="1" stop-color="rgb(21.112061%, 47.743225%, 73.651123%)" offset="0.71875"/><stop stop-opacity="1" stop-color="rgb(20.944214%, 47.531128%, 73.469543%)" offset="0.722656"/><stop stop-opacity="1" stop-color="rgb(20.777893%, 47.320557%, 73.287964%)" offset="0.726562"/><stop stop-opacity="1" stop-color="rgb(20.611572%, 47.108459%, 73.106384%)" offset="0.730469"/><stop stop-opacity="1" stop-color="rgb(20.445251%, 46.896362%, 72.924805%)" offset="0.734375"/><stop stop-opacity="1" stop-color="rgb(20.277405%, 46.684265%, 72.743225%)" offset="0.738281"/><stop stop-opacity="1" stop-color="rgb(20.111084%, 46.473694%, 72.561646%)" offset="0.742188"/><stop stop-opacity="1" stop-color="rgb(19.944763%, 46.261597%, 72.380066%)" offset="0.746094"/><stop stop-opacity="1" stop-color="rgb(19.778442%, 46.051025%, 72.198486%)" offset="0.75"/><stop stop-opacity="1" stop-color="rgb(19.610596%, 45.838928%, 72.016907%)" offset="0.753906"/><stop stop-opacity="1" stop-color="rgb(19.444275%, 45.628357%, 71.835327%)" offset="0.757812"/><stop stop-opacity="1" stop-color="rgb(19.277954%, 45.41626%, 71.653748%)" offset="0.761719"/><stop stop-opacity="1" stop-color="rgb(19.111633%, 45.205688%, 71.472168%)" offset="0.765625"/><stop stop-opacity="1" stop-color="rgb(18.943787%, 44.993591%, 71.290588%)" offset="0.769531"/><stop stop-opacity="1" stop-color="rgb(18.777466%, 44.78302%, 71.109009%)" offset="0.773438"/><stop stop-opacity="1" stop-color="rgb(18.611145%, 44.570923%, 70.927429%)" offset="0.777344"/><stop stop-opacity="1" stop-color="rgb(18.444824%, 44.358826%, 70.74585%)" offset="0.78125"/><stop stop-opacity="1" stop-color="rgb(18.276978%, 44.146729%, 70.56427%)" offset="0.785156"/><stop stop-opacity="1" stop-color="rgb(18.110657%, 43.936157%, 70.38269%)" offset="0.789062"/><stop stop-opacity="1" stop-color="rgb(17.944336%, 43.72406%, 70.201111%)" offset="0.792969"/><stop stop-opacity="1" stop-color="rgb(17.778015%, 43.513489%, 70.019531%)" offset="0.796875"/><stop stop-opacity="1" stop-color="rgb(17.610168%, 43.301392%, 69.837952%)" offset="0.800781"/><stop stop-opacity="1" stop-color="rgb(17.443848%, 43.09082%, 69.656372%)" offset="0.804688"/><stop stop-opacity="1" stop-color="rgb(17.276001%, 42.878723%, 69.474792%)" offset="0.808594"/><stop stop-opacity="1" stop-color="rgb(17.10968%, 42.668152%, 69.293213%)" offset="0.8125"/><stop stop-opacity="1" stop-color="rgb(16.984558%, 42.507935%, 69.155884%)" offset="0.875"/><stop stop-opacity="1" stop-color="rgb(16.859436%, 42.349243%, 69.018555%)" offset="1"/></linearGradient><clipPath id="b750ce6996"><rect x="0" width="375" y="0" height="267"/></clipPath><clipPath id="fe360455e0"><rect x="0" width="375" y="0" height="267"/></clipPath><clipPath id="399a38d49b"><path d="M 47.101562 39.183594 L 375 39.183594 L 375 155.554688 L 47.101562 155.554688 Z M 47.101562 39.183594 " clip-rule="nonzero"/></clipPath><clipPath id="b29e124ec2"><path d="M 0.101562 0.183594 L 328 0.183594 L 328 116.554688 L 0.101562 116.554688 Z M 0.101562 0.183594 " clip-rule="nonzero"/></clipPath><clipPath id="74c370ef4c"><path d="M 0.101562 0.183594 L 328 0.183594 L 328 116.554688 L 0.101562 116.554688 Z M 0.101562 0.183594 " clip-rule="nonzero"/></clipPath><clipPath id="7f415958f5"><rect x="0" width="328" y="0" height="117"/></clipPath><clipPath id="080df489ce"><rect x="0" width="328" y="0" height="117"/></clipPath><mask id="fd48d2e8dd"><g filter="url(#4286b515d1)"><g><g clip-path="url(#080df489ce)"><g clip-path="url(#74c370ef4c)"><g><g clip-path="url(#7f415958f5)"><g fill="#000000" fill-opacity="1"><g transform="translate(45.957298, 65.691569)"><g><path d="M 12.15625 -10.578125 C 13.238281 -8.492188 14.175781 -6.394531 14.96875 -4.28125 L 12.953125 -3.5 C 12.203125 -5.59375 11.269531 -7.648438 10.15625 -9.671875 Z M 1.328125 -9.8125 L 2.890625 -11.28125 C 3.816406 -10.332031 4.90625 -9.101562 6.15625 -7.59375 C 6.519531 -9.007812 6.738281 -10.648438 6.8125 -12.515625 L 1.046875 -12.515625 L 1.046875 -14.484375 L 4.59375 -14.484375 L 4.59375 -17.421875 L 6.890625 -17.421875 L 6.890625 -14.484375 L 10.46875 -14.484375 L 10.46875 -13.84375 L 16.5 -13.84375 L 16.5 -17.28125 L 18.78125 -17.28125 L 18.78125 -13.84375 L 20.46875 -13.84375 L 20.46875 -11.890625 L 18.78125 -11.890625 L 18.78125 -1.46875 C 18.78125 -0.695312 18.753906 -0.132812 18.703125 0.21875 C 18.648438 0.582031 18.5 0.878906 18.25 1.109375 C 18.007812 1.347656 17.707031 1.488281 17.34375 1.53125 C 16.988281 1.570312 16.421875 1.59375 15.640625 1.59375 C 14.992188 1.59375 13.90625 1.5625 12.375 1.5 L 12.28125 -0.484375 C 13.675781 -0.398438 14.675781 -0.359375 15.28125 -0.359375 C 15.863281 -0.359375 16.210938 -0.410156 16.328125 -0.515625 C 16.441406 -0.617188 16.5 -0.9375 16.5 -1.46875 L 16.5 -11.890625 L 10.296875 -11.890625 L 10.296875 -12.515625 L 9.046875 -12.515625 C 8.929688 -9.734375 8.515625 -7.398438 7.796875 -5.515625 C 8.765625 -4.222656 9.738281 -2.8125 10.71875 -1.28125 L 9.046875 0 C 8.203125 -1.300781 7.441406 -2.425781 6.765625 -3.375 C 5.691406 -1.601562 4.144531 -0.0078125 2.125 1.40625 L 0.84375 -0.40625 C 2.945312 -1.9375 4.4375 -3.566406 5.3125 -5.296875 C 4.113281 -6.804688 2.785156 -8.3125 1.328125 -9.8125 Z M 1.328125 -9.8125 "/></g></g><g transform="translate(67.536081, 65.691569)"><g><path d="M 3.96875 1.015625 L 3.96875 1.859375 L 1.859375 1.859375 L 1.859375 -4.484375 L 8.78125 -4.484375 L 8.78125 1.015625 Z M 3.96875 -0.796875 L 6.78125 -0.796875 L 6.78125 -2.703125 L 3.96875 -2.703125 Z M 9.734375 -15.53125 C 13.472656 -15.757812 16.722656 -16.285156 19.484375 -17.109375 L 19.90625 -15.234375 C 18.6875 -14.859375 17.375 -14.550781 15.96875 -14.3125 L 15.96875 -11.484375 L 20.421875 -11.484375 L 20.421875 -9.5625 L 15.96875 -9.5625 L 15.96875 -7.078125 L 19.765625 -7.078125 L 19.765625 1.59375 L 17.578125 1.59375 L 17.578125 0.546875 L 12.046875 0.546875 L 12.046875 1.59375 L 9.953125 1.59375 L 9.953125 -7.078125 L 13.734375 -7.078125 L 13.734375 -9.5625 L 9.296875 -9.5625 L 9.296875 -11.484375 L 13.734375 -11.484375 L 13.734375 -13.984375 C 12.609375 -13.835938 11.3125 -13.722656 9.84375 -13.640625 Z M 17.578125 -1.203125 L 17.578125 -5.328125 L 12.046875 -5.328125 L 12.046875 -1.203125 Z M 1.859375 -14.796875 L 1.859375 -16.671875 L 8.71875 -16.671875 L 8.71875 -14.796875 Z M 1.265625 -11.734375 L 1.265625 -13.640625 L 9.296875 -13.640625 L 9.296875 -11.734375 Z M 2 -8.71875 L 2 -10.515625 L 8.6875 -10.515625 L 8.6875 -8.71875 Z M 2 -5.6875 L 2 -7.5 L 8.6875 -7.5 L 8.6875 -5.6875 Z M 2 -5.6875 "/></g></g><g transform="translate(89.114865, 65.691569)"><g><path d="M 5.859375 -12.4375 L 8.09375 -12.4375 L 8.09375 -14.796875 L 5.875 -14.796875 L 5.875 -13.421875 C 5.875 -12.972656 5.867188 -12.644531 5.859375 -12.4375 Z M 11.953125 -2.953125 L 11.953125 -0.734375 L 20.1875 -0.734375 L 20.1875 1.109375 L 1.390625 1.109375 L 1.390625 -0.734375 L 9.625 -0.734375 L 9.625 -2.953125 L 2.953125 -2.953125 L 2.953125 -4.734375 L 9.625 -4.734375 L 9.625 -6.171875 L 8.09375 -6.171875 L 8.09375 -10.578125 L 5.703125 -10.578125 C 5.554688 -9.335938 5.265625 -8.296875 4.828125 -7.453125 C 4.390625 -6.609375 3.769531 -5.859375 2.96875 -5.203125 L 1.265625 -6.65625 C 1.941406 -7.207031 2.453125 -7.773438 2.796875 -8.359375 C 3.140625 -8.953125 3.378906 -9.691406 3.515625 -10.578125 L 1.21875 -10.578125 L 1.21875 -12.4375 L 3.6875 -12.4375 C 3.695312 -12.644531 3.703125 -12.972656 3.703125 -13.421875 L 3.703125 -14.796875 L 1.640625 -14.796875 L 1.640625 -16.671875 L 12.28125 -16.671875 L 12.28125 -14.796875 L 10.296875 -14.796875 L 10.296875 -12.4375 L 12.28125 -12.4375 L 12.28125 -10.578125 L 10.296875 -10.578125 L 10.296875 -6.9375 L 11.953125 -6.9375 L 11.953125 -4.734375 L 18.390625 -4.734375 L 18.390625 -2.953125 Z M 13.28125 -8.828125 L 13.28125 -16.546875 L 15.390625 -16.546875 L 15.390625 -8.828125 Z M 17.71875 -16.96875 L 19.9375 -16.96875 L 19.9375 -9.25 C 19.9375 -7.875 19.785156 -7.015625 19.484375 -6.671875 C 19.179688 -6.335938 18.410156 -6.171875 17.171875 -6.171875 C 16.515625 -6.171875 15.582031 -6.207031 14.375 -6.28125 L 14.28125 -8.203125 C 15.382812 -8.128906 16.21875 -8.09375 16.78125 -8.09375 C 17.195312 -8.09375 17.457031 -8.144531 17.5625 -8.25 C 17.664062 -8.351562 17.71875 -8.664062 17.71875 -9.1875 Z M 17.71875 -16.96875 "/></g></g><g transform="translate(110.693648, 65.691569)"><g><path d="M 11.484375 -12.046875 L 11.484375 -15.34375 L 12.828125 -15.34375 L 12.828125 -12.046875 Z M 13.59375 -12.046875 L 13.59375 -15.34375 L 14.9375 -15.34375 L 14.9375 -12.046875 Z M 1.640625 -7.6875 L 1.640625 -9.859375 L 14.375 -9.859375 L 14.375 -7.6875 L 9.984375 -7.6875 C 9.816406 -5.957031 9.457031 -4.632812 8.90625 -3.71875 C 8.363281 -2.800781 7.71875 -2.066406 6.96875 -1.515625 C 6.21875 -0.972656 5.429688 -0.5625 4.609375 -0.28125 C 3.796875 0 3.003906 0.175781 2.234375 0.25 L 2.234375 -2 C 3.015625 -2.0625 3.796875 -2.269531 4.578125 -2.625 C 5.359375 -2.976562 6.039062 -3.519531 6.625 -4.25 C 7.207031 -4.988281 7.554688 -6.132812 7.671875 -7.6875 Z M 2.234375 -13.125 L 2.234375 -15.34375 L 10.6875 -15.34375 L 10.6875 -13.125 Z M 2.234375 -13.125 "/></g></g><g transform="translate(126.730224, 65.691569)"><g><path d="M 1.28125 -6.78125 L 1.28125 -9.078125 L 10.5625 -9.078125 L 10.5625 -6.78125 Z M 1.28125 -6.78125 "/></g></g><g transform="translate(138.594341, 65.691569)"><g><path d="M 7.453125 -16.140625 C 7.316406 -15.523438 7.171875 -14.976562 7.015625 -14.5 L 14.40625 -14.5 L 14.40625 -11.796875 C 14.238281 -9.941406 13.847656 -8.332031 13.234375 -6.96875 C 12.628906 -5.613281 11.863281 -4.476562 10.9375 -3.5625 C 10.019531 -2.644531 9.082031 -1.890625 8.125 -1.296875 C 7.175781 -0.710938 6.285156 -0.265625 5.453125 0.046875 C 4.628906 0.367188 3.894531 0.609375 3.25 0.765625 L 3.25 -1.5625 C 3.988281 -1.757812 4.738281 -2.023438 5.5 -2.359375 C 6.269531 -2.691406 7.128906 -3.207031 8.078125 -3.90625 C 9.023438 -4.613281 9.914062 -5.59375 10.75 -6.84375 L 5.5 -6.84375 L 5.5 -8.984375 L 11.59375 -8.984375 C 11.894531 -9.878906 12.0625 -10.992188 12.09375 -12.328125 L 6.234375 -12.328125 C 5.296875 -10.585938 4.429688 -9.328125 3.640625 -8.546875 C 2.859375 -7.773438 2.207031 -7.195312 1.6875 -6.8125 L 1.6875 -9.71875 C 2.21875 -10.289062 2.679688 -10.847656 3.078125 -11.390625 C 3.472656 -11.941406 3.863281 -12.644531 4.25 -13.5 C 4.632812 -14.363281 4.9375 -15.242188 5.15625 -16.140625 Z M 7.453125 -16.140625 "/></g></g><g transform="translate(154.883793, 65.691569)"><g><path d="M 1.75 -15.546875 L 3.03125 -17.109375 C 4.363281 -16.140625 5.53125 -15.1875 6.53125 -14.25 L 5.21875 -12.671875 C 4.195312 -13.640625 3.039062 -14.597656 1.75 -15.546875 Z M 4.640625 -7.6875 C 3.453125 -8.78125 2.171875 -9.859375 0.796875 -10.921875 L 2.09375 -12.453125 C 3.550781 -11.390625 4.84375 -10.328125 5.96875 -9.265625 Z M 6.515625 -5.453125 C 5.742188 -2.867188 4.644531 -0.53125 3.21875 1.5625 L 1.40625 0.359375 C 2.71875 -1.609375 3.785156 -3.800781 4.609375 -6.21875 Z M 7.609375 -15.53125 C 12.117188 -15.53125 16.003906 -16.054688 19.265625 -17.109375 L 19.8125 -15.171875 C 18.5 -14.734375 16.8125 -14.367188 14.75 -14.078125 L 14.75 -11.53125 L 20.421875 -11.53125 L 20.421875 -9.625 L 14.75 -9.625 L 14.75 -7.078125 L 19.359375 -7.078125 L 19.359375 1.59375 L 17.125 1.59375 L 17.125 0.546875 L 9.984375 0.546875 L 9.984375 1.59375 L 7.84375 1.59375 L 7.84375 -7.078125 L 12.4375 -7.078125 L 12.4375 -9.625 L 6.78125 -9.625 L 6.78125 -11.53125 L 12.4375 -11.53125 L 12.4375 -13.78125 C 10.945312 -13.65625 9.378906 -13.59375 7.734375 -13.59375 Z M 17.125 -1.265625 L 17.125 -5.296875 L 9.984375 -5.296875 L 9.984375 -1.265625 Z M 17.125 -1.265625 "/></g></g><g transform="translate(176.462577, 65.691569)"><g><path d="M 9.890625 -9.984375 L 5.25 -9.984375 L 5.25 -8.140625 C 5.25 -7.722656 5.234375 -7.160156 5.203125 -6.453125 L 9.890625 -6.453125 Z M 12.046875 -9.984375 L 12.046875 -6.453125 L 17.234375 -6.453125 L 17.234375 -9.984375 Z M 9.890625 -11.734375 L 9.890625 -15.03125 L 5.25 -15.03125 L 5.25 -11.734375 Z M 12.046875 -11.734375 L 17.234375 -11.734375 L 17.234375 -15.03125 L 12.046875 -15.03125 Z M 19.46875 -16.859375 L 19.46875 -1.4375 C 19.46875 -0.925781 19.457031 -0.519531 19.4375 -0.21875 C 19.425781 0.0820312 19.375 0.359375 19.28125 0.609375 C 19.195312 0.859375 19.101562 1.039062 19 1.15625 C 18.894531 1.269531 18.710938 1.367188 18.453125 1.453125 C 18.203125 1.546875 17.9375 1.597656 17.65625 1.609375 C 17.375 1.628906 16.988281 1.640625 16.5 1.640625 C 16.175781 1.640625 15.222656 1.601562 13.640625 1.53125 L 13.546875 -0.3125 C 15.066406 -0.238281 15.925781 -0.203125 16.125 -0.203125 C 16.65625 -0.203125 16.972656 -0.253906 17.078125 -0.359375 C 17.179688 -0.472656 17.234375 -0.789062 17.234375 -1.3125 L 17.234375 -4.703125 L 12.046875 -4.703125 L 12.046875 1.203125 L 9.890625 1.203125 L 9.890625 -4.703125 L 5.078125 -4.703125 C 4.921875 -3.328125 4.648438 -2.132812 4.265625 -1.125 C 3.890625 -0.125 3.359375 0.851562 2.671875 1.8125 L 0.828125 0.359375 C 1.640625 -0.816406 2.207031 -2.078125 2.53125 -3.421875 C 2.851562 -4.765625 3.015625 -6.640625 3.015625 -9.046875 L 3.015625 -16.859375 Z M 19.46875 -16.859375 "/></g></g><g transform="translate(198.04136, 65.691569)"><g><path d="M 0.59375 0 L 5.984375 -15.765625 L 8.578125 -15.765625 L 13.96875 0 L 11.421875 0 L 10.140625 -4.1875 L 4.3125 -4.1875 L 3.03125 0 Z M 4.890625 -6.046875 L 9.5625 -6.046875 L 7.25 -13.59375 L 7.203125 -13.59375 Z M 4.890625 -6.046875 "/></g></g><g transform="translate(212.581752, 65.691569)"><g><path d="M 2.3125 0 L 2.3125 -15.765625 L 4.890625 -15.765625 L 4.890625 0 Z M 2.3125 0 "/></g></g><g transform="translate(219.788728, 65.691569)"><g><path d="M 1.875 -12.640625 L 1.875 -14.890625 L 13.90625 -14.890625 L 13.90625 -12.640625 L 9.078125 -12.640625 L 9.078125 -2.734375 L 14.34375 -2.734375 L 14.34375 -0.484375 L 1.5 -0.484375 L 1.5 -2.734375 L 6.78125 -2.734375 L 6.78125 -12.640625 Z M 1.875 -12.640625 "/></g></g><g transform="translate(235.614574, 65.691569)"><g><path d="M 1.28125 -6.78125 L 1.28125 -9.078125 L 10.5625 -9.078125 L 10.5625 -6.78125 Z M 1.28125 -6.78125 "/></g></g><g transform="translate(247.478691, 65.691569)"><g><path d="M 11.796875 -12.3125 L 11.796875 -15.34375 L 13.25 -15.34375 L 13.25 -12.3125 Z M 14.078125 -12.3125 L 14.078125 -15.34375 L 15.53125 -15.34375 L 15.53125 -12.3125 Z M 14.6875 -11.5625 C 14.113281 -9.488281 13.253906 -7.664062 12.109375 -6.09375 C 10.960938 -4.519531 9.773438 -3.3125 8.546875 -2.46875 C 7.316406 -1.625 6.148438 -1.023438 5.046875 -0.671875 C 3.953125 -0.316406 2.878906 -0.0859375 1.828125 0.015625 L 1.828125 -2.28125 C 2.691406 -2.382812 3.585938 -2.570312 4.515625 -2.84375 C 5.441406 -3.113281 6.410156 -3.628906 7.421875 -4.390625 C 8.429688 -5.160156 9.363281 -6.117188 10.21875 -7.265625 C 11.070312 -8.410156 11.78125 -9.84375 12.34375 -11.5625 Z M 1.828125 -13.109375 L 1.828125 -15.359375 L 7 -15.359375 L 7 -13.109375 Z M 1.828125 -7.984375 L 1.828125 -10.234375 L 7 -10.234375 L 7 -7.984375 Z M 1.828125 -7.984375 "/></g></g><g transform="translate(263.894582, 65.691569)"><g><path d="M 1.765625 -10.46875 L 1.765625 -12.390625 L 11.984375 -12.390625 L 11.984375 -10.46875 L 7.90625 -10.46875 L 7.90625 -2.046875 L 12.375 -2.046875 L 12.375 -0.125 L 1.453125 -0.125 L 1.453125 -2.046875 L 5.9375 -2.046875 L 5.9375 -10.46875 Z M 1.765625 -10.46875 "/></g></g><g transform="translate(277.676344, 65.691569)"><g><path d="M 1.671875 -12.828125 L 1.671875 -15.109375 L 7.234375 -15.109375 L 7.234375 -12.828125 Z M 14.515625 -11.5625 C 13.972656 -9.488281 13.125 -7.660156 11.96875 -6.078125 C 10.8125 -4.492188 9.613281 -3.285156 8.375 -2.453125 C 7.144531 -1.617188 5.984375 -1.023438 4.890625 -0.671875 C 3.796875 -0.316406 2.722656 -0.0859375 1.671875 0.015625 L 1.671875 -2.359375 C 2.523438 -2.410156 3.414062 -2.578125 4.34375 -2.859375 C 5.269531 -3.140625 6.238281 -3.65625 7.25 -4.40625 C 8.257812 -5.164062 9.191406 -6.117188 10.046875 -7.265625 C 10.910156 -8.410156 11.625 -9.84375 12.1875 -11.5625 Z M 14.515625 -11.5625 "/></g></g><g transform="translate(293.776139, 65.691569)"><g><path d="M 2.375 0.59375 L 2.375 -16.0625 L 4.734375 -16.0625 L 4.734375 -10.328125 L 13.546875 -10.328125 L 13.546875 -8.03125 L 4.734375 -8.03125 L 4.734375 0.59375 Z M 2.375 0.59375 "/></g></g></g></g></g></g></g></g></g></mask><clipPath id="143f759637"><path d="M 3.183594 4.039062 L 328 4.039062 L 328 111.929688 L 3.183594 111.929688 Z M 3.183594 4.039062 " clip-rule="nonzero"/></clipPath><linearGradient x1="25.819636" gradientTransform="matrix(0.770193, 0, 0, 0.770645, 43.620199, 43.342614)" y1="-129.32006" x2="306.686689" gradientUnits="userSpaceOnUse" y2="151.545471" id="3364c0b3da"><stop stop-opacity="1" stop-color="rgb(38.819885%, 70.199585%, 92.939758%)" offset="0"/><stop stop-opacity="1" stop-color="rgb(38.819885%, 70.199585%, 92.939758%)" offset="0.125"/><stop stop-opacity="1" stop-color="rgb(38.819885%, 70.199585%, 92.939758%)" offset="0.1875"/><stop stop-opacity="1" stop-color="rgb(38.757324%, 70.120239%, 92.871094%)" offset="0.203125"/><stop stop-opacity="1" stop-color="rgb(38.563538%, 69.874573%, 92.660522%)" offset="0.210937"/><stop stop-opacity="1" stop-color="rgb(38.302612%, 69.543457%, 92.376709%)" offset="0.21875"/><stop stop-opacity="1" stop-color="rgb(38.041687%, 69.212341%, 92.092896%)" offset="0.226562"/><stop stop-opacity="1" stop-color="rgb(37.780762%, 68.881226%, 91.807556%)" offset="0.234375"/><stop stop-opacity="1" stop-color="rgb(37.519836%, 68.55011%, 91.523743%)" offset="0.242187"/><stop stop-opacity="1" stop-color="rgb(37.258911%, 68.218994%, 91.239929%)" offset="0.249228"/><stop stop-opacity="1" stop-color="rgb(37.127686%, 68.054199%, 91.098022%)" offset="0.25"/><stop stop-opacity="1" stop-color="rgb(36.99646%, 67.889404%, 90.95459%)" offset="0.257812"/><stop stop-opacity="1" stop-color="rgb(36.735535%, 67.558289%, 90.670776%)" offset="0.265625"/><stop stop-opacity="1" stop-color="rgb(36.474609%, 67.227173%, 90.386963%)" offset="0.273437"/><stop stop-opacity="1" stop-color="rgb(36.213684%, 66.896057%, 90.101624%)" offset="0.28125"/><stop stop-opacity="1" stop-color="rgb(35.952759%, 66.564941%, 89.81781%)" offset="0.289062"/><stop stop-opacity="1" stop-color="rgb(35.691833%, 66.233826%, 89.533997%)" offset="0.296875"/><stop stop-opacity="1" stop-color="rgb(35.430908%, 65.90271%, 89.250183%)" offset="0.304688"/><stop stop-opacity="1" stop-color="rgb(35.169983%, 65.571594%, 88.964844%)" offset="0.3125"/><stop stop-opacity="1" stop-color="rgb(34.909058%, 65.240479%, 88.68103%)" offset="0.320312"/><stop stop-opacity="1" stop-color="rgb(34.648132%, 64.909363%, 88.397217%)" offset="0.328125"/><stop stop-opacity="1" stop-color="rgb(34.387207%, 64.579773%, 88.111877%)" offset="0.335938"/><stop stop-opacity="1" stop-color="rgb(34.126282%, 64.248657%, 87.828064%)" offset="0.34375"/><stop stop-opacity="1" stop-color="rgb(33.865356%, 63.917542%, 87.54425%)" offset="0.351562"/><stop stop-opacity="1" stop-color="rgb(33.604431%, 63.586426%, 87.260437%)" offset="0.359375"/><stop stop-opacity="1" stop-color="rgb(33.343506%, 63.25531%, 86.975098%)" offset="0.367188"/><stop stop-opacity="1" stop-color="rgb(33.082581%, 62.924194%, 86.691284%)" offset="0.375"/><stop stop-opacity="1" stop-color="rgb(32.821655%, 62.593079%, 86.407471%)" offset="0.382812"/><stop stop-opacity="1" stop-color="rgb(32.56073%, 62.261963%, 86.122131%)" offset="0.390625"/><stop stop-opacity="1" stop-color="rgb(32.299805%, 61.930847%, 85.838318%)" offset="0.398438"/><stop stop-opacity="1" stop-color="rgb(32.038879%, 61.599731%, 85.554504%)" offset="0.40625"/><stop stop-opacity="1" stop-color="rgb(31.777954%, 61.268616%, 85.269165%)" offset="0.414062"/><stop stop-opacity="1" stop-color="rgb(31.517029%, 60.939026%, 84.985352%)" offset="0.421875"/><stop stop-opacity="1" stop-color="rgb(31.256104%, 60.60791%, 84.701538%)" offset="0.429688"/><stop stop-opacity="1" stop-color="rgb(30.995178%, 60.276794%, 84.417725%)" offset="0.4375"/><stop stop-opacity="1" stop-color="rgb(30.734253%, 59.945679%, 84.132385%)" offset="0.445312"/><stop stop-opacity="1" stop-color="rgb(30.473328%, 59.614563%, 83.848572%)" offset="0.453125"/><stop stop-opacity="1" stop-color="rgb(30.212402%, 59.283447%, 83.564758%)" offset="0.460938"/><stop stop-opacity="1" stop-color="rgb(29.951477%, 58.952332%, 83.279419%)" offset="0.46875"/><stop stop-opacity="1" stop-color="rgb(29.690552%, 58.621216%, 82.995605%)" offset="0.476562"/><stop stop-opacity="1" stop-color="rgb(29.429626%, 58.2901%, 82.711792%)" offset="0.484375"/><stop stop-opacity="1" stop-color="rgb(29.168701%, 57.958984%, 82.426453%)" offset="0.492187"/><stop stop-opacity="1" stop-color="rgb(28.907776%, 57.629395%, 82.142639%)" offset="0.5"/><stop stop-opacity="1" stop-color="rgb(28.645325%, 57.298279%, 81.858826%)" offset="0.507812"/><stop stop-opacity="1" stop-color="rgb(28.384399%, 56.967163%, 81.575012%)" offset="0.515625"/><stop stop-opacity="1" stop-color="rgb(28.123474%, 56.636047%, 81.289673%)" offset="0.523438"/><stop stop-opacity="1" stop-color="rgb(27.862549%, 56.304932%, 81.005859%)" offset="0.53125"/><stop stop-opacity="1" stop-color="rgb(27.601624%, 55.973816%, 80.722046%)" offset="0.539062"/><stop stop-opacity="1" stop-color="rgb(27.340698%, 55.6427%, 80.436707%)" offset="0.546875"/><stop stop-opacity="1" stop-color="rgb(27.079773%, 55.311584%, 80.152893%)" offset="0.554688"/><stop stop-opacity="1" stop-color="rgb(26.818848%, 54.980469%, 79.86908%)" offset="0.5625"/><stop stop-opacity="1" stop-color="rgb(26.557922%, 54.649353%, 79.585266%)" offset="0.570312"/><stop stop-opacity="1" stop-color="rgb(26.296997%, 54.319763%, 79.299927%)" offset="0.578125"/><stop stop-opacity="1" stop-color="rgb(26.036072%, 53.988647%, 79.016113%)" offset="0.585938"/><stop stop-opacity="1" stop-color="rgb(25.775146%, 53.657532%, 78.7323%)" offset="0.59375"/><stop stop-opacity="1" stop-color="rgb(25.514221%, 53.326416%, 78.44696%)" offset="0.601562"/><stop stop-opacity="1" stop-color="rgb(25.253296%, 52.9953%, 78.163147%)" offset="0.609375"/><stop stop-opacity="1" stop-color="rgb(24.992371%, 52.664185%, 77.879333%)" offset="0.617188"/><stop stop-opacity="1" stop-color="rgb(24.731445%, 52.333069%, 77.593994%)" offset="0.625"/><stop stop-opacity="1" stop-color="rgb(24.47052%, 52.001953%, 77.310181%)" offset="0.632812"/><stop stop-opacity="1" stop-color="rgb(24.209595%, 51.670837%, 77.026367%)" offset="0.640625"/><stop stop-opacity="1" stop-color="rgb(23.948669%, 51.339722%, 76.742554%)" offset="0.648438"/><stop stop-opacity="1" stop-color="rgb(23.687744%, 51.008606%, 76.457214%)" offset="0.65625"/><stop stop-opacity="1" stop-color="rgb(23.426819%, 50.679016%, 76.173401%)" offset="0.664062"/><stop stop-opacity="1" stop-color="rgb(23.165894%, 50.3479%, 75.889587%)" offset="0.671875"/><stop stop-opacity="1" stop-color="rgb(22.904968%, 50.016785%, 75.604248%)" offset="0.679688"/><stop stop-opacity="1" stop-color="rgb(22.644043%, 49.685669%, 75.320435%)" offset="0.6875"/><stop stop-opacity="1" stop-color="rgb(22.383118%, 49.354553%, 75.036621%)" offset="0.695312"/><stop stop-opacity="1" stop-color="rgb(22.122192%, 49.023438%, 74.751282%)" offset="0.703125"/><stop stop-opacity="1" stop-color="rgb(21.861267%, 48.692322%, 74.467468%)" offset="0.710937"/><stop stop-opacity="1" stop-color="rgb(21.600342%, 48.361206%, 74.183655%)" offset="0.71875"/><stop stop-opacity="1" stop-color="rgb(21.339417%, 48.03009%, 73.899841%)" offset="0.726562"/><stop stop-opacity="1" stop-color="rgb(21.078491%, 47.698975%, 73.614502%)" offset="0.734375"/><stop stop-opacity="1" stop-color="rgb(20.817566%, 47.369385%, 73.330688%)" offset="0.742188"/><stop stop-opacity="1" stop-color="rgb(20.556641%, 47.038269%, 73.046875%)" offset="0.75"/><stop stop-opacity="1" stop-color="rgb(20.295715%, 46.707153%, 72.761536%)" offset="0.750772"/><stop stop-opacity="1" stop-color="rgb(20.16449%, 46.542358%, 72.619629%)" offset="0.757812"/><stop stop-opacity="1" stop-color="rgb(20.033264%, 46.376038%, 72.477722%)" offset="0.765625"/><stop stop-opacity="1" stop-color="rgb(19.772339%, 46.044922%, 72.193909%)" offset="0.773437"/><stop stop-opacity="1" stop-color="rgb(19.511414%, 45.713806%, 71.910095%)" offset="0.78125"/><stop stop-opacity="1" stop-color="rgb(19.250488%, 45.38269%, 71.624756%)" offset="0.789062"/><stop stop-opacity="1" stop-color="rgb(18.989563%, 45.051575%, 71.340942%)" offset="0.796875"/><stop stop-opacity="1" stop-color="rgb(18.728638%, 44.720459%, 71.057129%)" offset="0.804688"/><stop stop-opacity="1" stop-color="rgb(18.467712%, 44.389343%, 70.77179%)" offset="0.8125"/><stop stop-opacity="1" stop-color="rgb(18.206787%, 44.058228%, 70.487976%)" offset="0.820313"/><stop stop-opacity="1" stop-color="rgb(17.945862%, 43.728638%, 70.204163%)" offset="0.828125"/><stop stop-opacity="1" stop-color="rgb(17.684937%, 43.397522%, 69.918823%)" offset="0.835937"/><stop stop-opacity="1" stop-color="rgb(17.424011%, 43.066406%, 69.63501%)" offset="0.84375"/><stop stop-opacity="1" stop-color="rgb(17.163086%, 42.735291%, 69.351196%)" offset="0.851562"/><stop stop-opacity="1" stop-color="rgb(16.946411%, 42.459106%, 69.113159%)" offset="0.859375"/><stop stop-opacity="1" stop-color="rgb(16.859436%, 42.349243%, 69.018555%)" offset="0.875"/><stop stop-opacity="1" stop-color="rgb(16.859436%, 42.349243%, 69.018555%)" offset="1"/></linearGradient><clipPath id="9235752929"><rect x="0" width="328" y="0" height="117"/></clipPath><clipPath id="93f02c3bc6"><rect x="0" width="328" y="0" height="117"/></clipPath><clipPath id="7e47ed1246"><path d="M 17 92.671875 L 35 92.671875 L 35 110 L 17 110 Z M 17 92.671875 " clip-rule="nonzero"/></clipPath><clipPath id="ab77205453"><path d="M 59 92.671875 L 78 92.671875 L 78 110 L 59 110 Z M 59 92.671875 " clip-rule="nonzero"/></clipPath><clipPath id="03d4498e2e"><rect x="0" width="375" y="0" height="267"/></clipPath></defs><g transform="matrix(1, 0, 0, 1, 0, 64)"><g clip-path="url(#03d4498e2e)"><g clip-path="url(#dcb918fbe9)"><g transform="matrix(1, 0, 0, 1, 0, 0)"><g clip-path="url(#fe360455e0)"><g clip-path="url(#aee79aab1d)"><g mask="url(#7d2123ecf3)"><g transform="matrix(1, 0, 0, 1, 0, 0)"><g clip-path="url(#b750ce6996)"><g clip-path="url(#a052868c06)"><path fill="url(#63139e9585)" d="M 0 9.445312 L 0 256.058594 L 375 256.058594 L 375 9.445312 Z M 0 9.445312 " fill-rule="nonzero"/></g></g></g></g></g></g></g></g><g clip-path="url(#399a38d49b)"><g transform="matrix(1, 0, 0, 1, 47, 39)"><g clip-path="url(#93f02c3bc6)"><g clip-path="url(#b29e124ec2)"><g mask="url(#fd48d2e8dd)"><g><g clip-path="url(#9235752929)"><g clip-path="url(#143f759637)"><path fill="url(#3364c0b3da)" d="M 3.183594 4.039062 L 3.183594 111.929688 L 328 111.929688 L 328 4.039062 Z M 3.183594 4.039062 " fill-rule="nonzero"/></g></g></g></g></g></g></g></g><path fill="#63b3ed" d="M 33.523438 120.765625 C 30.433594 114.539062 23.984375 114.050781 19.503906 116.902344 C 15.835938 119.230469 14.207031 123.738281 15.390625 127.914062 C 16.125 130.53125 17.175781 133 18.492188 135.3125 C 20.289062 138.464844 23.023438 140.988281 26.308594 142.539062 C 29.976562 144.289062 33.390625 145.167969 36.441406 145.167969 C 40.183594 145.167969 43.300781 143.816406 45.953125 141.660156 C 40.25 136.152344 36.753906 127.296875 33.523438 120.765625 Z M 33.523438 120.765625 " fill-opacity="1" fill-rule="nonzero"/><g clip-path="url(#7e47ed1246)"><path fill="#63b3ed" d="M 34.378906 101.304688 C 34.378906 101.875 34.320312 102.433594 34.210938 102.992188 C 34.101562 103.546875 33.9375 104.085938 33.71875 104.609375 C 33.503906 105.132812 33.238281 105.632812 32.921875 106.101562 C 32.605469 106.574219 32.25 107.011719 31.847656 107.410156 C 31.449219 107.8125 31.011719 108.167969 30.539062 108.484375 C 30.070312 108.800781 29.570312 109.066406 29.046875 109.28125 C 28.523438 109.5 27.984375 109.664062 27.429688 109.773438 C 26.871094 109.882812 26.3125 109.9375 25.742188 109.9375 C 25.175781 109.9375 24.617188 109.882812 24.058594 109.773438 C 23.503906 109.664062 22.964844 109.5 22.441406 109.28125 C 21.917969 109.066406 21.417969 108.800781 20.949219 108.484375 C 20.476562 108.167969 20.039062 107.8125 19.640625 107.410156 C 19.238281 107.011719 18.878906 106.574219 18.566406 106.101562 C 18.25 105.632812 17.984375 105.132812 17.769531 104.609375 C 17.550781 104.085938 17.386719 103.546875 17.277344 102.992188 C 17.167969 102.433594 17.109375 101.875 17.109375 101.304688 C 17.109375 100.738281 17.167969 100.179688 17.277344 99.621094 C 17.386719 99.066406 17.550781 98.527344 17.769531 98.003906 C 17.984375 97.480469 18.25 96.980469 18.566406 96.511719 C 18.878906 96.039062 19.238281 95.601562 19.640625 95.203125 C 20.039062 94.800781 20.476562 94.441406 20.949219 94.128906 C 21.417969 93.8125 21.917969 93.546875 22.441406 93.332031 C 22.964844 93.113281 23.503906 92.949219 24.058594 92.839844 C 24.617188 92.726562 25.175781 92.671875 25.742188 92.671875 C 26.3125 92.671875 26.871094 92.726562 27.429688 92.839844 C 27.984375 92.949219 28.523438 93.113281 29.046875 93.332031 C 29.570312 93.546875 30.070312 93.8125 30.539062 94.128906 C 31.011719 94.441406 31.449219 94.800781 31.847656 95.203125 C 32.25 95.601562 32.605469 96.039062 32.921875 96.511719 C 33.238281 96.980469 33.503906 97.480469 33.71875 98.003906 C 33.9375 98.527344 34.101562 99.066406 34.210938 99.621094 C 34.320312 100.179688 34.378906 100.738281 34.378906 101.304688 Z M 34.378906 101.304688 " fill-opacity="1" fill-rule="nonzero"/></g><path fill="#2b6cb0" d="M 74.824219 116.902344 C 70.339844 114.050781 63.875 114.523438 60.800781 120.765625 C 54.585938 133.277344 47.453125 154.328125 25.625 143.960938 C 31.40625 148.9375 38.9375 151.949219 47.164062 151.949219 C 62.261719 151.949219 74.992188 141.804688 78.921875 127.96875 C 80.089844 123.789062 78.488281 119.230469 74.824219 116.902344 Z M 74.824219 116.902344 " fill-opacity="1" fill-rule="nonzero"/><g clip-path="url(#ab77205453)"><path fill="#2b6cb0" d="M 77.199219 101.304688 C 77.199219 101.875 77.144531 102.433594 77.035156 102.992188 C 76.925781 103.546875 76.761719 104.085938 76.542969 104.609375 C 76.328125 105.132812 76.0625 105.632812 75.746094 106.101562 C 75.429688 106.574219 75.074219 107.011719 74.671875 107.410156 C 74.269531 107.8125 73.835938 108.167969 73.363281 108.484375 C 72.894531 108.800781 72.394531 109.066406 71.871094 109.28125 C 71.347656 109.5 70.808594 109.664062 70.25 109.773438 C 69.695312 109.882812 69.132812 109.9375 68.566406 109.9375 C 68 109.9375 67.4375 109.882812 66.882812 109.773438 C 66.328125 109.664062 65.789062 109.5 65.265625 109.28125 C 64.738281 109.066406 64.242188 108.800781 63.769531 108.484375 C 63.300781 108.167969 62.863281 107.8125 62.464844 107.410156 C 62.0625 107.011719 61.703125 106.574219 61.390625 106.101562 C 61.074219 105.632812 60.808594 105.132812 60.589844 104.609375 C 60.375 104.085938 60.210938 103.546875 60.101562 102.992188 C 59.988281 102.433594 59.933594 101.875 59.933594 101.304688 C 59.933594 100.738281 59.988281 100.179688 60.101562 99.621094 C 60.210938 99.066406 60.375 98.527344 60.589844 98.003906 C 60.808594 97.480469 61.074219 96.980469 61.390625 96.511719 C 61.703125 96.039062 62.0625 95.601562 62.464844 95.203125 C 62.863281 94.800781 63.300781 94.441406 63.769531 94.128906 C 64.242188 93.8125 64.738281 93.546875 65.265625 93.332031 C 65.789062 93.113281 66.328125 92.949219 66.882812 92.839844 C 67.4375 92.726562 68 92.671875 68.566406 92.671875 C 69.132812 92.671875 69.695312 92.726562 70.25 92.839844 C 70.808594 92.949219 71.347656 93.113281 71.871094 93.332031 C 72.394531 93.546875 72.894531 93.8125 73.363281 94.128906 C 73.835938 94.441406 74.269531 94.800781 74.671875 95.203125 C 75.074219 95.601562 75.429688 96.039062 75.746094 96.511719 C 76.0625 96.980469 76.328125 97.480469 76.542969 98.003906 C 76.761719 98.527344 76.925781 99.066406 77.035156 99.621094 C 77.144531 100.179688 77.199219 100.738281 77.199219 101.304688 Z M 77.199219 101.304688 " fill-opacity="1" fill-rule="nonzero"/></g></g></g></svg>