<svg xmlns="http://www.w3.org/2000/svg" xmlns:xlink="http://www.w3.org/1999/xlink" width="1500" zoomAndPan="magnify" viewBox="0 148.5 375 78" height="312" preserveAspectRatio="xMidYMid meet" version="1.0"><defs><g/><clipPath id="7dc0e1a43d"><path d="M 3 6.671875 L 21 6.671875 L 21 24 L 3 24 Z M 3 6.671875 " clip-rule="nonzero"/></clipPath><clipPath id="c95cf1d947"><path d="M 45 6.671875 L 64 6.671875 L 64 24 L 45 24 Z M 45 6.671875 " clip-rule="nonzero"/></clipPath><clipPath id="dbc1081a82"><rect x="0" width="348" y="0" height="77"/></clipPath></defs><g transform="matrix(1, 0, 0, 1, 14, 150)"><g clip-path="url(#dbc1081a82)"><g fill="#ffffff" fill-opacity="1"><g transform="translate(76.308117, 64.477513)"><g><path d="M 32.515625 -18.5 C 32.515625 -12.488281 30.851562 -7.898438 27.53125 -4.734375 C 24.207031 -1.578125 19.445312 0 13.25 0 L 3.75 0 L 3.75 -36.03125 L 13.25 -36.03125 C 19.445312 -36.03125 24.207031 -34.492188 27.53125 -31.421875 C 30.851562 -28.359375 32.515625 -24.050781 32.515625 -18.5 Z M 24.515625 -18.5 C 24.515625 -22.289062 23.640625 -25.0625 21.890625 -26.8125 C 20.140625 -28.5625 17.546875 -29.4375 14.109375 -29.4375 L 11.953125 -29.4375 L 11.953125 -6.546875 L 14.109375 -6.546875 C 17.609375 -6.546875 20.21875 -7.484375 21.9375 -9.359375 C 23.65625 -11.242188 24.515625 -14.289062 24.515625 -18.5 Z M 24.515625 -18.5 "/></g></g><g transform="translate(110.362134, 64.477513)"><g><path d="M 13.734375 -26.15625 C 18.035156 -26.15625 21.078125 -25.375 22.859375 -23.8125 C 24.640625 -22.257812 25.53125 -19.703125 25.53125 -16.140625 L 25.53125 0 L 18.109375 0 L 18.015625 -3.421875 L 17.921875 -3.421875 C 15.867188 -0.816406 13.171875 0.484375 9.828125 0.484375 C 7.546875 0.484375 5.671875 -0.242188 4.203125 -1.703125 C 2.742188 -3.171875 2.015625 -5.078125 2.015625 -7.421875 C 2.015625 -13.390625 6.445312 -16.375 15.3125 -16.375 L 17.578125 -16.375 L 17.578125 -17 C 17.578125 -18.257812 17.253906 -19.164062 16.609375 -19.71875 C 15.972656 -20.28125 14.898438 -20.5625 13.390625 -20.5625 C 10.566406 -20.5625 7.273438 -20.019531 3.515625 -18.9375 L 3.515625 -24.671875 C 6.953125 -25.660156 10.359375 -26.15625 13.734375 -26.15625 Z M 17.578125 -11.75 L 15.3125 -11.75 C 11.332031 -11.75 9.34375 -10.515625 9.34375 -8.046875 C 9.34375 -7.148438 9.597656 -6.453125 10.109375 -5.953125 C 10.628906 -5.453125 11.335938 -5.203125 12.234375 -5.203125 C 13.804688 -5.203125 15.085938 -5.695312 16.078125 -6.6875 C 17.078125 -7.6875 17.578125 -9.019531 17.578125 -10.6875 Z M 17.578125 -11.75 "/></g></g><g transform="translate(138.925122, 64.477513)"><g><path d="M 15.171875 -24.671875 L 23.21875 -24.671875 L 23.21875 -19.078125 L 15.171875 -19.078125 L 15.171875 -10.21875 C 15.171875 -8.125 15.363281 -6.800781 15.75 -6.25 C 16.132812 -5.707031 16.988281 -5.4375 18.3125 -5.4375 C 19.851562 -5.4375 21.3125 -5.664062 22.6875 -6.125 L 22.6875 -0.140625 C 20.789062 0.273438 18.671875 0.484375 16.328125 0.484375 C 12.953125 0.484375 10.585938 -0.226562 9.234375 -1.65625 C 7.890625 -3.09375 7.21875 -5.671875 7.21875 -9.390625 L 7.21875 -19.078125 L 2.015625 -19.078125 L 2.015625 -24.671875 L 7.21875 -24.671875 L 7.21875 -34.0625 L 15.171875 -34.0625 Z M 15.171875 -24.671875 "/></g></g><g transform="translate(165.416933, 64.477513)"><g><path d="M 13.734375 -26.15625 C 18.035156 -26.15625 21.078125 -25.375 22.859375 -23.8125 C 24.640625 -22.257812 25.53125 -19.703125 25.53125 -16.140625 L 25.53125 0 L 18.109375 0 L 18.015625 -3.421875 L 17.921875 -3.421875 C 15.867188 -0.816406 13.171875 0.484375 9.828125 0.484375 C 7.546875 0.484375 5.671875 -0.242188 4.203125 -1.703125 C 2.742188 -3.171875 2.015625 -5.078125 2.015625 -7.421875 C 2.015625 -13.390625 6.445312 -16.375 15.3125 -16.375 L 17.578125 -16.375 L 17.578125 -17 C 17.578125 -18.257812 17.253906 -19.164062 16.609375 -19.71875 C 15.972656 -20.28125 14.898438 -20.5625 13.390625 -20.5625 C 10.566406 -20.5625 7.273438 -20.019531 3.515625 -18.9375 L 3.515625 -24.671875 C 6.953125 -25.660156 10.359375 -26.15625 13.734375 -26.15625 Z M 17.578125 -11.75 L 15.3125 -11.75 C 11.332031 -11.75 9.34375 -10.515625 9.34375 -8.046875 C 9.34375 -7.148438 9.597656 -6.453125 10.109375 -5.953125 C 10.628906 -5.453125 11.335938 -5.203125 12.234375 -5.203125 C 13.804688 -5.203125 15.085938 -5.695312 16.078125 -6.6875 C 17.078125 -7.6875 17.578125 -9.019531 17.578125 -10.6875 Z M 17.578125 -11.75 "/></g></g><g transform="translate(193.97992, 64.477513)"><g><path d="M 12 -21.78125 L 13.625 -21.78125 C 16.164062 -21.78125 18 -22.109375 19.125 -22.765625 C 20.25 -23.421875 20.8125 -24.4375 20.8125 -25.8125 C 20.8125 -27.132812 20.351562 -28.097656 19.4375 -28.703125 C 18.519531 -29.316406 16.96875 -29.625 14.78125 -29.625 L 12 -29.625 Z M 12 -15.75 L 12 -6.359375 L 14.9375 -6.359375 C 17.3125 -6.359375 19.035156 -6.757812 20.109375 -7.5625 C 21.179688 -8.363281 21.71875 -9.664062 21.71875 -11.46875 C 21.71875 -12.945312 21.148438 -14.03125 20.015625 -14.71875 C 18.878906 -15.40625 16.976562 -15.75 14.3125 -15.75 Z M 29.578125 -10.59375 C 29.578125 -6.9375 28.335938 -4.253906 25.859375 -2.546875 C 23.390625 -0.847656 19.3125 0 13.625 0 L 3.75 0 L 3.75 -36.03125 L 13.109375 -36.03125 C 18.503906 -36.03125 22.40625 -35.273438 24.8125 -33.765625 C 27.21875 -32.253906 28.421875 -30.007812 28.421875 -27.03125 C 28.421875 -25 27.757812 -23.285156 26.4375 -21.890625 C 25.125 -20.492188 23.3125 -19.585938 21 -19.171875 L 21 -19.078125 C 23.632812 -18.753906 25.722656 -17.8125 27.265625 -16.25 C 28.804688 -14.695312 29.578125 -12.8125 29.578125 -10.59375 Z M 29.578125 -10.59375 "/></g></g><g transform="translate(225.095756, 64.477513)"><g><path d="M 2.984375 -25.625 L 10.75 -25.625 L 10.75 -10.75 C 10.75 -8.851562 11.007812 -7.550781 11.53125 -6.84375 C 12.0625 -6.132812 12.953125 -5.78125 14.203125 -5.78125 C 15.359375 -5.78125 16.410156 -6.242188 17.359375 -7.171875 C 18.304688 -8.109375 18.78125 -9.125 18.78125 -10.21875 L 18.78125 -25.625 L 26.78125 -25.625 L 26.78125 0 L 19.171875 0 L 19.078125 -3.28125 L 18.984375 -3.28125 C 16.859375 -0.769531 14.269531 0.484375 11.21875 0.484375 C 8.332031 0.484375 6.238281 -0.316406 4.9375 -1.921875 C 3.632812 -3.523438 2.984375 -6.289062 2.984375 -10.21875 Z M 2.984375 -25.625 "/></g></g><g transform="translate(255.151918, 64.477513)"><g><path d="M 19.265625 -37 L 27.21875 -37 L 27.21875 0 L 19.84375 0 L 19.75 -3.28125 L 19.65625 -3.28125 C 17.5 -0.769531 14.878906 0.484375 11.796875 0.484375 C 8.878906 0.484375 6.476562 -0.6875 4.59375 -3.03125 C 2.71875 -5.375 1.78125 -8.632812 1.78125 -12.8125 C 1.78125 -17.082031 2.6875 -20.375 4.5 -22.6875 C 6.3125 -25 8.742188 -26.15625 11.796875 -26.15625 C 14.492188 -26.15625 16.953125 -25.128906 19.171875 -23.078125 L 19.265625 -23.078125 Z M 9.59375 -12.8125 C 9.59375 -10.3125 10.03125 -8.457031 10.90625 -7.25 C 11.789062 -6.039062 12.988281 -5.4375 14.5 -5.4375 C 15.8125 -5.4375 16.957031 -5.878906 17.9375 -6.765625 C 18.914062 -7.648438 19.40625 -8.65625 19.40625 -9.78125 L 19.40625 -15.890625 C 19.40625 -17.015625 18.914062 -18.019531 17.9375 -18.90625 C 16.957031 -19.789062 15.8125 -20.234375 14.5 -20.234375 C 11.226562 -20.234375 9.59375 -17.757812 9.59375 -12.8125 Z M 9.59375 -12.8125 "/></g></g><g transform="translate(285.882418, 64.477513)"><g><path d="M 19.265625 -37 L 27.21875 -37 L 27.21875 0 L 19.84375 0 L 19.75 -3.28125 L 19.65625 -3.28125 C 17.5 -0.769531 14.878906 0.484375 11.796875 0.484375 C 8.878906 0.484375 6.476562 -0.6875 4.59375 -3.03125 C 2.71875 -5.375 1.78125 -8.632812 1.78125 -12.8125 C 1.78125 -17.082031 2.6875 -20.375 4.5 -22.6875 C 6.3125 -25 8.742188 -26.15625 11.796875 -26.15625 C 14.492188 -26.15625 16.953125 -25.128906 19.171875 -23.078125 L 19.265625 -23.078125 Z M 9.59375 -12.8125 C 9.59375 -10.3125 10.03125 -8.457031 10.90625 -7.25 C 11.789062 -6.039062 12.988281 -5.4375 14.5 -5.4375 C 15.8125 -5.4375 16.957031 -5.878906 17.9375 -6.765625 C 18.914062 -7.648438 19.40625 -8.65625 19.40625 -9.78125 L 19.40625 -15.890625 C 19.40625 -17.015625 18.914062 -18.019531 17.9375 -18.90625 C 16.957031 -19.789062 15.8125 -20.234375 14.5 -20.234375 C 11.226562 -20.234375 9.59375 -17.757812 9.59375 -12.8125 Z M 9.59375 -12.8125 "/></g></g><g transform="translate(316.612918, 64.477513)"><g><path d="M 3.125 11.375 L 3.125 5.34375 C 5.726562 5.34375 7.609375 4.972656 8.765625 4.234375 C 9.921875 3.492188 10.835938 2.082031 11.515625 0 L 1.546875 -25.625 L 10.3125 -25.625 L 15.078125 -7.5625 L 15.171875 -7.5625 L 20.46875 -25.625 L 28.859375 -25.625 L 19.21875 0.34375 C 17.738281 4.414062 15.785156 7.269531 13.359375 8.90625 C 10.941406 10.550781 7.53125 11.375 3.125 11.375 Z M 3.125 11.375 "/></g></g></g><g fill="#ffffff" fill-opacity="1"><g transform="translate(78.957298, 18.691569)"><g><path d="M 12.15625 -10.578125 C 13.238281 -8.492188 14.175781 -6.394531 14.96875 -4.28125 L 12.953125 -3.5 C 12.203125 -5.59375 11.269531 -7.648438 10.15625 -9.671875 Z M 1.328125 -9.8125 L 2.890625 -11.28125 C 3.816406 -10.332031 4.90625 -9.101562 6.15625 -7.59375 C 6.519531 -9.007812 6.738281 -10.648438 6.8125 -12.515625 L 1.046875 -12.515625 L 1.046875 -14.484375 L 4.59375 -14.484375 L 4.59375 -17.421875 L 6.890625 -17.421875 L 6.890625 -14.484375 L 10.46875 -14.484375 L 10.46875 -13.84375 L 16.5 -13.84375 L 16.5 -17.28125 L 18.78125 -17.28125 L 18.78125 -13.84375 L 20.46875 -13.84375 L 20.46875 -11.890625 L 18.78125 -11.890625 L 18.78125 -1.46875 C 18.78125 -0.695312 18.753906 -0.132812 18.703125 0.21875 C 18.648438 0.582031 18.5 0.878906 18.25 1.109375 C 18.007812 1.347656 17.707031 1.488281 17.34375 1.53125 C 16.988281 1.570312 16.421875 1.59375 15.640625 1.59375 C 14.992188 1.59375 13.90625 1.5625 12.375 1.5 L 12.28125 -0.484375 C 13.675781 -0.398438 14.675781 -0.359375 15.28125 -0.359375 C 15.863281 -0.359375 16.210938 -0.410156 16.328125 -0.515625 C 16.441406 -0.617188 16.5 -0.9375 16.5 -1.46875 L 16.5 -11.890625 L 10.296875 -11.890625 L 10.296875 -12.515625 L 9.046875 -12.515625 C 8.929688 -9.734375 8.515625 -7.398438 7.796875 -5.515625 C 8.765625 -4.222656 9.738281 -2.8125 10.71875 -1.28125 L 9.046875 0 C 8.203125 -1.300781 7.441406 -2.425781 6.765625 -3.375 C 5.691406 -1.601562 4.144531 -0.0078125 2.125 1.40625 L 0.84375 -0.40625 C 2.945312 -1.9375 4.4375 -3.566406 5.3125 -5.296875 C 4.113281 -6.804688 2.785156 -8.3125 1.328125 -9.8125 Z M 1.328125 -9.8125 "/></g></g><g transform="translate(100.536081, 18.691569)"><g><path d="M 3.96875 1.015625 L 3.96875 1.859375 L 1.859375 1.859375 L 1.859375 -4.484375 L 8.78125 -4.484375 L 8.78125 1.015625 Z M 3.96875 -0.796875 L 6.78125 -0.796875 L 6.78125 -2.703125 L 3.96875 -2.703125 Z M 9.734375 -15.53125 C 13.472656 -15.757812 16.722656 -16.285156 19.484375 -17.109375 L 19.90625 -15.234375 C 18.6875 -14.859375 17.375 -14.550781 15.96875 -14.3125 L 15.96875 -11.484375 L 20.421875 -11.484375 L 20.421875 -9.5625 L 15.96875 -9.5625 L 15.96875 -7.078125 L 19.765625 -7.078125 L 19.765625 1.59375 L 17.578125 1.59375 L 17.578125 0.546875 L 12.046875 0.546875 L 12.046875 1.59375 L 9.953125 1.59375 L 9.953125 -7.078125 L 13.734375 -7.078125 L 13.734375 -9.5625 L 9.296875 -9.5625 L 9.296875 -11.484375 L 13.734375 -11.484375 L 13.734375 -13.984375 C 12.609375 -13.835938 11.3125 -13.722656 9.84375 -13.640625 Z M 17.578125 -1.203125 L 17.578125 -5.328125 L 12.046875 -5.328125 L 12.046875 -1.203125 Z M 1.859375 -14.796875 L 1.859375 -16.671875 L 8.71875 -16.671875 L 8.71875 -14.796875 Z M 1.265625 -11.734375 L 1.265625 -13.640625 L 9.296875 -13.640625 L 9.296875 -11.734375 Z M 2 -8.71875 L 2 -10.515625 L 8.6875 -10.515625 L 8.6875 -8.71875 Z M 2 -5.6875 L 2 -7.5 L 8.6875 -7.5 L 8.6875 -5.6875 Z M 2 -5.6875 "/></g></g><g transform="translate(122.114865, 18.691569)"><g><path d="M 5.859375 -12.4375 L 8.09375 -12.4375 L 8.09375 -14.796875 L 5.875 -14.796875 L 5.875 -13.421875 C 5.875 -12.972656 5.867188 -12.644531 5.859375 -12.4375 Z M 11.953125 -2.953125 L 11.953125 -0.734375 L 20.1875 -0.734375 L 20.1875 1.109375 L 1.390625 1.109375 L 1.390625 -0.734375 L 9.625 -0.734375 L 9.625 -2.953125 L 2.953125 -2.953125 L 2.953125 -4.734375 L 9.625 -4.734375 L 9.625 -6.171875 L 8.09375 -6.171875 L 8.09375 -10.578125 L 5.703125 -10.578125 C 5.554688 -9.335938 5.265625 -8.296875 4.828125 -7.453125 C 4.390625 -6.609375 3.769531 -5.859375 2.96875 -5.203125 L 1.265625 -6.65625 C 1.941406 -7.207031 2.453125 -7.773438 2.796875 -8.359375 C 3.140625 -8.953125 3.378906 -9.691406 3.515625 -10.578125 L 1.21875 -10.578125 L 1.21875 -12.4375 L 3.6875 -12.4375 C 3.695312 -12.644531 3.703125 -12.972656 3.703125 -13.421875 L 3.703125 -14.796875 L 1.640625 -14.796875 L 1.640625 -16.671875 L 12.28125 -16.671875 L 12.28125 -14.796875 L 10.296875 -14.796875 L 10.296875 -12.4375 L 12.28125 -12.4375 L 12.28125 -10.578125 L 10.296875 -10.578125 L 10.296875 -6.9375 L 11.953125 -6.9375 L 11.953125 -4.734375 L 18.390625 -4.734375 L 18.390625 -2.953125 Z M 13.28125 -8.828125 L 13.28125 -16.546875 L 15.390625 -16.546875 L 15.390625 -8.828125 Z M 17.71875 -16.96875 L 19.9375 -16.96875 L 19.9375 -9.25 C 19.9375 -7.875 19.785156 -7.015625 19.484375 -6.671875 C 19.179688 -6.335938 18.410156 -6.171875 17.171875 -6.171875 C 16.515625 -6.171875 15.582031 -6.207031 14.375 -6.28125 L 14.28125 -8.203125 C 15.382812 -8.128906 16.21875 -8.09375 16.78125 -8.09375 C 17.195312 -8.09375 17.457031 -8.144531 17.5625 -8.25 C 17.664062 -8.351562 17.71875 -8.664062 17.71875 -9.1875 Z M 17.71875 -16.96875 "/></g></g><g transform="translate(143.693648, 18.691569)"><g><path d="M 11.484375 -12.046875 L 11.484375 -15.34375 L 12.828125 -15.34375 L 12.828125 -12.046875 Z M 13.59375 -12.046875 L 13.59375 -15.34375 L 14.9375 -15.34375 L 14.9375 -12.046875 Z M 1.640625 -7.6875 L 1.640625 -9.859375 L 14.375 -9.859375 L 14.375 -7.6875 L 9.984375 -7.6875 C 9.816406 -5.957031 9.457031 -4.632812 8.90625 -3.71875 C 8.363281 -2.800781 7.71875 -2.066406 6.96875 -1.515625 C 6.21875 -0.972656 5.429688 -0.5625 4.609375 -0.28125 C 3.796875 0 3.003906 0.175781 2.234375 0.25 L 2.234375 -2 C 3.015625 -2.0625 3.796875 -2.269531 4.578125 -2.625 C 5.359375 -2.976562 6.039062 -3.519531 6.625 -4.25 C 7.207031 -4.988281 7.554688 -6.132812 7.671875 -7.6875 Z M 2.234375 -13.125 L 2.234375 -15.34375 L 10.6875 -15.34375 L 10.6875 -13.125 Z M 2.234375 -13.125 "/></g></g><g transform="translate(159.730224, 18.691569)"><g><path d="M 1.28125 -6.78125 L 1.28125 -9.078125 L 10.5625 -9.078125 L 10.5625 -6.78125 Z M 1.28125 -6.78125 "/></g></g><g transform="translate(171.594341, 18.691569)"><g><path d="M 7.453125 -16.140625 C 7.316406 -15.523438 7.171875 -14.976562 7.015625 -14.5 L 14.40625 -14.5 L 14.40625 -11.796875 C 14.238281 -9.941406 13.847656 -8.332031 13.234375 -6.96875 C 12.628906 -5.613281 11.863281 -4.476562 10.9375 -3.5625 C 10.019531 -2.644531 9.082031 -1.890625 8.125 -1.296875 C 7.175781 -0.710938 6.285156 -0.265625 5.453125 0.046875 C 4.628906 0.367188 3.894531 0.609375 3.25 0.765625 L 3.25 -1.5625 C 3.988281 -1.757812 4.738281 -2.023438 5.5 -2.359375 C 6.269531 -2.691406 7.128906 -3.207031 8.078125 -3.90625 C 9.023438 -4.613281 9.914062 -5.59375 10.75 -6.84375 L 5.5 -6.84375 L 5.5 -8.984375 L 11.59375 -8.984375 C 11.894531 -9.878906 12.0625 -10.992188 12.09375 -12.328125 L 6.234375 -12.328125 C 5.296875 -10.585938 4.429688 -9.328125 3.640625 -8.546875 C 2.859375 -7.773438 2.207031 -7.195312 1.6875 -6.8125 L 1.6875 -9.71875 C 2.21875 -10.289062 2.679688 -10.847656 3.078125 -11.390625 C 3.472656 -11.941406 3.863281 -12.644531 4.25 -13.5 C 4.632812 -14.363281 4.9375 -15.242188 5.15625 -16.140625 Z M 7.453125 -16.140625 "/></g></g><g transform="translate(187.883793, 18.691569)"><g><path d="M 1.75 -15.546875 L 3.03125 -17.109375 C 4.363281 -16.140625 5.53125 -15.1875 6.53125 -14.25 L 5.21875 -12.671875 C 4.195312 -13.640625 3.039062 -14.597656 1.75 -15.546875 Z M 4.640625 -7.6875 C 3.453125 -8.78125 2.171875 -9.859375 0.796875 -10.921875 L 2.09375 -12.453125 C 3.550781 -11.390625 4.84375 -10.328125 5.96875 -9.265625 Z M 6.515625 -5.453125 C 5.742188 -2.867188 4.644531 -0.53125 3.21875 1.5625 L 1.40625 0.359375 C 2.71875 -1.609375 3.785156 -3.800781 4.609375 -6.21875 Z M 7.609375 -15.53125 C 12.117188 -15.53125 16.003906 -16.054688 19.265625 -17.109375 L 19.8125 -15.171875 C 18.5 -14.734375 16.8125 -14.367188 14.75 -14.078125 L 14.75 -11.53125 L 20.421875 -11.53125 L 20.421875 -9.625 L 14.75 -9.625 L 14.75 -7.078125 L 19.359375 -7.078125 L 19.359375 1.59375 L 17.125 1.59375 L 17.125 0.546875 L 9.984375 0.546875 L 9.984375 1.59375 L 7.84375 1.59375 L 7.84375 -7.078125 L 12.4375 -7.078125 L 12.4375 -9.625 L 6.78125 -9.625 L 6.78125 -11.53125 L 12.4375 -11.53125 L 12.4375 -13.78125 C 10.945312 -13.65625 9.378906 -13.59375 7.734375 -13.59375 Z M 17.125 -1.265625 L 17.125 -5.296875 L 9.984375 -5.296875 L 9.984375 -1.265625 Z M 17.125 -1.265625 "/></g></g><g transform="translate(209.462577, 18.691569)"><g><path d="M 9.890625 -9.984375 L 5.25 -9.984375 L 5.25 -8.140625 C 5.25 -7.722656 5.234375 -7.160156 5.203125 -6.453125 L 9.890625 -6.453125 Z M 12.046875 -9.984375 L 12.046875 -6.453125 L 17.234375 -6.453125 L 17.234375 -9.984375 Z M 9.890625 -11.734375 L 9.890625 -15.03125 L 5.25 -15.03125 L 5.25 -11.734375 Z M 12.046875 -11.734375 L 17.234375 -11.734375 L 17.234375 -15.03125 L 12.046875 -15.03125 Z M 19.46875 -16.859375 L 19.46875 -1.4375 C 19.46875 -0.925781 19.457031 -0.519531 19.4375 -0.21875 C 19.425781 0.0820312 19.375 0.359375 19.28125 0.609375 C 19.195312 0.859375 19.101562 1.039062 19 1.15625 C 18.894531 1.269531 18.710938 1.367188 18.453125 1.453125 C 18.203125 1.546875 17.9375 1.597656 17.65625 1.609375 C 17.375 1.628906 16.988281 1.640625 16.5 1.640625 C 16.175781 1.640625 15.222656 1.601562 13.640625 1.53125 L 13.546875 -0.3125 C 15.066406 -0.238281 15.925781 -0.203125 16.125 -0.203125 C 16.65625 -0.203125 16.972656 -0.253906 17.078125 -0.359375 C 17.179688 -0.472656 17.234375 -0.789062 17.234375 -1.3125 L 17.234375 -4.703125 L 12.046875 -4.703125 L 12.046875 1.203125 L 9.890625 1.203125 L 9.890625 -4.703125 L 5.078125 -4.703125 C 4.921875 -3.328125 4.648438 -2.132812 4.265625 -1.125 C 3.890625 -0.125 3.359375 0.851562 2.671875 1.8125 L 0.828125 0.359375 C 1.640625 -0.816406 2.207031 -2.078125 2.53125 -3.421875 C 2.851562 -4.765625 3.015625 -6.640625 3.015625 -9.046875 L 3.015625 -16.859375 Z M 19.46875 -16.859375 "/></g></g><g transform="translate(231.04136, 18.691569)"><g><path d="M 0.59375 0 L 5.984375 -15.765625 L 8.578125 -15.765625 L 13.96875 0 L 11.421875 0 L 10.140625 -4.1875 L 4.3125 -4.1875 L 3.03125 0 Z M 4.890625 -6.046875 L 9.5625 -6.046875 L 7.25 -13.59375 L 7.203125 -13.59375 Z M 4.890625 -6.046875 "/></g></g><g transform="translate(245.581752, 18.691569)"><g><path d="M 2.3125 0 L 2.3125 -15.765625 L 4.890625 -15.765625 L 4.890625 0 Z M 2.3125 0 "/></g></g><g transform="translate(252.788728, 18.691569)"><g><path d="M 1.875 -12.640625 L 1.875 -14.890625 L 13.90625 -14.890625 L 13.90625 -12.640625 L 9.078125 -12.640625 L 9.078125 -2.734375 L 14.34375 -2.734375 L 14.34375 -0.484375 L 1.5 -0.484375 L 1.5 -2.734375 L 6.78125 -2.734375 L 6.78125 -12.640625 Z M 1.875 -12.640625 "/></g></g><g transform="translate(268.614574, 18.691569)"><g><path d="M 1.28125 -6.78125 L 1.28125 -9.078125 L 10.5625 -9.078125 L 10.5625 -6.78125 Z M 1.28125 -6.78125 "/></g></g><g transform="translate(280.478691, 18.691569)"><g><path d="M 11.796875 -12.3125 L 11.796875 -15.34375 L 13.25 -15.34375 L 13.25 -12.3125 Z M 14.078125 -12.3125 L 14.078125 -15.34375 L 15.53125 -15.34375 L 15.53125 -12.3125 Z M 14.6875 -11.5625 C 14.113281 -9.488281 13.253906 -7.664062 12.109375 -6.09375 C 10.960938 -4.519531 9.773438 -3.3125 8.546875 -2.46875 C 7.316406 -1.625 6.148438 -1.023438 5.046875 -0.671875 C 3.953125 -0.316406 2.878906 -0.0859375 1.828125 0.015625 L 1.828125 -2.28125 C 2.691406 -2.382812 3.585938 -2.570312 4.515625 -2.84375 C 5.441406 -3.113281 6.410156 -3.628906 7.421875 -4.390625 C 8.429688 -5.160156 9.363281 -6.117188 10.21875 -7.265625 C 11.070312 -8.410156 11.78125 -9.84375 12.34375 -11.5625 Z M 1.828125 -13.109375 L 1.828125 -15.359375 L 7 -15.359375 L 7 -13.109375 Z M 1.828125 -7.984375 L 1.828125 -10.234375 L 7 -10.234375 L 7 -7.984375 Z M 1.828125 -7.984375 "/></g></g><g transform="translate(296.894582, 18.691569)"><g><path d="M 1.765625 -10.46875 L 1.765625 -12.390625 L 11.984375 -12.390625 L 11.984375 -10.46875 L 7.90625 -10.46875 L 7.90625 -2.046875 L 12.375 -2.046875 L 12.375 -0.125 L 1.453125 -0.125 L 1.453125 -2.046875 L 5.9375 -2.046875 L 5.9375 -10.46875 Z M 1.765625 -10.46875 "/></g></g><g transform="translate(310.676344, 18.691569)"><g><path d="M 1.671875 -12.828125 L 1.671875 -15.109375 L 7.234375 -15.109375 L 7.234375 -12.828125 Z M 14.515625 -11.5625 C 13.972656 -9.488281 13.125 -7.660156 11.96875 -6.078125 C 10.8125 -4.492188 9.613281 -3.285156 8.375 -2.453125 C 7.144531 -1.617188 5.984375 -1.023438 4.890625 -0.671875 C 3.796875 -0.316406 2.722656 -0.0859375 1.671875 0.015625 L 1.671875 -2.359375 C 2.523438 -2.410156 3.414062 -2.578125 4.34375 -2.859375 C 5.269531 -3.140625 6.238281 -3.65625 7.25 -4.40625 C 8.257812 -5.164062 9.191406 -6.117188 10.046875 -7.265625 C 10.910156 -8.410156 11.625 -9.84375 12.1875 -11.5625 Z M 14.515625 -11.5625 "/></g></g><g transform="translate(326.776139, 18.691569)"><g><path d="M 2.375 0.59375 L 2.375 -16.0625 L 4.734375 -16.0625 L 4.734375 -10.328125 L 13.546875 -10.328125 L 13.546875 -8.03125 L 4.734375 -8.03125 L 4.734375 0.59375 Z M 2.375 0.59375 "/></g></g></g><path fill="#ffffff" d="M 19.523438 34.765625 C 16.433594 28.539062 9.984375 28.050781 5.503906 30.902344 C 1.835938 33.230469 0.207031 37.738281 1.390625 41.914062 C 2.125 44.53125 3.175781 47 4.492188 49.3125 C 6.289062 52.464844 9.023438 54.988281 12.308594 56.539062 C 15.976562 58.289062 19.390625 59.167969 22.441406 59.167969 C 26.183594 59.167969 29.300781 57.816406 31.953125 55.660156 C 26.25 50.152344 22.753906 41.296875 19.523438 34.765625 Z M 19.523438 34.765625 " fill-opacity="1" fill-rule="nonzero"/><g clip-path="url(#7dc0e1a43d)"><path fill="#ffffff" d="M 20.378906 15.304688 C 20.378906 15.875 20.320312 16.433594 20.210938 16.992188 C 20.101562 17.546875 19.9375 18.085938 19.71875 18.609375 C 19.503906 19.132812 19.238281 19.632812 18.921875 20.101562 C 18.605469 20.574219 18.25 21.011719 17.847656 21.410156 C 17.449219 21.8125 17.011719 22.167969 16.539062 22.484375 C 16.070312 22.800781 15.570312 23.066406 15.046875 23.28125 C 14.523438 23.5 13.984375 23.664062 13.429688 23.773438 C 12.871094 23.882812 12.3125 23.9375 11.742188 23.9375 C 11.175781 23.9375 10.617188 23.882812 10.058594 23.773438 C 9.503906 23.664062 8.964844 23.5 8.441406 23.28125 C 7.917969 23.066406 7.417969 22.800781 6.949219 22.484375 C 6.476562 22.167969 6.039062 21.8125 5.640625 21.410156 C 5.238281 21.011719 4.878906 20.574219 4.566406 20.101562 C 4.25 19.632812 3.984375 19.132812 3.769531 18.609375 C 3.550781 18.085938 3.386719 17.546875 3.277344 16.992188 C 3.167969 16.433594 3.109375 15.875 3.109375 15.304688 C 3.109375 14.738281 3.167969 14.179688 3.277344 13.621094 C 3.386719 13.066406 3.550781 12.527344 3.769531 12.003906 C 3.984375 11.480469 4.25 10.980469 4.566406 10.511719 C 4.878906 10.039062 5.238281 9.601562 5.640625 9.203125 C 6.039062 8.800781 6.476562 8.441406 6.949219 8.128906 C 7.417969 7.8125 7.917969 7.546875 8.441406 7.332031 C 8.964844 7.113281 9.503906 6.949219 10.058594 6.839844 C 10.617188 6.726562 11.175781 6.671875 11.742188 6.671875 C 12.3125 6.671875 12.871094 6.726562 13.429688 6.839844 C 13.984375 6.949219 14.523438 7.113281 15.046875 7.332031 C 15.570312 7.546875 16.070312 7.8125 16.539062 8.128906 C 17.011719 8.441406 17.449219 8.800781 17.847656 9.203125 C 18.25 9.601562 18.605469 10.039062 18.921875 10.511719 C 19.238281 10.980469 19.503906 11.480469 19.71875 12.003906 C 19.9375 12.527344 20.101562 13.066406 20.210938 13.621094 C 20.320312 14.179688 20.378906 14.738281 20.378906 15.304688 Z M 20.378906 15.304688 " fill-opacity="1" fill-rule="nonzero"/></g><path fill="#ffffff" d="M 60.824219 30.902344 C 56.339844 28.050781 49.875 28.523438 46.800781 34.765625 C 40.585938 47.277344 33.453125 68.328125 11.625 57.960938 C 17.40625 62.9375 24.9375 65.949219 33.164062 65.949219 C 48.261719 65.949219 60.992188 55.804688 64.921875 41.96875 C 66.089844 37.789062 64.488281 33.230469 60.824219 30.902344 Z M 60.824219 30.902344 " fill-opacity="1" fill-rule="nonzero"/><g clip-path="url(#c95cf1d947)"><path fill="#ffffff" d="M 63.199219 15.304688 C 63.199219 15.875 63.144531 16.433594 63.035156 16.992188 C 62.925781 17.546875 62.761719 18.085938 62.542969 18.609375 C 62.328125 19.132812 62.0625 19.632812 61.746094 20.101562 C 61.429688 20.574219 61.074219 21.011719 60.671875 21.410156 C 60.269531 21.8125 59.835938 22.167969 59.363281 22.484375 C 58.894531 22.800781 58.394531 23.066406 57.871094 23.28125 C 57.347656 23.5 56.808594 23.664062 56.25 23.773438 C 55.695312 23.882812 55.132812 23.9375 54.566406 23.9375 C 54 23.9375 53.4375 23.882812 52.882812 23.773438 C 52.328125 23.664062 51.789062 23.5 51.265625 23.28125 C 50.738281 23.066406 50.242188 22.800781 49.769531 22.484375 C 49.300781 22.167969 48.863281 21.8125 48.464844 21.410156 C 48.0625 21.011719 47.703125 20.574219 47.390625 20.101562 C 47.074219 19.632812 46.808594 19.132812 46.589844 18.609375 C 46.375 18.085938 46.210938 17.546875 46.101562 16.992188 C 45.988281 16.433594 45.933594 15.875 45.933594 15.304688 C 45.933594 14.738281 45.988281 14.179688 46.101562 13.621094 C 46.210938 13.066406 46.375 12.527344 46.589844 12.003906 C 46.808594 11.480469 47.074219 10.980469 47.390625 10.511719 C 47.703125 10.039062 48.0625 9.601562 48.464844 9.203125 C 48.863281 8.800781 49.300781 8.441406 49.769531 8.128906 C 50.242188 7.8125 50.738281 7.546875 51.265625 7.332031 C 51.789062 7.113281 52.328125 6.949219 52.882812 6.839844 C 53.4375 6.726562 54 6.671875 54.566406 6.671875 C 55.132812 6.671875 55.695312 6.726562 56.25 6.839844 C 56.808594 6.949219 57.347656 7.113281 57.871094 7.332031 C 58.394531 7.546875 58.894531 7.8125 59.363281 8.128906 C 59.835938 8.441406 60.269531 8.800781 60.671875 9.203125 C 61.074219 9.601562 61.429688 10.039062 61.746094 10.511719 C 62.0625 10.980469 62.328125 11.480469 62.542969 12.003906 C 62.761719 12.527344 62.925781 13.066406 63.035156 13.621094 C 63.144531 14.179688 63.199219 14.738281 63.199219 15.304688 Z M 63.199219 15.304688 " fill-opacity="1" fill-rule="nonzero"/></g></g></g></svg>