<svg xmlns="http://www.w3.org/2000/svg" xmlns:xlink="http://www.w3.org/1999/xlink" width="500" zoomAndPan="magnify" viewBox="0 0 375 374.999991" height="500" preserveAspectRatio="xMidYMid meet" version="1.0"><defs><g/><clipPath id="efbe844286"><path d="M 90.050781 52.402344 L 284.84375 52.402344 L 284.84375 247.296875 L 90.050781 247.296875 Z M 90.050781 52.402344 " clip-rule="nonzero"/></clipPath><clipPath id="27de3c7dce"><path d="M 148.523438 52.402344 L 226.226562 52.402344 C 258.515625 52.402344 284.691406 78.582031 284.691406 110.871094 L 284.691406 188.578125 C 284.691406 220.867188 258.515625 247.046875 226.226562 247.046875 L 148.523438 247.046875 C 116.226562 247.046875 90.050781 220.867188 90.050781 188.578125 L 90.050781 110.871094 C 90.050781 78.582031 116.226562 52.402344 148.523438 52.402344 Z M 148.523438 52.402344 " clip-rule="nonzero"/></clipPath><clipPath id="8368f2722a"><path d="M 131.671875 89.679688 L 251.859375 89.679688 L 251.859375 209.863281 L 131.671875 209.863281 Z M 131.671875 89.679688 " clip-rule="nonzero"/></clipPath><clipPath id="d1ad4650de"><path d="M 131.671875 105.269531 L 131.671875 194.179688 C 131.671875 202.792969 138.652344 209.773438 147.261719 209.773438 L 236.171875 209.773438 C 244.785156 209.773438 251.765625 202.792969 251.765625 194.179688 L 251.765625 105.269531 C 251.765625 101.132812 250.121094 97.171875 247.199219 94.246094 C 244.273438 91.320312 240.308594 89.679688 236.171875 89.679688 L 147.261719 89.679688 C 138.652344 89.679688 131.671875 96.660156 131.671875 105.269531 Z M 131.671875 105.269531 " clip-rule="nonzero"/></clipPath></defs><rect x="-37.5" width="450" fill="#ffffff" y="-37.499999" height="449.999989" fill-opacity="1"/><rect x="-37.5" width="450" fill="#373a3d" y="-37.499999" height="449.999989" fill-opacity="1"/><g clip-path="url(#efbe844286)"><g clip-path="url(#27de3c7dce)"><path stroke-linecap="butt" transform="matrix(0.649653, 0, 0, 0.649653, 90.051992, 52.402888)" fill="none" stroke-linejoin="miter" d="M 90.004077 -0.000837383 L 209.611144 -0.000837383 C 259.313136 -0.000837383 299.60506 40.2971 299.60506 89.999091 L 299.60506 209.612171 C 299.60506 259.314163 259.313136 299.6121 209.611144 299.6121 L 90.004077 299.6121 C 40.29006 299.6121 -0.00186397 259.314163 -0.00186397 209.612171 L -0.00186397 89.999091 C -0.00186397 40.2971 40.29006 -0.000837383 90.004077 -0.000837383 Z M 90.004077 -0.000837383 " stroke="#f3f2f3" stroke-width="44" stroke-opacity="1" stroke-miterlimit="4"/></g></g><g clip-path="url(#8368f2722a)"><g clip-path="url(#d1ad4650de)"><path fill="#f3f2f3" d="M 138.875 89.679688 L 191.640625 89.679688 C 208.164062 89.679688 223.175781 96.523438 234.105469 107.328125 C 244.910156 118.257812 251.757812 133.269531 251.757812 149.769531 C 251.757812 166.265625 244.910156 181.300781 234.105469 192.230469 C 223.175781 203.039062 208.164062 209.761719 191.664062 209.761719 L 167.769531 209.761719 L 167.769531 180.894531 L 182.179688 180.894531 L 182.179688 195.304688 L 191.664062 195.304688 C 204.152344 195.304688 215.5625 190.257812 223.847656 181.925781 C 232.132812 173.59375 237.226562 162.234375 237.226562 149.746094 C 237.226562 137.136719 232.183594 125.847656 223.847656 117.5625 C 215.515625 109.277344 204.152344 104.183594 191.664062 104.183594 L 146.082031 104.183594 L 146.082031 159.183594 L 167.742188 159.183594 L 167.742188 125.871094 L 191.640625 125.871094 C 198.175781 125.871094 204.128906 128.585938 208.523438 132.882812 C 212.800781 137.28125 215.539062 143.210938 215.539062 149.769531 C 215.539062 156.324219 212.824219 162.257812 208.523438 166.652344 C 204.128906 170.929688 198.199219 173.664062 191.640625 173.664062 L 131.671875 173.664062 L 131.671875 89.679688 Z M 131.671875 209.761719 L 146.082031 209.761719 L 146.082031 195.351562 L 131.671875 195.351562 Z M 182.179688 140.304688 L 182.179688 159.253906 L 191.664062 159.253906 C 194.1875 159.253906 196.539062 158.175781 198.269531 156.421875 C 200.023438 154.667969 201.105469 152.339844 201.105469 149.816406 C 201.105469 147.292969 200.023438 144.941406 198.269531 143.210938 C 196.515625 141.457031 194.1875 140.378906 191.664062 140.378906 L 182.179688 140.378906 Z M 182.179688 140.304688 " fill-opacity="1" fill-rule="nonzero"/></g></g><g fill="#f3f2f3" fill-opacity="1"><g transform="translate(53.798229, 308.99998)"><g><path d="M 41.515625 -23.625 C 41.515625 -15.945312 39.390625 -10.085938 35.140625 -6.046875 C 30.898438 -2.015625 24.828125 0 16.921875 0 L 4.796875 0 L 4.796875 -46.015625 L 16.921875 -46.015625 C 24.828125 -46.015625 30.898438 -44.054688 35.140625 -40.140625 C 39.390625 -36.222656 41.515625 -30.71875 41.515625 -23.625 Z M 31.3125 -23.625 C 31.3125 -28.457031 30.191406 -31.988281 27.953125 -34.21875 C 25.722656 -36.457031 22.410156 -37.578125 18.015625 -37.578125 L 15.25 -37.578125 L 15.25 -8.359375 L 18.015625 -8.359375 C 22.484375 -8.359375 25.816406 -9.554688 28.015625 -11.953125 C 30.210938 -14.359375 31.3125 -18.25 31.3125 -23.625 Z M 31.3125 -23.625 "/></g></g></g><g fill="#f3f2f3" fill-opacity="1"><g transform="translate(99.798405, 308.99998)"><g><path d="M 15.5 -37.328125 L 15.5 -27.984375 L 32.90625 -27.984375 L 32.90625 -19.859375 L 15.5 -19.859375 L 15.5 -8.609375 L 34.140625 -8.609375 L 34.140625 0 L 4.796875 0 L 4.796875 -46.015625 L 34.140625 -46.015625 L 34.140625 -37.328125 Z M 15.5 -37.328125 "/></g></g></g><g fill="#f3f2f3" fill-opacity="1"><g transform="translate(140.632536, 308.99998)"><g><path d="M 4.796875 0 L 4.796875 -46.015625 L 15.0625 -46.015625 L 29.890625 -17.78125 L 30.015625 -17.78125 L 30.015625 -46.015625 L 40.28125 -46.015625 L 40.28125 0 L 30.015625 0 L 15.1875 -28.234375 L 15.0625 -28.234375 L 15.0625 0 Z M 4.796875 0 "/></g></g></g><g fill="#f3f2f3" fill-opacity="1"><g transform="translate(188.231726, 308.99998)"><g><path d="M 12.921875 -23 C 12.921875 -18.207031 14.054688 -14.488281 16.328125 -11.84375 C 18.609375 -9.195312 21.632812 -7.875 25.40625 -7.875 C 28.769531 -7.875 32.378906 -8.550781 36.234375 -9.90625 L 36.234375 -0.796875 C 32.421875 0.140625 28.378906 0.609375 24.109375 0.609375 C 17.222656 0.609375 11.8125 -1.414062 7.875 -5.46875 C 3.9375 -9.53125 1.96875 -15.375 1.96875 -23 C 1.96875 -30.46875 3.875 -36.269531 7.6875 -40.40625 C 11.5 -44.550781 16.832031 -46.625 23.6875 -46.625 C 28.113281 -46.625 32.109375 -46.128906 35.671875 -45.140625 L 35.671875 -35.984375 C 31.773438 -37.296875 28.207031 -37.953125 24.96875 -37.953125 C 21.15625 -37.953125 18.191406 -36.679688 16.078125 -34.140625 C 13.972656 -31.597656 12.921875 -27.882812 12.921875 -23 Z M 12.921875 -23 "/></g></g></g><g fill="#f3f2f3" fill-opacity="1"><g transform="translate(231.464377, 308.99998)"><g><path d="M 13.53125 -46.015625 L 21.828125 -26.265625 L 21.953125 -26.265625 L 30.328125 -46.015625 L 42.25 -46.015625 L 27.25 -17.65625 L 27.25 0 L 16.234375 0 L 16.234375 -17.65625 L 1.359375 -46.015625 Z M 13.53125 -46.015625 "/></g></g></g><g fill="#f3f2f3" fill-opacity="1"><g transform="translate(277.587566, 308.99998)"><g><path d="M 15.015625 -46.015625 L 15.015625 -15.9375 C 15.015625 -13.0625 15.554688 -11.019531 16.640625 -9.8125 C 17.722656 -8.601562 19.484375 -8 21.921875 -8 C 24.367188 -8 26.132812 -8.601562 27.21875 -9.8125 C 28.300781 -11.019531 28.84375 -13.0625 28.84375 -15.9375 L 28.84375 -46.015625 L 39.421875 -46.015625 L 39.421875 -16.671875 C 39.421875 -5.148438 33.546875 0.609375 21.796875 0.609375 C 10.054688 0.609375 4.1875 -5.148438 4.1875 -16.671875 L 4.1875 -46.015625 Z M 15.015625 -46.015625 "/></g></g></g></svg>