<svg xmlns="http://www.w3.org/2000/svg" xmlns:xlink="http://www.w3.org/1999/xlink" width="500" zoomAndPan="magnify" viewBox="0 0 375 97.5" height="130" preserveAspectRatio="xMidYMid meet" version="1.0"><defs><g/><clipPath id="c32e8aeda7"><path d="M 0.957031 0 L 374.042969 0 L 374.042969 97.003906 L 0.957031 97.003906 Z M 0.957031 0 " clip-rule="nonzero"/></clipPath><clipPath id="f421bd2409"><path d="M 13.925781 10.449219 L 88.464844 10.449219 L 88.464844 85 L 13.925781 85 Z M 13.925781 10.449219 " clip-rule="nonzero"/></clipPath><clipPath id="5a199c822e"><path d="M 36.296875 10.449219 L 66.03125 10.449219 C 78.386719 10.449219 88.40625 20.464844 88.40625 32.820312 L 88.40625 62.554688 C 88.40625 74.910156 78.386719 84.929688 66.03125 84.929688 L 36.296875 84.929688 C 23.941406 84.929688 13.925781 74.910156 13.925781 62.554688 L 13.925781 32.820312 C 13.925781 20.464844 23.941406 10.449219 36.296875 10.449219 Z M 36.296875 10.449219 " clip-rule="nonzero"/></clipPath><clipPath id="4947d86293"><path d="M 29.851562 24.710938 L 75.839844 24.710938 L 75.839844 70.703125 L 29.851562 70.703125 Z M 29.851562 24.710938 " clip-rule="nonzero"/></clipPath><clipPath id="bf78f0a4ce"><path d="M 29.851562 30.675781 L 29.851562 64.699219 C 29.851562 67.996094 32.523438 70.667969 35.816406 70.667969 L 69.839844 70.667969 C 73.132812 70.667969 75.804688 67.996094 75.804688 64.699219 L 75.804688 30.675781 C 75.804688 29.097656 75.175781 27.578125 74.058594 26.460938 C 72.9375 25.339844 71.421875 24.710938 69.839844 24.710938 L 35.816406 24.710938 C 32.523438 24.710938 29.851562 27.382812 29.851562 30.675781 Z M 29.851562 30.675781 " clip-rule="nonzero"/></clipPath></defs><g clip-path="url(#c32e8aeda7)"><path fill="#ffffff" d="M 0.957031 0 L 374.042969 0 L 374.042969 97.003906 L 0.957031 97.003906 Z M 0.957031 0 " fill-opacity="1" fill-rule="nonzero"/><path fill="#373a3d" d="M 0.957031 0 L 374.042969 0 L 374.042969 97.003906 L 0.957031 97.003906 Z M 0.957031 0 " fill-opacity="1" fill-rule="nonzero"/></g><g clip-path="url(#f421bd2409)"><g clip-path="url(#5a199c822e)"><path stroke-linecap="butt" transform="matrix(0.248592, 0, 0, 0.248592, 13.924795, 10.448562)" fill="none" stroke-linejoin="miter" d="M 89.995234 0.00264303 L 209.606468 0.00264303 C 259.308298 0.00264303 299.61345 40.292081 299.61345 89.993911 L 299.61345 209.605145 C 299.61345 259.306975 259.308298 299.612127 209.606468 299.612127 L 89.995234 299.612127 C 40.293404 299.612127 0.00396593 259.306975 0.00396593 209.605145 L 0.00396593 89.993911 C 0.00396593 40.292081 40.293404 0.00264303 89.995234 0.00264303 Z M 89.995234 0.00264303 " stroke="#c8c5c2" stroke-width="44" stroke-opacity="1" stroke-miterlimit="4"/></g></g><g clip-path="url(#4947d86293)"><g clip-path="url(#bf78f0a4ce)"><path fill="#c8c5c2" d="M 32.609375 24.710938 L 52.796875 24.710938 C 59.121094 24.710938 64.867188 27.332031 69.046875 31.464844 C 73.183594 35.648438 75.800781 41.390625 75.800781 47.707031 C 75.800781 54.019531 73.183594 59.773438 69.046875 63.953125 C 64.867188 68.089844 59.121094 70.664062 52.808594 70.664062 L 43.664062 70.664062 L 43.664062 59.617188 L 49.175781 59.617188 L 49.175781 65.128906 L 52.808594 65.128906 C 57.585938 65.128906 61.953125 63.199219 65.121094 60.011719 C 68.292969 56.820312 70.242188 52.476562 70.242188 47.695312 C 70.242188 42.871094 68.3125 38.550781 65.121094 35.382812 C 61.933594 32.210938 57.585938 30.261719 52.808594 30.261719 L 35.363281 30.261719 L 35.363281 51.308594 L 43.652344 51.308594 L 43.652344 38.5625 L 52.796875 38.5625 C 55.296875 38.5625 57.578125 39.601562 59.257812 41.246094 C 60.894531 42.925781 61.941406 45.195312 61.941406 47.707031 C 61.941406 50.214844 60.902344 52.484375 59.257812 54.167969 C 57.578125 55.804688 55.308594 56.847656 52.796875 56.847656 L 29.851562 56.847656 L 29.851562 24.710938 Z M 29.851562 70.664062 L 35.363281 70.664062 L 35.363281 65.148438 L 29.851562 65.148438 Z M 49.175781 44.085938 L 49.175781 51.335938 L 52.808594 51.335938 C 53.773438 51.335938 54.671875 50.921875 55.335938 50.25 C 56.007812 49.582031 56.417969 48.691406 56.417969 47.722656 C 56.417969 46.757812 56.007812 45.859375 55.335938 45.195312 C 54.664062 44.527344 53.773438 44.113281 52.808594 44.113281 L 49.175781 44.113281 Z M 49.175781 44.085938 " fill-opacity="1" fill-rule="nonzero"/></g></g><g fill="#c8c5c2" fill-opacity="1"><g transform="translate(98.303876, 72.99442)"><g><path d="M 41.296875 -23.5 C 41.296875 -15.863281 39.1875 -10.035156 34.96875 -6.015625 C 30.75 -2.003906 24.703125 0 16.828125 0 L 4.765625 0 L 4.765625 -45.765625 L 16.828125 -45.765625 C 24.703125 -45.765625 30.75 -43.816406 34.96875 -39.921875 C 39.1875 -36.023438 41.296875 -30.550781 41.296875 -23.5 Z M 31.140625 -23.5 C 31.140625 -28.3125 30.023438 -31.828125 27.796875 -34.046875 C 25.578125 -36.273438 22.285156 -37.390625 17.921875 -37.390625 L 15.171875 -37.390625 L 15.171875 -8.328125 L 17.921875 -8.328125 C 22.367188 -8.328125 25.679688 -9.519531 27.859375 -11.90625 C 30.046875 -14.289062 31.140625 -18.15625 31.140625 -23.5 Z M 31.140625 -23.5 "/></g></g></g><g fill="#c8c5c2" fill-opacity="1"><g transform="translate(144.069358, 72.99442)"><g><path d="M 15.421875 -37.140625 L 15.421875 -27.84375 L 32.734375 -27.84375 L 32.734375 -19.765625 L 15.421875 -19.765625 L 15.421875 -8.5625 L 33.953125 -8.5625 L 33.953125 0 L 4.765625 0 L 4.765625 -45.765625 L 33.953125 -45.765625 L 33.953125 -37.140625 Z M 15.421875 -37.140625 "/></g></g></g><g fill="#c8c5c2" fill-opacity="1"><g transform="translate(184.695152, 72.99442)"><g><path d="M 4.765625 0 L 4.765625 -45.765625 L 14.984375 -45.765625 L 29.734375 -17.6875 L 29.859375 -17.6875 L 29.859375 -45.765625 L 40.078125 -45.765625 L 40.078125 0 L 29.859375 0 L 15.109375 -28.078125 L 14.984375 -28.078125 L 14.984375 0 Z M 4.765625 0 "/></g></g></g><g fill="#c8c5c2" fill-opacity="1"><g transform="translate(232.051491, 72.99442)"><g><path d="M 12.84375 -22.890625 C 12.84375 -18.109375 13.972656 -14.398438 16.234375 -11.765625 C 18.503906 -9.140625 21.515625 -7.828125 25.265625 -7.828125 C 28.609375 -7.828125 32.203125 -8.5 36.046875 -9.84375 L 36.046875 -0.796875 C 32.242188 0.140625 28.222656 0.609375 23.984375 0.609375 C 17.128906 0.609375 11.742188 -1.40625 7.828125 -5.4375 C 3.910156 -9.476562 1.953125 -15.296875 1.953125 -22.890625 C 1.953125 -30.304688 3.847656 -36.070312 7.640625 -40.1875 C 11.441406 -44.3125 16.75 -46.375 23.5625 -46.375 C 27.96875 -46.375 31.941406 -45.882812 35.484375 -44.90625 L 35.484375 -35.796875 C 31.609375 -37.097656 28.0625 -37.75 24.84375 -37.75 C 21.050781 -37.75 18.101562 -36.484375 16 -33.953125 C 13.894531 -31.429688 12.84375 -27.742188 12.84375 -22.890625 Z M 12.84375 -22.890625 "/></g></g></g><g fill="#c8c5c2" fill-opacity="1"><g transform="translate(275.063568, 72.99442)"><g><path d="M 13.46875 -45.765625 L 21.71875 -26.125 L 21.84375 -26.125 L 30.171875 -45.765625 L 42.03125 -45.765625 L 27.109375 -17.5625 L 27.109375 0 L 16.15625 0 L 16.15625 -17.5625 L 1.34375 -45.765625 Z M 13.46875 -45.765625 "/></g></g></g><g fill="#c8c5c2" fill-opacity="1"><g transform="translate(320.951436, 72.99442)"><g><path d="M 14.9375 -45.765625 L 14.9375 -15.84375 C 14.9375 -12.988281 15.472656 -10.957031 16.546875 -9.75 C 17.628906 -8.550781 19.382812 -7.953125 21.8125 -7.953125 C 24.238281 -7.953125 25.992188 -8.550781 27.078125 -9.75 C 28.160156 -10.957031 28.703125 -12.988281 28.703125 -15.84375 L 28.703125 -45.765625 L 39.21875 -45.765625 L 39.21875 -16.578125 C 39.21875 -5.117188 33.375 0.609375 21.6875 0.609375 C 10 0.609375 4.15625 -5.117188 4.15625 -16.578125 L 4.15625 -45.765625 Z M 14.9375 -45.765625 "/></g></g></g></svg>