<svg xmlns="http://www.w3.org/2000/svg" xmlns:xlink="http://www.w3.org/1999/xlink" width="500" zoomAndPan="magnify" viewBox="0 0 375 374.999991" height="500" preserveAspectRatio="xMidYMid meet" version="1.0"><defs><filter x="0%" y="0%" width="100%" height="100%" id="99321935c6"><feColorMatrix values="0 0 0 0 1 0 0 0 0 1 0 0 0 0 1 0 0 0 1 0" color-interpolation-filters="sRGB"/></filter><g/><clipPath id="f3ee29568b"><path d="M 0 0.535156 L 375 0.535156 L 375 238 L 0 238 Z M 0 0.535156 " clip-rule="nonzero"/></clipPath><clipPath id="3c25bceb0e"><path d="M 0 0.535156 L 375 0.535156 L 375 238 L 0 238 Z M 0 0.535156 " clip-rule="nonzero"/></clipPath><clipPath id="04c47ace5e"><path d="M 0 0.535156 L 375 0.535156 L 375 238 L 0 238 Z M 0 0.535156 " clip-rule="nonzero"/></clipPath><clipPath id="ac0d4771ed"><rect x="0" width="375" y="0" height="238"/></clipPath><clipPath id="2676c52048"><rect x="0" width="375" y="0" height="238"/></clipPath><mask id="e4c46e21bf"><g filter="url(#99321935c6)"><g transform="matrix(1, 0, 0, 1, 0, 0)"><g clip-path="url(#2676c52048)"><g clip-path="url(#04c47ace5e)"><g transform="matrix(1, 0, 0, 1, 0, 0)"><g clip-path="url(#ac0d4771ed)"><g fill="#000000" fill-opacity="1"><g transform="translate(20.89268, 185.68787)"><g><path d="M 40.0625 -22.78125 C 40.0625 -15.382812 38.007812 -9.738281 33.90625 -5.84375 C 29.8125 -1.945312 23.945312 0 16.3125 0 L 4.625 0 L 4.625 -44.390625 L 16.3125 -44.390625 C 23.945312 -44.390625 29.8125 -42.5 33.90625 -38.71875 C 38.007812 -34.9375 40.0625 -29.625 40.0625 -22.78125 Z M 30.203125 -22.78125 C 30.203125 -27.457031 29.125 -30.867188 26.96875 -33.015625 C 24.8125 -35.171875 21.617188 -36.25 17.390625 -36.25 L 14.71875 -36.25 L 14.71875 -8.078125 L 17.390625 -8.078125 C 21.703125 -8.078125 24.914062 -9.234375 27.03125 -11.546875 C 29.144531 -13.859375 30.203125 -17.601562 30.203125 -22.78125 Z M 30.203125 -22.78125 "/></g></g><g transform="translate(62.848422, 185.68787)"><g><path d="M 16.90625 -32.21875 C 22.207031 -32.21875 25.957031 -31.257812 28.15625 -29.34375 C 30.351562 -27.425781 31.453125 -24.269531 31.453125 -19.875 L 31.453125 0 L 22.3125 0 L 22.1875 -4.21875 L 22.078125 -4.21875 C 19.546875 -1.007812 16.222656 0.59375 12.109375 0.59375 C 9.296875 0.59375 6.988281 -0.304688 5.1875 -2.109375 C 3.394531 -3.910156 2.5 -6.253906 2.5 -9.140625 C 2.5 -16.492188 7.957031 -20.171875 18.875 -20.171875 L 21.65625 -20.171875 L 21.65625 -20.953125 C 21.65625 -22.492188 21.257812 -23.609375 20.46875 -24.296875 C 19.675781 -24.992188 18.351562 -25.34375 16.5 -25.34375 C 13.019531 -25.34375 8.960938 -24.671875 4.328125 -23.328125 L 4.328125 -30.390625 C 8.566406 -31.609375 12.757812 -32.21875 16.90625 -32.21875 Z M 21.65625 -14.484375 L 18.875 -14.484375 C 13.96875 -14.484375 11.515625 -12.957031 11.515625 -9.90625 C 11.515625 -8.800781 11.828125 -7.941406 12.453125 -7.328125 C 13.085938 -6.710938 13.960938 -6.40625 15.078125 -6.40625 C 17.015625 -6.40625 18.59375 -7.019531 19.8125 -8.25 C 21.039062 -9.476562 21.65625 -11.117188 21.65625 -13.171875 Z M 21.65625 -14.484375 "/></g></g><g transform="translate(98.039024, 185.68787)"><g><path d="M 18.6875 -30.390625 L 28.609375 -30.390625 L 28.609375 -23.5 L 18.6875 -23.5 L 18.6875 -12.578125 C 18.6875 -10.003906 18.921875 -8.378906 19.390625 -7.703125 C 19.867188 -7.035156 20.921875 -6.703125 22.546875 -6.703125 C 24.441406 -6.703125 26.242188 -6.976562 27.953125 -7.53125 L 27.953125 -0.171875 C 25.617188 0.335938 23.003906 0.59375 20.109375 0.59375 C 15.960938 0.59375 13.054688 -0.285156 11.390625 -2.046875 C 9.734375 -3.804688 8.90625 -6.984375 8.90625 -11.578125 L 8.90625 -23.5 L 2.5 -23.5 L 2.5 -30.390625 L 8.90625 -30.390625 L 8.90625 -41.953125 L 18.6875 -41.953125 Z M 18.6875 -30.390625 "/></g></g><g transform="translate(130.677861, 185.68787)"><g><path d="M 16.90625 -32.21875 C 22.207031 -32.21875 25.957031 -31.257812 28.15625 -29.34375 C 30.351562 -27.425781 31.453125 -24.269531 31.453125 -19.875 L 31.453125 0 L 22.3125 0 L 22.1875 -4.21875 L 22.078125 -4.21875 C 19.546875 -1.007812 16.222656 0.59375 12.109375 0.59375 C 9.296875 0.59375 6.988281 -0.304688 5.1875 -2.109375 C 3.394531 -3.910156 2.5 -6.253906 2.5 -9.140625 C 2.5 -16.492188 7.957031 -20.171875 18.875 -20.171875 L 21.65625 -20.171875 L 21.65625 -20.953125 C 21.65625 -22.492188 21.257812 -23.609375 20.46875 -24.296875 C 19.675781 -24.992188 18.351562 -25.34375 16.5 -25.34375 C 13.019531 -25.34375 8.960938 -24.671875 4.328125 -23.328125 L 4.328125 -30.390625 C 8.566406 -31.609375 12.757812 -32.21875 16.90625 -32.21875 Z M 21.65625 -14.484375 L 18.875 -14.484375 C 13.96875 -14.484375 11.515625 -12.957031 11.515625 -9.90625 C 11.515625 -8.800781 11.828125 -7.941406 12.453125 -7.328125 C 13.085938 -6.710938 13.960938 -6.40625 15.078125 -6.40625 C 17.015625 -6.40625 18.59375 -7.019531 19.8125 -8.25 C 21.039062 -9.476562 21.65625 -11.117188 21.65625 -13.171875 Z M 21.65625 -14.484375 "/></g></g><g transform="translate(165.868463, 185.68787)"><g><path d="M 14.78125 -26.828125 L 16.796875 -26.828125 C 19.921875 -26.828125 22.175781 -27.226562 23.5625 -28.03125 C 24.945312 -28.84375 25.640625 -30.101562 25.640625 -31.8125 C 25.640625 -33.425781 25.070312 -34.609375 23.9375 -35.359375 C 22.8125 -36.117188 20.90625 -36.5 18.21875 -36.5 L 14.78125 -36.5 Z M 14.78125 -19.40625 L 14.78125 -7.828125 L 18.390625 -7.828125 C 21.316406 -7.828125 23.441406 -8.320312 24.765625 -9.3125 C 26.097656 -10.300781 26.765625 -11.90625 26.765625 -14.125 C 26.765625 -15.945312 26.0625 -17.28125 24.65625 -18.125 C 23.25 -18.976562 20.90625 -19.40625 17.625 -19.40625 Z M 36.4375 -13.0625 C 36.4375 -8.550781 34.910156 -5.242188 31.859375 -3.140625 C 28.816406 -1.046875 23.796875 0 16.796875 0 L 4.625 0 L 4.625 -44.390625 L 16.140625 -44.390625 C 22.785156 -44.390625 27.59375 -43.457031 30.5625 -41.59375 C 33.53125 -39.738281 35.015625 -36.972656 35.015625 -33.296875 C 35.015625 -30.796875 34.203125 -28.6875 32.578125 -26.96875 C 30.953125 -25.25 28.71875 -24.132812 25.875 -23.625 L 25.875 -23.5 C 29.113281 -23.101562 31.679688 -21.945312 33.578125 -20.03125 C 35.484375 -18.113281 36.4375 -15.789062 36.4375 -13.0625 Z M 36.4375 -13.0625 "/></g></g><g transform="translate(204.204261, 185.68787)"><g><path d="M 3.671875 -31.5625 L 13.234375 -31.5625 L 13.234375 -13.234375 C 13.234375 -10.898438 13.554688 -9.296875 14.203125 -8.421875 C 14.859375 -7.554688 15.957031 -7.125 17.5 -7.125 C 18.925781 -7.125 20.222656 -7.695312 21.390625 -8.84375 C 22.554688 -9.988281 23.140625 -11.234375 23.140625 -12.578125 L 23.140625 -31.5625 L 33 -31.5625 L 33 0 L 23.625 0 L 23.5 -4.03125 L 23.375 -4.03125 C 20.769531 -0.945312 17.585938 0.59375 13.828125 0.59375 C 10.265625 0.59375 7.679688 -0.394531 6.078125 -2.375 C 4.472656 -4.351562 3.671875 -7.753906 3.671875 -12.578125 Z M 3.671875 -31.5625 "/></g></g><g transform="translate(241.234506, 185.68787)"><g><path d="M 23.734375 -45.578125 L 33.53125 -45.578125 L 33.53125 0 L 24.453125 0 L 24.328125 -4.03125 L 24.21875 -4.03125 C 21.5625 -0.945312 18.332031 0.59375 14.53125 0.59375 C 10.9375 0.59375 7.984375 -0.847656 5.671875 -3.734375 C 3.359375 -6.628906 2.203125 -10.644531 2.203125 -15.78125 C 2.203125 -21.039062 3.316406 -25.09375 5.546875 -27.9375 C 7.785156 -30.789062 10.78125 -32.21875 14.53125 -32.21875 C 17.851562 -32.21875 20.882812 -30.953125 23.625 -28.421875 L 23.734375 -28.421875 Z M 11.8125 -15.78125 C 11.8125 -12.695312 12.351562 -10.410156 13.4375 -8.921875 C 14.53125 -7.441406 16.003906 -6.703125 17.859375 -6.703125 C 19.484375 -6.703125 20.898438 -7.242188 22.109375 -8.328125 C 23.316406 -9.421875 23.921875 -10.660156 23.921875 -12.046875 L 23.921875 -19.578125 C 23.921875 -20.960938 23.316406 -22.195312 22.109375 -23.28125 C 20.898438 -24.375 19.484375 -24.921875 17.859375 -24.921875 C 13.828125 -24.921875 11.8125 -21.875 11.8125 -15.78125 Z M 11.8125 -15.78125 "/></g></g><g transform="translate(279.095558, 185.68787)"><g><path d="M 23.734375 -45.578125 L 33.53125 -45.578125 L 33.53125 0 L 24.453125 0 L 24.328125 -4.03125 L 24.21875 -4.03125 C 21.5625 -0.945312 18.332031 0.59375 14.53125 0.59375 C 10.9375 0.59375 7.984375 -0.847656 5.671875 -3.734375 C 3.359375 -6.628906 2.203125 -10.644531 2.203125 -15.78125 C 2.203125 -21.039062 3.316406 -25.09375 5.546875 -27.9375 C 7.785156 -30.789062 10.78125 -32.21875 14.53125 -32.21875 C 17.851562 -32.21875 20.882812 -30.953125 23.625 -28.421875 L 23.734375 -28.421875 Z M 11.8125 -15.78125 C 11.8125 -12.695312 12.351562 -10.410156 13.4375 -8.921875 C 14.53125 -7.441406 16.003906 -6.703125 17.859375 -6.703125 C 19.484375 -6.703125 20.898438 -7.242188 22.109375 -8.328125 C 23.316406 -9.421875 23.921875 -10.660156 23.921875 -12.046875 L 23.921875 -19.578125 C 23.921875 -20.960938 23.316406 -22.195312 22.109375 -23.28125 C 20.898438 -24.375 19.484375 -24.921875 17.859375 -24.921875 C 13.828125 -24.921875 11.8125 -21.875 11.8125 -15.78125 Z M 11.8125 -15.78125 "/></g></g><g transform="translate(316.95661, 185.68787)"><g><path d="M 3.859375 14 L 3.859375 6.59375 C 7.054688 6.59375 9.367188 6.132812 10.796875 5.21875 C 12.222656 4.3125 13.351562 2.570312 14.1875 0 L 1.90625 -31.5625 L 12.703125 -31.5625 L 18.578125 -9.3125 L 18.6875 -9.3125 L 25.21875 -31.5625 L 35.546875 -31.5625 L 23.671875 0.421875 C 21.859375 5.441406 19.457031 8.957031 16.46875 10.96875 C 13.476562 12.988281 9.273438 14 3.859375 14 Z M 3.859375 14 "/></g></g></g></g></g></g></g></g></g></mask><clipPath id="7ee558cba9"><path d="M 0 11.929688 L 375 11.929688 L 375 238 L 0 238 Z M 0 11.929688 " clip-rule="nonzero"/></clipPath><linearGradient x1="-3.179907" gradientTransform="matrix(0.94959, 0, 0, 0.949493, 20.786883, 122.071837)" y1="-134.710545" x2="313.321983" gradientUnits="userSpaceOnUse" y2="181.789824" id="397eb4bec8"><stop stop-opacity="1" stop-color="rgb(38.819885%, 70.199585%, 92.939758%)" offset="0"/><stop stop-opacity="1" stop-color="rgb(38.819885%, 70.199585%, 92.939758%)" offset="0.125"/><stop stop-opacity="1" stop-color="rgb(38.819885%, 70.199585%, 92.939758%)" offset="0.1875"/><stop stop-opacity="1" stop-color="rgb(38.819885%, 70.199585%, 92.939758%)" offset="0.21875"/><stop stop-opacity="1" stop-color="rgb(38.819885%, 70.199585%, 92.939758%)" offset="0.234375"/><stop stop-opacity="1" stop-color="rgb(38.729858%, 70.08667%, 92.842102%)" offset="0.242188"/><stop stop-opacity="1" stop-color="rgb(38.510132%, 69.807434%, 92.602539%)" offset="0.25"/><stop stop-opacity="1" stop-color="rgb(38.249207%, 69.476318%, 92.3172%)" offset="0.257812"/><stop stop-opacity="1" stop-color="rgb(37.986755%, 69.143677%, 92.033386%)" offset="0.265625"/><stop stop-opacity="1" stop-color="rgb(37.72583%, 68.812561%, 91.748047%)" offset="0.273438"/><stop stop-opacity="1" stop-color="rgb(37.463379%, 68.479919%, 91.462708%)" offset="0.28125"/><stop stop-opacity="1" stop-color="rgb(37.202454%, 68.148804%, 91.177368%)" offset="0.289062"/><stop stop-opacity="1" stop-color="rgb(36.940002%, 67.816162%, 90.892029%)" offset="0.296875"/><stop stop-opacity="1" stop-color="rgb(36.679077%, 67.485046%, 90.606689%)" offset="0.304688"/><stop stop-opacity="1" stop-color="rgb(36.416626%, 67.152405%, 90.322876%)" offset="0.3125"/><stop stop-opacity="1" stop-color="rgb(36.155701%, 66.821289%, 90.037537%)" offset="0.320312"/><stop stop-opacity="1" stop-color="rgb(35.89325%, 66.488647%, 89.752197%)" offset="0.328125"/><stop stop-opacity="1" stop-color="rgb(35.632324%, 66.157532%, 89.466858%)" offset="0.335937"/><stop stop-opacity="1" stop-color="rgb(35.369873%, 65.82489%, 89.181519%)" offset="0.34375"/><stop stop-opacity="1" stop-color="rgb(35.108948%, 65.492249%, 88.896179%)" offset="0.351562"/><stop stop-opacity="1" stop-color="rgb(34.846497%, 65.161133%, 88.612366%)" offset="0.359375"/><stop stop-opacity="1" stop-color="rgb(34.584045%, 64.828491%, 88.327026%)" offset="0.367187"/><stop stop-opacity="1" stop-color="rgb(34.32312%, 64.497375%, 88.041687%)" offset="0.375"/><stop stop-opacity="1" stop-color="rgb(34.060669%, 64.164734%, 87.756348%)" offset="0.376135"/><stop stop-opacity="1" stop-color="rgb(33.930969%, 63.999939%, 87.614441%)" offset="0.382812"/><stop stop-opacity="1" stop-color="rgb(33.799744%, 63.833618%, 87.471008%)" offset="0.390625"/><stop stop-opacity="1" stop-color="rgb(33.537292%, 63.500977%, 87.185669%)" offset="0.398437"/><stop stop-opacity="1" stop-color="rgb(33.276367%, 63.169861%, 86.901855%)" offset="0.40625"/><stop stop-opacity="1" stop-color="rgb(33.013916%, 62.837219%, 86.616516%)" offset="0.414062"/><stop stop-opacity="1" stop-color="rgb(32.752991%, 62.506104%, 86.331177%)" offset="0.421875"/><stop stop-opacity="1" stop-color="rgb(32.49054%, 62.173462%, 86.045837%)" offset="0.429688"/><stop stop-opacity="1" stop-color="rgb(32.229614%, 61.842346%, 85.760498%)" offset="0.4375"/><stop stop-opacity="1" stop-color="rgb(31.967163%, 61.509705%, 85.475159%)" offset="0.445312"/><stop stop-opacity="1" stop-color="rgb(31.706238%, 61.178589%, 85.191345%)" offset="0.453125"/><stop stop-opacity="1" stop-color="rgb(31.443787%, 60.845947%, 84.906006%)" offset="0.460938"/><stop stop-opacity="1" stop-color="rgb(31.182861%, 60.514832%, 84.620667%)" offset="0.46875"/><stop stop-opacity="1" stop-color="rgb(30.92041%, 60.18219%, 84.335327%)" offset="0.476562"/><stop stop-opacity="1" stop-color="rgb(30.659485%, 59.849548%, 84.049988%)" offset="0.484375"/><stop stop-opacity="1" stop-color="rgb(30.397034%, 59.518433%, 83.764648%)" offset="0.492187"/><stop stop-opacity="1" stop-color="rgb(30.136108%, 59.185791%, 83.480835%)" offset="0.5"/><stop stop-opacity="1" stop-color="rgb(29.873657%, 58.854675%, 83.195496%)" offset="0.507812"/><stop stop-opacity="1" stop-color="rgb(29.611206%, 58.522034%, 82.910156%)" offset="0.515625"/><stop stop-opacity="1" stop-color="rgb(29.350281%, 58.190918%, 82.624817%)" offset="0.523437"/><stop stop-opacity="1" stop-color="rgb(29.08783%, 57.858276%, 82.339478%)" offset="0.53125"/><stop stop-opacity="1" stop-color="rgb(28.826904%, 57.527161%, 82.054138%)" offset="0.539062"/><stop stop-opacity="1" stop-color="rgb(28.564453%, 57.194519%, 81.770325%)" offset="0.546875"/><stop stop-opacity="1" stop-color="rgb(28.303528%, 56.863403%, 81.484985%)" offset="0.554687"/><stop stop-opacity="1" stop-color="rgb(28.041077%, 56.530762%, 81.199646%)" offset="0.5625"/><stop stop-opacity="1" stop-color="rgb(27.780151%, 56.199646%, 80.914307%)" offset="0.570312"/><stop stop-opacity="1" stop-color="rgb(27.5177%, 55.867004%, 80.628967%)" offset="0.578125"/><stop stop-opacity="1" stop-color="rgb(27.256775%, 55.535889%, 80.343628%)" offset="0.585938"/><stop stop-opacity="1" stop-color="rgb(26.994324%, 55.203247%, 80.059814%)" offset="0.59375"/><stop stop-opacity="1" stop-color="rgb(26.733398%, 54.872131%, 79.774475%)" offset="0.601562"/><stop stop-opacity="1" stop-color="rgb(26.470947%, 54.53949%, 79.489136%)" offset="0.609375"/><stop stop-opacity="1" stop-color="rgb(26.210022%, 54.206848%, 79.203796%)" offset="0.617187"/><stop stop-opacity="1" stop-color="rgb(25.947571%, 53.875732%, 78.918457%)" offset="0.623865"/><stop stop-opacity="1" stop-color="rgb(25.817871%, 53.709412%, 78.77655%)" offset="0.625"/><stop stop-opacity="1" stop-color="rgb(25.686646%, 53.543091%, 78.633118%)" offset="0.632812"/><stop stop-opacity="1" stop-color="rgb(25.424194%, 53.211975%, 78.349304%)" offset="0.640625"/><stop stop-opacity="1" stop-color="rgb(25.163269%, 52.879333%, 78.063965%)" offset="0.648438"/><stop stop-opacity="1" stop-color="rgb(24.900818%, 52.548218%, 77.778625%)" offset="0.65625"/><stop stop-opacity="1" stop-color="rgb(24.639893%, 52.215576%, 77.493286%)" offset="0.664062"/><stop stop-opacity="1" stop-color="rgb(24.377441%, 51.88446%, 77.207947%)" offset="0.671875"/><stop stop-opacity="1" stop-color="rgb(24.11499%, 51.551819%, 76.922607%)" offset="0.679688"/><stop stop-opacity="1" stop-color="rgb(23.854065%, 51.220703%, 76.638794%)" offset="0.6875"/><stop stop-opacity="1" stop-color="rgb(23.591614%, 50.888062%, 76.353455%)" offset="0.695312"/><stop stop-opacity="1" stop-color="rgb(23.330688%, 50.556946%, 76.068115%)" offset="0.703125"/><stop stop-opacity="1" stop-color="rgb(23.068237%, 50.224304%, 75.782776%)" offset="0.710937"/><stop stop-opacity="1" stop-color="rgb(22.807312%, 49.893188%, 75.497437%)" offset="0.71875"/><stop stop-opacity="1" stop-color="rgb(22.544861%, 49.560547%, 75.212097%)" offset="0.726562"/><stop stop-opacity="1" stop-color="rgb(22.283936%, 49.229431%, 74.928284%)" offset="0.734375"/><stop stop-opacity="1" stop-color="rgb(22.021484%, 48.89679%, 74.642944%)" offset="0.742187"/><stop stop-opacity="1" stop-color="rgb(21.760559%, 48.564148%, 74.357605%)" offset="0.75"/><stop stop-opacity="1" stop-color="rgb(21.498108%, 48.233032%, 74.072266%)" offset="0.757812"/><stop stop-opacity="1" stop-color="rgb(21.237183%, 47.900391%, 73.786926%)" offset="0.765625"/><stop stop-opacity="1" stop-color="rgb(20.974731%, 47.569275%, 73.501587%)" offset="0.773438"/><stop stop-opacity="1" stop-color="rgb(20.713806%, 47.236633%, 73.217773%)" offset="0.78125"/><stop stop-opacity="1" stop-color="rgb(20.451355%, 46.905518%, 72.932434%)" offset="0.789062"/><stop stop-opacity="1" stop-color="rgb(20.19043%, 46.572876%, 72.647095%)" offset="0.796875"/><stop stop-opacity="1" stop-color="rgb(19.927979%, 46.24176%, 72.361755%)" offset="0.804687"/><stop stop-opacity="1" stop-color="rgb(19.667053%, 45.909119%, 72.076416%)" offset="0.8125"/><stop stop-opacity="1" stop-color="rgb(19.404602%, 45.578003%, 71.791077%)" offset="0.820312"/><stop stop-opacity="1" stop-color="rgb(19.143677%, 45.245361%, 71.507263%)" offset="0.828125"/><stop stop-opacity="1" stop-color="rgb(18.881226%, 44.914246%, 71.221924%)" offset="0.835938"/><stop stop-opacity="1" stop-color="rgb(18.618774%, 44.581604%, 70.936584%)" offset="0.84375"/><stop stop-opacity="1" stop-color="rgb(18.357849%, 44.250488%, 70.651245%)" offset="0.851562"/><stop stop-opacity="1" stop-color="rgb(18.095398%, 43.917847%, 70.365906%)" offset="0.859375"/><stop stop-opacity="1" stop-color="rgb(17.834473%, 43.586731%, 70.080566%)" offset="0.867187"/><stop stop-opacity="1" stop-color="rgb(17.572021%, 43.254089%, 69.796753%)" offset="0.875"/><stop stop-opacity="1" stop-color="rgb(17.311096%, 42.921448%, 69.511414%)" offset="0.882812"/><stop stop-opacity="1" stop-color="rgb(17.048645%, 42.590332%, 69.226074%)" offset="0.890625"/><stop stop-opacity="1" stop-color="rgb(16.888428%, 42.385864%, 69.050598%)" offset="0.90625"/><stop stop-opacity="1" stop-color="rgb(16.859436%, 42.349243%, 69.018555%)" offset="0.9375"/><stop stop-opacity="1" stop-color="rgb(16.859436%, 42.349243%, 69.018555%)" offset="1"/></linearGradient><clipPath id="31f12f3f16"><rect x="0" width="375" y="0" height="238"/></clipPath><clipPath id="4038f0c57d"><rect x="0" width="375" y="0" height="238"/></clipPath><clipPath id="6f44261b9c"><rect x="0" width="375" y="0" height="238"/></clipPath><clipPath id="4e3e3c9e71"><path d="M 0 0.570312 L 375 0.570312 L 375 143.945312 L 0 143.945312 Z M 0 0.570312 " clip-rule="nonzero"/></clipPath><clipPath id="52fdc90a76"><path d="M 0 0.570312 L 375 0.570312 L 375 143.945312 L 0 143.945312 Z M 0 0.570312 " clip-rule="nonzero"/></clipPath><clipPath id="dc983757c7"><path d="M 0 0.570312 L 375 0.570312 L 375 143.945312 L 0 143.945312 Z M 0 0.570312 " clip-rule="nonzero"/></clipPath><clipPath id="a54f619baa"><rect x="0" width="375" y="0" height="144"/></clipPath><clipPath id="6f4c3de3ac"><rect x="0" width="375" y="0" height="144"/></clipPath><mask id="9e5cd915c8"><g filter="url(#99321935c6)"><g transform="matrix(1, 0, 0, 1, 0, 0)"><g clip-path="url(#6f4c3de3ac)"><g clip-path="url(#dc983757c7)"><g transform="matrix(1, 0, 0, 1, 0, 0)"><g clip-path="url(#a54f619baa)"><g fill="#000000" fill-opacity="1"><g transform="translate(65.355678, 81.27799)"><g><path d="M 14.140625 -14.84375 L 14.140625 -18.890625 L 15.8125 -18.890625 L 15.8125 -14.84375 Z M 16.734375 -14.84375 L 16.734375 -18.890625 L 18.40625 -18.890625 L 18.40625 -14.84375 Z M 2.03125 -9.46875 L 2.03125 -12.140625 L 17.703125 -12.140625 L 17.703125 -9.46875 L 12.296875 -9.46875 C 12.085938 -7.34375 11.644531 -5.710938 10.96875 -4.578125 C 10.300781 -3.441406 9.503906 -2.535156 8.578125 -1.859375 C 7.648438 -1.191406 6.679688 -0.679688 5.671875 -0.328125 C 4.671875 0.0117188 3.695312 0.226562 2.75 0.3125 L 2.75 -2.46875 C 3.71875 -2.53125 4.679688 -2.78125 5.640625 -3.21875 C 6.597656 -3.664062 7.4375 -4.335938 8.15625 -5.234375 C 8.875 -6.140625 9.304688 -7.550781 9.453125 -9.46875 Z M 2.75 -16.171875 L 2.75 -18.890625 L 13.15625 -18.890625 L 13.15625 -16.171875 Z M 2.75 -16.171875 "/></g></g><g transform="translate(85.113302, 81.27799)"><g><path d="M 1.578125 -8.359375 L 1.578125 -11.1875 L 13 -11.1875 L 13 -8.359375 Z M 1.578125 -8.359375 "/></g></g><g transform="translate(99.730309, 81.27799)"><g><path d="M 9.1875 -19.875 C 9.007812 -19.113281 8.828125 -18.441406 8.640625 -17.859375 L 17.75 -17.859375 L 17.75 -14.53125 C 17.539062 -12.25 17.0625 -10.269531 16.3125 -8.59375 C 15.5625 -6.914062 14.617188 -5.515625 13.484375 -4.390625 C 12.347656 -3.265625 11.191406 -2.335938 10.015625 -1.609375 C 8.835938 -0.878906 7.738281 -0.320312 6.71875 0.0625 C 5.695312 0.457031 4.789062 0.75 4 0.9375 L 4 -1.921875 C 4.914062 -2.160156 5.84375 -2.488281 6.78125 -2.90625 C 7.726562 -3.320312 8.785156 -3.960938 9.953125 -4.828125 C 11.117188 -5.691406 12.210938 -6.894531 13.234375 -8.4375 L 6.78125 -8.4375 L 6.78125 -11.0625 L 14.28125 -11.0625 C 14.65625 -12.164062 14.859375 -13.539062 14.890625 -15.1875 L 7.6875 -15.1875 C 6.519531 -13.039062 5.453125 -11.488281 4.484375 -10.53125 C 3.515625 -9.582031 2.710938 -8.867188 2.078125 -8.390625 L 2.078125 -11.96875 C 2.734375 -12.675781 3.300781 -13.363281 3.78125 -14.03125 C 4.269531 -14.707031 4.75 -15.570312 5.21875 -16.625 C 5.695312 -17.6875 6.078125 -18.769531 6.359375 -19.875 Z M 9.1875 -19.875 "/></g></g><g transform="translate(119.799485, 81.27799)"><g><path d="M 2.15625 -19.15625 L 3.734375 -21.078125 C 5.378906 -19.878906 6.816406 -18.703125 8.046875 -17.546875 L 6.4375 -15.59375 C 5.175781 -16.789062 3.75 -17.976562 2.15625 -19.15625 Z M 5.703125 -9.46875 C 4.253906 -10.820312 2.679688 -12.144531 0.984375 -13.4375 L 2.5625 -15.34375 C 4.363281 -14.019531 5.957031 -12.710938 7.34375 -11.421875 Z M 8.015625 -6.71875 C 7.066406 -3.539062 5.71875 -0.660156 3.96875 1.921875 L 1.734375 0.4375 C 3.347656 -1.976562 4.664062 -4.675781 5.6875 -7.65625 Z M 9.375 -19.125 C 14.925781 -19.125 19.707031 -19.773438 23.71875 -21.078125 L 24.390625 -18.6875 C 22.785156 -18.15625 20.710938 -17.707031 18.171875 -17.34375 L 18.171875 -14.203125 L 25.15625 -14.203125 L 25.15625 -11.859375 L 18.171875 -11.859375 L 18.171875 -8.71875 L 23.859375 -8.71875 L 23.859375 1.96875 L 21.109375 1.96875 L 21.109375 0.671875 L 12.296875 0.671875 L 12.296875 1.96875 L 9.65625 1.96875 L 9.65625 -8.71875 L 15.3125 -8.71875 L 15.3125 -11.859375 L 8.359375 -11.859375 L 8.359375 -14.203125 L 15.3125 -14.203125 L 15.3125 -16.96875 C 13.476562 -16.8125 11.550781 -16.734375 9.53125 -16.734375 Z M 21.109375 -1.5625 L 21.109375 -6.515625 L 12.296875 -6.515625 L 12.296875 -1.5625 Z M 21.109375 -1.5625 "/></g></g><g transform="translate(146.385302, 81.27799)"><g><path d="M 12.171875 -12.296875 L 6.46875 -12.296875 L 6.46875 -10.015625 C 6.46875 -9.515625 6.445312 -8.820312 6.40625 -7.9375 L 12.171875 -7.9375 Z M 14.84375 -12.296875 L 14.84375 -7.9375 L 21.234375 -7.9375 L 21.234375 -12.296875 Z M 12.171875 -14.453125 L 12.171875 -18.5 L 6.46875 -18.5 L 6.46875 -14.453125 Z M 14.84375 -14.453125 L 21.234375 -14.453125 L 21.234375 -18.5 L 14.84375 -18.5 Z M 23.984375 -20.765625 L 23.984375 -1.765625 C 23.984375 -1.140625 23.972656 -0.640625 23.953125 -0.265625 C 23.941406 0.0976562 23.878906 0.4375 23.765625 0.75 C 23.648438 1.0625 23.523438 1.285156 23.390625 1.421875 C 23.265625 1.566406 23.046875 1.691406 22.734375 1.796875 C 22.421875 1.910156 22.09375 1.976562 21.75 2 C 21.40625 2.019531 20.929688 2.03125 20.328125 2.03125 C 19.921875 2.03125 18.742188 1.984375 16.796875 1.890625 L 16.6875 -0.390625 C 18.5625 -0.304688 19.617188 -0.265625 19.859375 -0.265625 C 20.515625 -0.265625 20.90625 -0.328125 21.03125 -0.453125 C 21.164062 -0.585938 21.234375 -0.972656 21.234375 -1.609375 L 21.234375 -5.78125 L 14.84375 -5.78125 L 14.84375 1.484375 L 12.171875 1.484375 L 12.171875 -5.78125 L 6.25 -5.78125 C 6.0625 -4.09375 5.734375 -2.628906 5.265625 -1.390625 C 4.796875 -0.148438 4.140625 1.054688 3.296875 2.234375 L 1.015625 0.4375 C 2.015625 -1.007812 2.710938 -2.5625 3.109375 -4.21875 C 3.515625 -5.875 3.71875 -8.179688 3.71875 -11.140625 L 3.71875 -20.765625 Z M 23.984375 -20.765625 "/></g></g><g transform="translate(172.971119, 81.27799)"><g><path d="M 0.734375 0 L 7.375 -19.421875 L 10.5625 -19.421875 L 17.203125 0 L 14.0625 0 L 12.484375 -5.171875 L 5.328125 -5.171875 L 3.734375 0 Z M 6.015625 -7.453125 L 11.78125 -7.453125 L 8.921875 -16.734375 L 8.875 -16.734375 Z M 6.015625 -7.453125 "/></g></g><g transform="translate(190.88539, 81.27799)"><g><path d="M 2.859375 0 L 2.859375 -19.421875 L 6.015625 -19.421875 L 6.015625 0 Z M 2.859375 0 "/></g></g><g transform="translate(199.764637, 81.27799)"><g><path d="M 2.3125 -15.578125 L 2.3125 -18.34375 L 17.125 -18.34375 L 17.125 -15.578125 L 11.1875 -15.578125 L 11.1875 -3.375 L 17.671875 -3.375 L 17.671875 -0.59375 L 1.84375 -0.59375 L 1.84375 -3.375 L 8.359375 -3.375 L 8.359375 -15.578125 Z M 2.3125 -15.578125 "/></g></g><g transform="translate(219.262634, 81.27799)"><g><path d="M 1.578125 -8.359375 L 1.578125 -11.1875 L 13 -11.1875 L 13 -8.359375 Z M 1.578125 -8.359375 "/></g></g><g transform="translate(233.879641, 81.27799)"><g><path d="M 14.53125 -15.15625 L 14.53125 -18.890625 L 16.328125 -18.890625 L 16.328125 -15.15625 Z M 17.34375 -15.15625 L 17.34375 -18.890625 L 19.125 -18.890625 L 19.125 -15.15625 Z M 18.09375 -14.25 C 17.382812 -11.6875 16.320312 -9.4375 14.90625 -7.5 C 13.5 -5.5625 12.035156 -4.070312 10.515625 -3.03125 C 9.003906 -2 7.570312 -1.265625 6.21875 -0.828125 C 4.875 -0.398438 3.554688 -0.113281 2.265625 0.03125 L 2.265625 -2.796875 C 3.316406 -2.941406 4.410156 -3.175781 5.546875 -3.5 C 6.691406 -3.832031 7.882812 -4.46875 9.125 -5.40625 C 10.375 -6.351562 11.523438 -7.53125 12.578125 -8.9375 C 13.640625 -10.351562 14.515625 -12.125 15.203125 -14.25 Z M 2.265625 -16.140625 L 2.265625 -18.921875 L 8.609375 -18.921875 L 8.609375 -16.140625 Z M 2.265625 -9.84375 L 2.265625 -12.609375 L 8.609375 -12.609375 L 8.609375 -9.84375 Z M 2.265625 -9.84375 "/></g></g><g transform="translate(254.104593, 81.27799)"><g><path d="M 2.1875 -12.90625 L 2.1875 -15.265625 L 14.765625 -15.265625 L 14.765625 -12.90625 L 9.734375 -12.90625 L 9.734375 -2.515625 L 15.234375 -2.515625 L 15.234375 -0.15625 L 1.796875 -0.15625 L 1.796875 -2.515625 L 7.3125 -2.515625 L 7.3125 -12.90625 Z M 2.1875 -12.90625 "/></g></g><g transform="translate(271.084207, 81.27799)"><g><path d="M 2.046875 -15.8125 L 2.046875 -18.609375 L 8.90625 -18.609375 L 8.90625 -15.8125 Z M 17.890625 -14.25 C 17.210938 -11.6875 16.160156 -9.429688 14.734375 -7.484375 C 13.316406 -5.535156 11.847656 -4.046875 10.328125 -3.015625 C 8.804688 -1.992188 7.367188 -1.265625 6.015625 -0.828125 C 4.671875 -0.398438 3.347656 -0.113281 2.046875 0.03125 L 2.046875 -2.90625 C 3.109375 -2.976562 4.207031 -3.1875 5.34375 -3.53125 C 6.488281 -3.875 7.679688 -4.507812 8.921875 -5.4375 C 10.171875 -6.363281 11.320312 -7.53125 12.375 -8.9375 C 13.4375 -10.351562 14.3125 -12.125 15 -14.25 Z M 17.890625 -14.25 "/></g></g><g transform="translate(290.919719, 81.27799)"><g><path d="M 2.9375 0.734375 L 2.9375 -19.78125 L 5.84375 -19.78125 L 5.84375 -12.71875 L 16.6875 -12.71875 L 16.6875 -9.890625 L 5.84375 -9.890625 L 5.84375 0.734375 Z M 2.9375 0.734375 "/></g></g></g></g></g></g></g></g></g></mask><clipPath id="26a0e0869e"><path d="M 12.289062 5.320312 L 362.652344 5.320312 L 362.652344 138.246094 L 12.289062 138.246094 Z M 12.289062 5.320312 " clip-rule="nonzero"/></clipPath><linearGradient x1="48.210598" gradientTransform="matrix(0.948771, 0, 0, 0.949454, 20.930251, 53.743426)" y1="-108.320004" x2="302.852388" gradientUnits="userSpaceOnUse" y2="146.319981" id="a3b54fd1e8"><stop stop-opacity="1" stop-color="rgb(38.819885%, 70.199585%, 92.939758%)" offset="0"/><stop stop-opacity="1" stop-color="rgb(38.819885%, 70.199585%, 92.939758%)" offset="0.125"/><stop stop-opacity="1" stop-color="rgb(38.819885%, 70.199585%, 92.939758%)" offset="0.1875"/><stop stop-opacity="1" stop-color="rgb(38.819885%, 70.199585%, 92.939758%)" offset="0.21875"/><stop stop-opacity="1" stop-color="rgb(38.68866%, 70.033264%, 92.797852%)" offset="0.226562"/><stop stop-opacity="1" stop-color="rgb(38.404846%, 69.674683%, 92.488098%)" offset="0.234375"/><stop stop-opacity="1" stop-color="rgb(38.098145%, 69.285583%, 92.153931%)" offset="0.242188"/><stop stop-opacity="1" stop-color="rgb(37.792969%, 68.89801%, 91.821289%)" offset="0.25"/><stop stop-opacity="1" stop-color="rgb(37.486267%, 68.508911%, 91.487122%)" offset="0.257812"/><stop stop-opacity="1" stop-color="rgb(37.179565%, 68.121338%, 91.15448%)" offset="0.265625"/><stop stop-opacity="1" stop-color="rgb(36.87439%, 67.732239%, 90.820312%)" offset="0.273438"/><stop stop-opacity="1" stop-color="rgb(36.567688%, 67.34314%, 90.486145%)" offset="0.274896"/><stop stop-opacity="1" stop-color="rgb(36.4151%, 67.149353%, 90.319824%)" offset="0.28125"/><stop stop-opacity="1" stop-color="rgb(36.260986%, 66.955566%, 90.153503%)" offset="0.289062"/><stop stop-opacity="1" stop-color="rgb(35.954285%, 66.566467%, 89.819336%)" offset="0.296875"/><stop stop-opacity="1" stop-color="rgb(35.649109%, 66.178894%, 89.485168%)" offset="0.304688"/><stop stop-opacity="1" stop-color="rgb(35.342407%, 65.789795%, 89.152527%)" offset="0.3125"/><stop stop-opacity="1" stop-color="rgb(35.035706%, 65.402222%, 88.818359%)" offset="0.320312"/><stop stop-opacity="1" stop-color="rgb(34.73053%, 65.013123%, 88.484192%)" offset="0.328125"/><stop stop-opacity="1" stop-color="rgb(34.423828%, 64.625549%, 88.15155%)" offset="0.335938"/><stop stop-opacity="1" stop-color="rgb(34.117126%, 64.23645%, 87.817383%)" offset="0.34375"/><stop stop-opacity="1" stop-color="rgb(33.810425%, 63.847351%, 87.484741%)" offset="0.351562"/><stop stop-opacity="1" stop-color="rgb(33.505249%, 63.459778%, 87.150574%)" offset="0.359375"/><stop stop-opacity="1" stop-color="rgb(33.198547%, 63.070679%, 86.816406%)" offset="0.367188"/><stop stop-opacity="1" stop-color="rgb(32.891846%, 62.683105%, 86.483765%)" offset="0.375"/><stop stop-opacity="1" stop-color="rgb(32.58667%, 62.294006%, 86.149597%)" offset="0.382812"/><stop stop-opacity="1" stop-color="rgb(32.279968%, 61.906433%, 85.81543%)" offset="0.390625"/><stop stop-opacity="1" stop-color="rgb(31.973267%, 61.517334%, 85.482788%)" offset="0.398438"/><stop stop-opacity="1" stop-color="rgb(31.666565%, 61.129761%, 85.148621%)" offset="0.40625"/><stop stop-opacity="1" stop-color="rgb(31.361389%, 60.740662%, 84.815979%)" offset="0.414062"/><stop stop-opacity="1" stop-color="rgb(31.054688%, 60.351562%, 84.481812%)" offset="0.421875"/><stop stop-opacity="1" stop-color="rgb(30.747986%, 59.963989%, 84.147644%)" offset="0.429688"/><stop stop-opacity="1" stop-color="rgb(30.441284%, 59.57489%, 83.815002%)" offset="0.4375"/><stop stop-opacity="1" stop-color="rgb(30.136108%, 59.187317%, 83.480835%)" offset="0.445312"/><stop stop-opacity="1" stop-color="rgb(29.829407%, 58.798218%, 83.146667%)" offset="0.453125"/><stop stop-opacity="1" stop-color="rgb(29.522705%, 58.410645%, 82.814026%)" offset="0.460938"/><stop stop-opacity="1" stop-color="rgb(29.217529%, 58.021545%, 82.479858%)" offset="0.46875"/><stop stop-opacity="1" stop-color="rgb(28.910828%, 57.633972%, 82.145691%)" offset="0.476562"/><stop stop-opacity="1" stop-color="rgb(28.604126%, 57.244873%, 81.813049%)" offset="0.484375"/><stop stop-opacity="1" stop-color="rgb(28.297424%, 56.855774%, 81.478882%)" offset="0.492188"/><stop stop-opacity="1" stop-color="rgb(27.992249%, 56.468201%, 81.14624%)" offset="0.5"/><stop stop-opacity="1" stop-color="rgb(27.685547%, 56.079102%, 80.812073%)" offset="0.507812"/><stop stop-opacity="1" stop-color="rgb(27.378845%, 55.691528%, 80.477905%)" offset="0.515625"/><stop stop-opacity="1" stop-color="rgb(27.073669%, 55.302429%, 80.145264%)" offset="0.523438"/><stop stop-opacity="1" stop-color="rgb(26.766968%, 54.914856%, 79.811096%)" offset="0.53125"/><stop stop-opacity="1" stop-color="rgb(26.460266%, 54.525757%, 79.476929%)" offset="0.539062"/><stop stop-opacity="1" stop-color="rgb(26.153564%, 54.138184%, 79.144287%)" offset="0.546875"/><stop stop-opacity="1" stop-color="rgb(25.848389%, 53.749084%, 78.81012%)" offset="0.554688"/><stop stop-opacity="1" stop-color="rgb(25.541687%, 53.359985%, 78.475952%)" offset="0.5625"/><stop stop-opacity="1" stop-color="rgb(25.234985%, 52.972412%, 78.143311%)" offset="0.570312"/><stop stop-opacity="1" stop-color="rgb(24.92981%, 52.583313%, 77.809143%)" offset="0.578125"/><stop stop-opacity="1" stop-color="rgb(24.623108%, 52.19574%, 77.476501%)" offset="0.585938"/><stop stop-opacity="1" stop-color="rgb(24.316406%, 51.806641%, 77.142334%)" offset="0.59375"/><stop stop-opacity="1" stop-color="rgb(24.009705%, 51.419067%, 76.808167%)" offset="0.601563"/><stop stop-opacity="1" stop-color="rgb(23.704529%, 51.029968%, 76.475525%)" offset="0.609375"/><stop stop-opacity="1" stop-color="rgb(23.397827%, 50.642395%, 76.141357%)" offset="0.617188"/><stop stop-opacity="1" stop-color="rgb(23.091125%, 50.253296%, 75.80719%)" offset="0.625"/><stop stop-opacity="1" stop-color="rgb(22.78595%, 49.864197%, 75.474548%)" offset="0.632812"/><stop stop-opacity="1" stop-color="rgb(22.479248%, 49.476624%, 75.140381%)" offset="0.640625"/><stop stop-opacity="1" stop-color="rgb(22.172546%, 49.087524%, 74.807739%)" offset="0.648438"/><stop stop-opacity="1" stop-color="rgb(21.865845%, 48.699951%, 74.473572%)" offset="0.65625"/><stop stop-opacity="1" stop-color="rgb(21.560669%, 48.310852%, 74.139404%)" offset="0.664062"/><stop stop-opacity="1" stop-color="rgb(21.253967%, 47.923279%, 73.806763%)" offset="0.671875"/><stop stop-opacity="1" stop-color="rgb(20.947266%, 47.53418%, 73.472595%)" offset="0.679688"/><stop stop-opacity="1" stop-color="rgb(20.640564%, 47.146606%, 73.138428%)" offset="0.6875"/><stop stop-opacity="1" stop-color="rgb(20.335388%, 46.757507%, 72.805786%)" offset="0.695312"/><stop stop-opacity="1" stop-color="rgb(20.028687%, 46.368408%, 72.471619%)" offset="0.703125"/><stop stop-opacity="1" stop-color="rgb(19.721985%, 45.980835%, 72.137451%)" offset="0.710937"/><stop stop-opacity="1" stop-color="rgb(19.416809%, 45.591736%, 71.80481%)" offset="0.71875"/><stop stop-opacity="1" stop-color="rgb(19.110107%, 45.204163%, 71.470642%)" offset="0.725104"/><stop stop-opacity="1" stop-color="rgb(18.95752%, 45.010376%, 71.304321%)" offset="0.726562"/><stop stop-opacity="1" stop-color="rgb(18.803406%, 44.815063%, 71.138%)" offset="0.734375"/><stop stop-opacity="1" stop-color="rgb(18.496704%, 44.42749%, 70.803833%)" offset="0.742188"/><stop stop-opacity="1" stop-color="rgb(18.191528%, 44.038391%, 70.469666%)" offset="0.75"/><stop stop-opacity="1" stop-color="rgb(17.884827%, 43.650818%, 70.137024%)" offset="0.757812"/><stop stop-opacity="1" stop-color="rgb(17.578125%, 43.261719%, 69.802856%)" offset="0.765625"/><stop stop-opacity="1" stop-color="rgb(17.272949%, 42.87262%, 69.468689%)" offset="0.773437"/><stop stop-opacity="1" stop-color="rgb(16.989136%, 42.514038%, 69.160461%)" offset="0.78125"/><stop stop-opacity="1" stop-color="rgb(16.859436%, 42.349243%, 69.018555%)" offset="0.8125"/><stop stop-opacity="1" stop-color="rgb(16.859436%, 42.349243%, 69.018555%)" offset="0.875"/><stop stop-opacity="1" stop-color="rgb(16.859436%, 42.349243%, 69.018555%)" offset="1"/></linearGradient><clipPath id="a906d1ffd6"><rect x="0" width="375" y="0" height="144"/></clipPath><clipPath id="0985fa4bb3"><rect x="0" width="375" y="0" height="144"/></clipPath><clipPath id="09bae0689a"><rect x="0" width="375" y="0" height="145"/></clipPath><clipPath id="ac7e10e2c2"><path d="M 94 37.5 L 149 37.5 L 149 91 L 94 91 Z M 94 37.5 " clip-rule="nonzero"/></clipPath><clipPath id="cf8a0de5ce"><path d="M 226 37.5 L 281 37.5 L 281 91 L 226 91 Z M 226 37.5 " clip-rule="nonzero"/></clipPath></defs><rect x="-37.5" width="450" fill="#ffffff" y="-37.499999" height="449.999989" fill-opacity="1"/><rect x="-37.5" width="450" fill="#ffffff" y="-37.499999" height="449.999989" fill-opacity="1"/><g transform="matrix(1, 0, 0, 1, 0, 137)"><g clip-path="url(#6f44261b9c)"><g clip-path="url(#f3ee29568b)"><g transform="matrix(1, 0, 0, 1, 0, 0)"><g clip-path="url(#4038f0c57d)"><g clip-path="url(#3c25bceb0e)"><g mask="url(#e4c46e21bf)"><g transform="matrix(1, 0, 0, 1, 0, 0)"><g clip-path="url(#31f12f3f16)"><g clip-path="url(#7ee558cba9)"><path fill="url(#397eb4bec8)" d="M 0 11.929688 L 0 238 L 375 238 L 375 11.929688 Z M 0 11.929688 " fill-rule="nonzero"/></g></g></g></g></g></g></g></g></g></g><g transform="matrix(1, 0, 0, 1, 0, 185)"><g clip-path="url(#09bae0689a)"><g clip-path="url(#4e3e3c9e71)"><g transform="matrix(1, 0, 0, 1, 0, 0)"><g clip-path="url(#0985fa4bb3)"><g clip-path="url(#52fdc90a76)"><g mask="url(#9e5cd915c8)"><g transform="matrix(1, 0, 0, 1, 0, 0)"><g clip-path="url(#a906d1ffd6)"><g clip-path="url(#26a0e0869e)"><path fill="url(#a3b54fd1e8)" d="M 12.289062 5.320312 L 12.289062 138.246094 L 362.652344 138.246094 L 362.652344 5.320312 Z M 12.289062 5.320312 " fill-rule="nonzero"/></g></g></g></g></g></g></g></g></g></g><path fill="#63b3ed" d="M 145.53125 124.027344 C 136.019531 104.84375 116.148438 103.347656 102.347656 112.128906 C 91.054688 119.292969 86.039062 133.171875 89.679688 146.042969 C 91.945312 154.097656 95.183594 161.707031 99.230469 168.828125 C 104.777344 178.542969 113.195312 186.3125 123.3125 191.089844 C 134.601562 196.46875 145.125 199.183594 154.515625 199.183594 C 166.050781 199.183594 175.640625 195.015625 183.816406 188.375 C 166.25 171.417969 155.484375 144.140625 145.53125 124.027344 Z M 145.53125 124.027344 " fill-opacity="1" fill-rule="nonzero"/><g clip-path="url(#ac7e10e2c2)"><path fill="#63b3ed" d="M 148.160156 64.089844 C 148.160156 64.960938 148.117188 65.828125 148.03125 66.695312 C 147.949219 67.5625 147.820312 68.421875 147.648438 69.277344 C 147.480469 70.132812 147.269531 70.976562 147.015625 71.808594 C 146.761719 72.640625 146.46875 73.460938 146.136719 74.265625 C 145.804688 75.070312 145.429688 75.855469 145.019531 76.625 C 144.609375 77.390625 144.164062 78.136719 143.679688 78.863281 C 143.195312 79.585938 142.675781 80.285156 142.125 80.957031 C 141.574219 81.632812 140.988281 82.277344 140.371094 82.890625 C 139.757812 83.507812 139.113281 84.089844 138.4375 84.644531 C 137.765625 85.195312 137.066406 85.714844 136.34375 86.199219 C 135.621094 86.683594 134.875 87.128906 134.105469 87.539062 C 133.335938 87.949219 132.550781 88.320312 131.746094 88.65625 C 130.941406 88.988281 130.125 89.28125 129.289062 89.535156 C 128.457031 89.785156 127.613281 90 126.757812 90.167969 C 125.90625 90.339844 125.042969 90.464844 124.175781 90.550781 C 123.3125 90.636719 122.441406 90.679688 121.570312 90.679688 C 120.699219 90.679688 119.832031 90.636719 118.964844 90.550781 C 118.097656 90.464844 117.238281 90.339844 116.382812 90.167969 C 115.53125 90 114.6875 89.785156 113.851562 89.535156 C 113.019531 89.28125 112.199219 88.988281 111.394531 88.65625 C 110.589844 88.320312 109.804688 87.949219 109.035156 87.539062 C 108.269531 87.128906 107.523438 86.683594 106.800781 86.199219 C 106.074219 85.714844 105.375 85.195312 104.703125 84.644531 C 104.03125 84.089844 103.386719 83.507812 102.769531 82.890625 C 102.152344 82.277344 101.570312 81.632812 101.015625 80.957031 C 100.464844 80.285156 99.945312 79.585938 99.460938 78.863281 C 98.980469 78.136719 98.53125 77.390625 98.121094 76.625 C 97.710938 75.855469 97.339844 75.070312 97.003906 74.265625 C 96.671875 73.460938 96.378906 72.640625 96.125 71.808594 C 95.875 70.976562 95.664062 70.132812 95.492188 69.277344 C 95.324219 68.421875 95.195312 67.5625 95.109375 66.695312 C 95.023438 65.828125 94.980469 64.960938 94.980469 64.089844 C 94.980469 63.21875 95.023438 62.351562 95.109375 61.484375 C 95.195312 60.617188 95.324219 59.757812 95.492188 58.902344 C 95.664062 58.046875 95.875 57.203125 96.125 56.371094 C 96.378906 55.539062 96.671875 54.71875 97.003906 53.914062 C 97.339844 53.109375 97.710938 52.324219 98.121094 51.554688 C 98.53125 50.789062 98.980469 50.042969 99.460938 49.316406 C 99.945312 48.59375 100.464844 47.894531 101.015625 47.222656 C 101.570312 46.546875 102.152344 45.902344 102.769531 45.289062 C 103.386719 44.671875 104.03125 44.089844 104.703125 43.535156 C 105.375 42.984375 106.074219 42.464844 106.800781 41.980469 C 107.523438 41.496094 108.269531 41.050781 109.035156 40.640625 C 109.804688 40.230469 110.589844 39.855469 111.394531 39.523438 C 112.199219 39.191406 113.019531 38.898438 113.851562 38.644531 C 114.6875 38.390625 115.53125 38.179688 116.382812 38.011719 C 117.238281 37.839844 118.097656 37.714844 118.964844 37.628906 C 119.832031 37.542969 120.699219 37.5 121.570312 37.5 C 122.441406 37.5 123.3125 37.542969 124.175781 37.628906 C 125.042969 37.714844 125.90625 37.839844 126.757812 38.011719 C 127.613281 38.179688 128.457031 38.390625 129.289062 38.644531 C 130.125 38.898438 130.941406 39.191406 131.746094 39.523438 C 132.550781 39.855469 133.335938 40.230469 134.105469 40.640625 C 134.875 41.050781 135.621094 41.496094 136.34375 41.980469 C 137.066406 42.464844 137.765625 42.984375 138.4375 43.535156 C 139.113281 44.089844 139.757812 44.671875 140.371094 45.289062 C 140.988281 45.902344 141.574219 46.546875 142.125 47.222656 C 142.675781 47.894531 143.195312 48.59375 143.679688 49.316406 C 144.164062 50.042969 144.609375 50.789062 145.019531 51.554688 C 145.429688 52.324219 145.804688 53.109375 146.136719 53.914062 C 146.46875 54.71875 146.761719 55.539062 147.015625 56.371094 C 147.269531 57.203125 147.480469 58.046875 147.648438 58.902344 C 147.820312 59.757812 147.949219 60.617188 148.03125 61.484375 C 148.117188 62.351562 148.160156 63.21875 148.160156 64.089844 Z M 148.160156 64.089844 " fill-opacity="1" fill-rule="nonzero"/></g><path fill="#2b6cb0" d="M 272.730469 112.128906 C 258.929688 103.347656 239.019531 104.804688 229.546875 124.027344 C 210.40625 162.554688 188.429688 227.390625 121.207031 195.457031 C 139.015625 210.796875 162.203125 220.066406 187.539062 220.066406 C 234.039062 220.066406 273.257812 188.820312 285.359375 146.207031 C 288.960938 133.335938 284.023438 119.292969 272.730469 112.128906 Z M 272.730469 112.128906 " fill-opacity="1" fill-rule="nonzero"/><g clip-path="url(#cf8a0de5ce)"><path fill="#2b6cb0" d="M 280.054688 64.089844 C 280.054688 64.960938 280.011719 65.828125 279.929688 66.695312 C 279.84375 67.5625 279.714844 68.421875 279.546875 69.277344 C 279.375 70.132812 279.164062 70.976562 278.910156 71.808594 C 278.660156 72.640625 278.367188 73.460938 278.03125 74.265625 C 277.699219 75.070312 277.328125 75.855469 276.917969 76.625 C 276.507812 77.390625 276.058594 78.136719 275.574219 78.863281 C 275.089844 79.585938 274.574219 80.285156 274.019531 80.957031 C 273.46875 81.632812 272.882812 82.277344 272.269531 82.890625 C 271.652344 83.507812 271.007812 84.089844 270.335938 84.644531 C 269.660156 85.195312 268.964844 85.714844 268.238281 86.199219 C 267.515625 86.683594 266.769531 87.128906 266 87.539062 C 265.234375 87.949219 264.445312 88.320312 263.640625 88.65625 C 262.835938 88.988281 262.019531 89.28125 261.183594 89.535156 C 260.351562 89.785156 259.507812 90 258.652344 90.167969 C 257.800781 90.339844 256.941406 90.464844 256.074219 90.550781 C 255.207031 90.636719 254.335938 90.679688 253.464844 90.679688 C 252.597656 90.679688 251.726562 90.636719 250.859375 90.550781 C 249.992188 90.464844 249.132812 90.339844 248.28125 90.167969 C 247.425781 90 246.582031 89.785156 245.75 89.535156 C 244.914062 89.28125 244.097656 88.988281 243.292969 88.65625 C 242.488281 88.320312 241.699219 87.949219 240.933594 87.539062 C 240.164062 87.128906 239.417969 86.683594 238.695312 86.199219 C 237.96875 85.714844 237.273438 85.195312 236.597656 84.644531 C 235.925781 84.089844 235.28125 83.507812 234.664062 82.890625 C 234.050781 82.277344 233.464844 81.632812 232.914062 80.957031 C 232.359375 80.285156 231.84375 79.585938 231.359375 78.863281 C 230.875 78.136719 230.425781 77.390625 230.015625 76.625 C 229.605469 75.855469 229.234375 75.070312 228.902344 74.265625 C 228.566406 73.460938 228.273438 72.640625 228.023438 71.808594 C 227.769531 70.976562 227.558594 70.132812 227.386719 69.277344 C 227.21875 68.421875 227.089844 67.5625 227.003906 66.695312 C 226.917969 65.828125 226.878906 64.960938 226.878906 64.089844 C 226.878906 63.21875 226.917969 62.351562 227.003906 61.484375 C 227.089844 60.617188 227.21875 59.757812 227.386719 58.902344 C 227.558594 58.046875 227.769531 57.203125 228.023438 56.371094 C 228.273438 55.539062 228.566406 54.71875 228.902344 53.914062 C 229.234375 53.109375 229.605469 52.324219 230.015625 51.554688 C 230.425781 50.789062 230.875 50.042969 231.359375 49.316406 C 231.84375 48.59375 232.359375 47.894531 232.914062 47.222656 C 233.464844 46.546875 234.050781 45.902344 234.664062 45.289062 C 235.28125 44.671875 235.925781 44.089844 236.597656 43.535156 C 237.273438 42.984375 237.96875 42.464844 238.695312 41.980469 C 239.417969 41.496094 240.164062 41.050781 240.933594 40.640625 C 241.699219 40.230469 242.488281 39.855469 243.292969 39.523438 C 244.097656 39.191406 244.914062 38.898438 245.75 38.644531 C 246.582031 38.390625 247.425781 38.179688 248.28125 38.011719 C 249.132812 37.839844 249.992188 37.714844 250.859375 37.628906 C 251.726562 37.542969 252.597656 37.5 253.464844 37.5 C 254.335938 37.5 255.207031 37.542969 256.074219 37.628906 C 256.941406 37.714844 257.800781 37.839844 258.652344 38.011719 C 259.507812 38.179688 260.351562 38.390625 261.183594 38.644531 C 262.019531 38.898438 262.835938 39.191406 263.640625 39.523438 C 264.445312 39.855469 265.234375 40.230469 266 40.640625 C 266.769531 41.050781 267.515625 41.496094 268.238281 41.980469 C 268.964844 42.464844 269.660156 42.984375 270.335938 43.535156 C 271.007812 44.089844 271.652344 44.671875 272.269531 45.289062 C 272.882812 45.902344 273.46875 46.546875 274.019531 47.222656 C 274.574219 47.894531 275.089844 48.59375 275.574219 49.316406 C 276.058594 50.042969 276.507812 50.789062 276.917969 51.554688 C 277.328125 52.324219 277.699219 53.109375 278.03125 53.914062 C 278.367188 54.71875 278.660156 55.539062 278.910156 56.371094 C 279.164062 57.203125 279.375 58.046875 279.546875 58.902344 C 279.714844 59.757812 279.84375 60.617188 279.929688 61.484375 C 280.011719 62.351562 280.054688 63.21875 280.054688 64.089844 Z M 280.054688 64.089844 " fill-opacity="1" fill-rule="nonzero"/></g></svg>